<?xml version="1.0" encoding="UTF-8" standalone="no"?>
<svg
   xmlns:ns6="http://www.iki.fi/pav/software/textext/"
   xmlns:dc="http://purl.org/dc/elements/1.1/"
   xmlns:cc="http://creativecommons.org/ns#"
   xmlns:rdf="http://www.w3.org/1999/02/22-rdf-syntax-ns#"
   xmlns:svg="http://www.w3.org/2000/svg"
   xmlns="http://www.w3.org/2000/svg"
   xmlns:sodipodi="http://sodipodi.sourceforge.net/DTD/sodipodi-0.dtd"
   xmlns:inkscape="http://www.inkscape.org/namespaces/inkscape"
   width="204.49792mm"
   height="206.47797mm"
   viewBox="0 0 204.49792 206.47797"
   version="1.1"
   id="svg1065"
   inkscape:version="1.0.1 (3bc2e813f5, 2020-09-07)"
   sodipodi:docname="knn.svg">
  <defs
     id="defs1059">
    <marker
       style="overflow:visible"
       id="marker2384"
       refX="0"
       refY="0"
       orient="auto"
       inkscape:stockid="Arrow2Send"
       inkscape:isstock="true">
      <path
         transform="matrix(-0.3,0,0,-0.3,0.69,0)"
         d="M 8.7185878,4.0337352 -2.2072895,0.01601326 8.7185884,-4.0017078 c -1.7454984,2.3720609 -1.7354408,5.6174519 -6e-7,8.035443 z"
         style="fill:#000000;fill-opacity:1;fill-rule:evenodd;stroke:#000000;stroke-width:0.625;stroke-linejoin:round;stroke-opacity:1"
         id="path2382" />
    </marker>
    <marker
       style="overflow:visible"
       id="Arrow2Send"
       refX="0"
       refY="0"
       orient="auto"
       inkscape:stockid="Arrow2Send"
       inkscape:isstock="true">
      <path
         transform="matrix(-0.3,0,0,-0.3,0.69,0)"
         d="M 8.7185878,4.0337352 -2.2072895,0.01601326 8.7185884,-4.0017078 c -1.7454984,2.3720609 -1.7354408,5.6174519 -6e-7,8.035443 z"
         style="fill:#000000;fill-opacity:1;fill-rule:evenodd;stroke:#000000;stroke-width:0.625;stroke-linejoin:round;stroke-opacity:1"
         id="path2053" />
    </marker>
    <g
       id="id-df094e72-de35-42f7-9f6f-db0ecd36dfa6">
      <symbol
         overflow="visible"
         id="id-8dc39bf2-a5db-4a2f-91d9-0880cc1ec1a6">
        <path
           style="stroke:none;stroke-width:0"
           d=""
           id="id-c9f83c48-93eb-4682-aec1-de6093e2aa2c" />
      </symbol>
      <symbol
         overflow="visible"
         id="id-a8c0367d-4ad2-4dcb-afd6-0880b2066400">
        <path
           style="stroke:none;stroke-width:0"
           d="m 7.34375,-3.75 c 0.046875,-0.125 0.09375,-0.203125 0.6875,-0.203125 v -0.46875 C 7.796875,-4.40625 7.5,-4.390625 7.25,-4.390625 c -0.265625,0 -0.734375,-0.03125 -0.953125,-0.03125 v 0.46875 c 0.09375,0 0.578125,0 0.578125,0.109375 0,0.03125 -0.03125,0.09375 -0.03125,0.125 L 5.796875,-1.171875 4.65625,-3.953125 h 0.5625 v -0.46875 c -0.328125,0 -0.84375,0.03125 -1.140625,0.03125 -0.421875,0 -0.84375,-0.03125 -1,-0.03125 v 0.46875 h 0.59375 c 0.203125,0.5 0.203125,0.515625 0.203125,0.53125 0,0.03125 -0.03125,0.09375 -0.03125,0.125 L 3.046875,-1.390625 2,-3.953125 h 0.5625 v -0.46875 c -0.40625,0.015625 -0.8125,0.03125 -1.234375,0.03125 -0.296875,0 -0.734375,-0.03125 -1.078125,-0.03125 v 0.46875 h 0.59375 l 1.515625,3.71875 C 2.4375,-0.0625 2.46875,0.046875 2.71875,0.046875 c 0.25,0 0.296875,-0.109375 0.359375,-0.28125 L 4.140625,-2.8125 5.1875,-0.234375 c 0.078125,0.171875 0.109375,0.28125 0.359375,0.28125 0.25,0 0.296875,-0.109375 0.359375,-0.28125 z m 0,0"
           id="id-ff0daaec-ec9c-4830-932a-9b5218f54c0c" />
      </symbol>
      <symbol
         overflow="visible"
         id="id-ca0eb048-c6b6-495f-b00c-6c45c3a02dc6">
        <path
           style="stroke:none;stroke-width:0"
           d="M 3.453125,-2.453125 4.609375,-3.75 C 4.75,-3.890625 4.8125,-3.953125 5.625,-3.953125 v -0.46875 c -0.34375,0.015625 -0.859375,0.03125 -0.90625,0.03125 -0.25,0 -0.75,-0.03125 -1.03125,-0.03125 v 0.46875 c 0.140625,0 0.265625,0.015625 0.375,0.078125 -0.03125,0.0625 -0.03125,0.09375 -0.078125,0.125 L 3.15625,-2.8125 2.171875,-3.953125 h 0.40625 v -0.46875 c -0.265625,0 -0.890625,0.03125 -1.21875,0.03125 -0.3125,0 -0.765625,-0.03125 -1.09375,-0.03125 v 0.46875 h 0.71875 L 2.53125,-2.125 1.21875,-0.65625 c -0.15625,0.1875 -0.515625,0.1875 -1,0.1875 V 0 c 0.34375,-0.015625 0.875,-0.03125 0.921875,-0.03125 0.25,0 0.828125,0.015625 1.015625,0.03125 v -0.46875 c -0.171875,0 -0.359375,-0.046875 -0.359375,-0.109375 0,-0.015625 0,-0.015625 0.0625,-0.09375 l 0.96875,-1.09375 1.09375,1.296875 H 3.53125 V 0 c 0.265625,-0.015625 0.875,-0.03125 1.203125,-0.03125 0.3125,0 0.765625,0.015625 1.09375,0.03125 V -0.46875 H 5.125 Z m 0,0"
           id="id-0d1aa1ff-f51a-4b97-9342-7b5b9ac86d3d" />
      </symbol>
      <symbol
         overflow="visible"
         id="id-c0cbc605-c3f2-4e84-b42b-82741476928d">
        <path
           style="stroke:none;stroke-width:0"
           d=""
           id="id-f61596d3-8698-4221-96c1-53eebf0c6c22" />
      </symbol>
      <symbol
         overflow="visible"
         id="id-6f5209ff-7126-46d4-a548-c3dddd7faf46">
        <path
           style="stroke:none;stroke-width:0"
           d="m 6.5625,-2.296875 c 0.171875,0 0.359375,0 0.359375,-0.203125 0,-0.1875 -0.1875,-0.1875 -0.359375,-0.1875 H 1.171875 c -0.171875,0 -0.34375,0 -0.34375,0.1875 0,0.203125 0.171875,0.203125 0.34375,0.203125 z m 0,0"
           id="id-2a81e098-bd96-4b9c-b361-0eb69bf0c328" />
      </symbol>
      <symbol
         overflow="visible"
         id="id-2b31d799-7d91-4bef-a9f3-c9219726f884">
        <path
           style="stroke:none;stroke-width:0"
           d=""
           id="id-bfaa9839-7d71-4dc7-8a55-3ef71ecf1db3" />
      </symbol>
      <symbol
         overflow="visible"
         id="id-294b47b8-894b-43db-b8fc-db83547f008e">
        <path
           style="stroke:none;stroke-width:0"
           d="m 2.375,-6.8125 c 0,0 0,-0.109375 -0.125,-0.109375 -0.21875,0 -0.953125,0.078125 -1.21875,0.109375 -0.078125,0 -0.1875,0.015625 -0.1875,0.1875 0,0.125 0.09375,0.125 0.25,0.125 0.46875,0 0.484375,0.0625 0.484375,0.171875 0,0.0625 -0.078125,0.40625 -0.125,0.609375 l -0.828125,3.25 c -0.109375,0.5 -0.15625,0.671875 -0.15625,1.015625 0,0.9375 0.53125,1.5625 1.265625,1.5625 1.171875,0 2.40625,-1.484375 2.40625,-2.921875 0,-0.90625 -0.53125,-1.59375 -1.328125,-1.59375 -0.453125,0 -0.875,0.296875 -1.171875,0.59375 z M 1.453125,-3.046875 C 1.5,-3.265625 1.5,-3.28125 1.59375,-3.390625 2.078125,-4.03125 2.53125,-4.1875 2.796875,-4.1875 c 0.359375,0 0.625,0.296875 0.625,0.9375 0,0.59375 -0.328125,1.734375 -0.515625,2.109375 -0.328125,0.671875 -0.78125,1.03125 -1.171875,1.03125 -0.34375,0 -0.671875,-0.265625 -0.671875,-1 0,-0.203125 0,-0.390625 0.15625,-1.015625 z m 0,0"
           id="id-f2634875-1b20-4fb8-a0c3-3172fe88781b" />
      </symbol>
      <symbol
         overflow="visible"
         id="id-b263e084-6395-4ae6-8726-5e04c185c0d9">
        <path
           style="stroke:none;stroke-width:0"
           d=""
           id="id-433ea1e0-a286-4d5d-8737-a1e7ecf94d42" />
      </symbol>
      <symbol
         overflow="visible"
         id="id-72bee9b0-6eb6-4292-9069-31432a2674e1">
        <path
           style="stroke:none;stroke-width:0"
           d="m 6.84375,-3.265625 c 0.15625,0 0.34375,0 0.34375,-0.1875 C 7.1875,-3.65625 7,-3.65625 6.859375,-3.65625 h -5.96875 c -0.140625,0 -0.328125,0 -0.328125,0.203125 0,0.1875 0.1875,0.1875 0.328125,0.1875 z m 0.015625,1.9375 c 0.140625,0 0.328125,0 0.328125,-0.203125 0,-0.1875 -0.1875,-0.1875 -0.34375,-0.1875 H 0.890625 c -0.140625,0 -0.328125,0 -0.328125,0.1875 0,0.203125 0.1875,0.203125 0.328125,0.203125 z m 0,0"
           id="id-90742e10-d330-465d-bf59-3c70605139de" />
      </symbol>
      <symbol
         overflow="visible"
         id="id-a852fae2-9c6d-46e5-9091-19f02fa81c58">
        <path
           style="stroke:none;stroke-width:0"
           d="m 4.578125,-3.1875 c 0,-0.796875 -0.046875,-1.59375 -0.390625,-2.328125 -0.453125,-0.96875 -1.28125,-1.125 -1.6875,-1.125 -0.609375,0 -1.328125,0.265625 -1.75,1.1875 -0.3125,0.6875 -0.359375,1.46875 -0.359375,2.265625 0,0.75 0.03125,1.640625 0.453125,2.40625 0.421875,0.796875 1.15625,1 1.640625,1 0.53125,0 1.296875,-0.203125 1.734375,-1.15625 0.3125,-0.6875 0.359375,-1.46875 0.359375,-2.25 z M 2.484375,0 C 2.09375,0 1.5,-0.25 1.328125,-1.203125 1.21875,-1.796875 1.21875,-2.71875 1.21875,-3.3125 c 0,-0.640625 0,-1.296875 0.078125,-1.828125 0.1875,-1.1875 0.9375,-1.28125 1.1875,-1.28125 0.328125,0 0.984375,0.1875 1.171875,1.171875 0.109375,0.5625 0.109375,1.3125 0.109375,1.9375 0,0.75 0,1.421875 -0.109375,2.0625 C 3.5,-0.296875 2.9375,0 2.484375,0 Z m 0,0"
           id="id-3066ba38-8d5d-4936-9094-1736fa49073b" />
      </symbol>
    </g>
    <g
       id="id-89bfb543-597d-460f-bdfb-572facbca03c">
      <symbol
         overflow="visible"
         id="id-ba00ab27-f1c9-4659-b272-403cfd170d20">
        <path
           style="stroke:none"
           d=""
           id="id-c54feb6f-79de-48ca-a59b-af562a1688cb" />
      </symbol>
      <symbol
         overflow="visible"
         id="id-c9d21d75-de60-460d-9e75-6299e15d31da">
        <path
           style="stroke:none"
           d="m 7.34375,-3.75 c 0.046875,-0.125 0.09375,-0.203125 0.6875,-0.203125 v -0.46875 C 7.796875,-4.40625 7.5,-4.390625 7.25,-4.390625 c -0.265625,0 -0.734375,-0.03125 -0.953125,-0.03125 v 0.46875 c 0.09375,0 0.578125,0 0.578125,0.109375 0,0.03125 -0.03125,0.09375 -0.03125,0.125 L 5.796875,-1.171875 4.65625,-3.953125 h 0.5625 v -0.46875 c -0.328125,0 -0.84375,0.03125 -1.140625,0.03125 -0.421875,0 -0.84375,-0.03125 -1,-0.03125 v 0.46875 h 0.59375 c 0.203125,0.5 0.203125,0.515625 0.203125,0.53125 0,0.03125 -0.03125,0.09375 -0.03125,0.125 L 3.046875,-1.390625 2,-3.953125 h 0.5625 v -0.46875 c -0.40625,0.015625 -0.8125,0.03125 -1.234375,0.03125 -0.296875,0 -0.734375,-0.03125 -1.078125,-0.03125 v 0.46875 h 0.59375 l 1.515625,3.71875 C 2.4375,-0.0625 2.46875,0.046875 2.71875,0.046875 c 0.25,0 0.296875,-0.109375 0.359375,-0.28125 L 4.140625,-2.8125 5.1875,-0.234375 c 0.078125,0.171875 0.109375,0.28125 0.359375,0.28125 0.25,0 0.296875,-0.109375 0.359375,-0.28125 z m 0,0"
           id="id-40319931-070f-4c5d-9efd-aec98ac30fc6" />
      </symbol>
      <symbol
         overflow="visible"
         id="id-9e69a8d8-1661-4de7-bf4d-115c5ca89083">
        <path
           style="stroke:none"
           d="M 3.453125,-2.453125 4.609375,-3.75 C 4.75,-3.890625 4.8125,-3.953125 5.625,-3.953125 v -0.46875 c -0.34375,0.015625 -0.859375,0.03125 -0.90625,0.03125 -0.25,0 -0.75,-0.03125 -1.03125,-0.03125 v 0.46875 c 0.140625,0 0.265625,0.015625 0.375,0.078125 -0.03125,0.0625 -0.03125,0.09375 -0.078125,0.125 L 3.15625,-2.8125 2.171875,-3.953125 h 0.40625 v -0.46875 c -0.265625,0 -0.890625,0.03125 -1.21875,0.03125 -0.3125,0 -0.765625,-0.03125 -1.09375,-0.03125 v 0.46875 h 0.71875 L 2.53125,-2.125 1.21875,-0.65625 c -0.15625,0.1875 -0.515625,0.1875 -1,0.1875 V 0 c 0.34375,-0.015625 0.875,-0.03125 0.921875,-0.03125 0.25,0 0.828125,0.015625 1.015625,0.03125 v -0.46875 c -0.171875,0 -0.359375,-0.046875 -0.359375,-0.109375 0,-0.015625 0,-0.015625 0.0625,-0.09375 l 0.96875,-1.09375 1.09375,1.296875 H 3.53125 V 0 c 0.265625,-0.015625 0.875,-0.03125 1.203125,-0.03125 0.3125,0 0.765625,0.015625 1.09375,0.03125 V -0.46875 H 5.125 Z m 0,0"
           id="id-8699f1fe-e8b4-4cd9-a874-58d39b992f0b" />
      </symbol>
      <symbol
         overflow="visible"
         id="id-226b4396-1181-472c-9a98-19bffd014e65">
        <path
           style="stroke:none"
           d=""
           id="id-964b9628-7fd8-4dd2-bee9-a629c9624ed7" />
      </symbol>
      <symbol
         overflow="visible"
         id="id-8ea849f9-0534-4271-a34e-8f1bfa49c090">
        <path
           style="stroke:none"
           d="m 6.5625,-2.296875 c 0.171875,0 0.359375,0 0.359375,-0.203125 0,-0.1875 -0.1875,-0.1875 -0.359375,-0.1875 H 1.171875 c -0.171875,0 -0.34375,0 -0.34375,0.1875 0,0.203125 0.171875,0.203125 0.34375,0.203125 z m 0,0"
           id="id-90d7f704-37be-407e-8ff3-93c62d545523" />
      </symbol>
      <symbol
         overflow="visible"
         id="id-805d5ae9-b0e7-4dce-aaa3-e1371e6c903d">
        <path
           style="stroke:none"
           d=""
           id="id-1c8168f1-944a-4a19-a626-dd1b15e26aee" />
      </symbol>
      <symbol
         overflow="visible"
         id="id-75f37c63-1192-4d8c-bc96-79c676427bb3">
        <path
           style="stroke:none"
           d="m 2.375,-6.8125 c 0,0 0,-0.109375 -0.125,-0.109375 -0.21875,0 -0.953125,0.078125 -1.21875,0.109375 -0.078125,0 -0.1875,0.015625 -0.1875,0.1875 0,0.125 0.09375,0.125 0.25,0.125 0.46875,0 0.484375,0.0625 0.484375,0.171875 0,0.0625 -0.078125,0.40625 -0.125,0.609375 l -0.828125,3.25 c -0.109375,0.5 -0.15625,0.671875 -0.15625,1.015625 0,0.9375 0.53125,1.5625 1.265625,1.5625 1.171875,0 2.40625,-1.484375 2.40625,-2.921875 0,-0.90625 -0.53125,-1.59375 -1.328125,-1.59375 -0.453125,0 -0.875,0.296875 -1.171875,0.59375 z M 1.453125,-3.046875 C 1.5,-3.265625 1.5,-3.28125 1.59375,-3.390625 2.078125,-4.03125 2.53125,-4.1875 2.796875,-4.1875 c 0.359375,0 0.625,0.296875 0.625,0.9375 0,0.59375 -0.328125,1.734375 -0.515625,2.109375 -0.328125,0.671875 -0.78125,1.03125 -1.171875,1.03125 -0.34375,0 -0.671875,-0.265625 -0.671875,-1 0,-0.203125 0,-0.390625 0.15625,-1.015625 z m 0,0"
           id="id-ceb43989-4433-4822-abf1-707e7b466aad" />
      </symbol>
      <symbol
         overflow="visible"
         id="id-c7aab290-daf7-43d3-9402-0eb0f0ff6acd">
        <path
           style="stroke:none"
           d=""
           id="id-406efede-5998-495f-b5b4-c8489cba438e" />
      </symbol>
      <symbol
         overflow="visible"
         id="id-2e1e375c-6b85-4b40-bee4-78f9a3508015">
        <path
           style="stroke:none"
           d="m 6.84375,-3.265625 c 0.15625,0 0.34375,0 0.34375,-0.1875 C 7.1875,-3.65625 7,-3.65625 6.859375,-3.65625 h -5.96875 c -0.140625,0 -0.328125,0 -0.328125,0.203125 0,0.1875 0.1875,0.1875 0.328125,0.1875 z m 0.015625,1.9375 c 0.140625,0 0.328125,0 0.328125,-0.203125 0,-0.1875 -0.1875,-0.1875 -0.34375,-0.1875 H 0.890625 c -0.140625,0 -0.328125,0 -0.328125,0.1875 0,0.203125 0.1875,0.203125 0.328125,0.203125 z m 0,0"
           id="id-350e418e-df6f-442a-a331-e156a57c5538" />
      </symbol>
      <symbol
         overflow="visible"
         id="id-fee92ce0-d3c6-4460-87ec-b47e17bd5778">
        <path
           style="stroke:none"
           d="m 2.9375,-6.375 c 0,-0.25 0,-0.265625 -0.234375,-0.265625 C 2.078125,-6 1.203125,-6 0.890625,-6 v 0.3125 c 0.203125,0 0.78125,0 1.296875,-0.265625 v 5.171875 c 0,0.359375 -0.03125,0.46875 -0.921875,0.46875 h -0.3125 V 0 c 0.34375,-0.03125 1.203125,-0.03125 1.609375,-0.03125 0.390625,0 1.265625,0 1.609375,0.03125 v -0.3125 h -0.3125 c -0.90625,0 -0.921875,-0.109375 -0.921875,-0.46875 z m 0,0"
           id="id-369df604-2f34-426f-a8dc-919d5f60d63e" />
      </symbol>
    </g>
    <g
       id="id-f3a3d3bb-cb3c-43fc-a74e-c0bb734b9e30">
      <symbol
         overflow="visible"
         id="id-ac07cad1-c88a-454f-87ee-6ecdccab3758">
        <path
           style="stroke:none"
           d=""
           id="id-8ccda966-be4f-4b19-8ebd-16157fea1e0e" />
      </symbol>
      <symbol
         overflow="visible"
         id="id-4bbadfbb-b7ff-4843-a9b1-08f0d9fcc017">
        <path
           style="stroke:none"
           d="m 7.34375,-3.75 c 0.046875,-0.125 0.09375,-0.203125 0.6875,-0.203125 v -0.46875 C 7.796875,-4.40625 7.5,-4.390625 7.25,-4.390625 c -0.265625,0 -0.734375,-0.03125 -0.953125,-0.03125 v 0.46875 c 0.09375,0 0.578125,0 0.578125,0.109375 0,0.03125 -0.03125,0.09375 -0.03125,0.125 L 5.796875,-1.171875 4.65625,-3.953125 h 0.5625 v -0.46875 c -0.328125,0 -0.84375,0.03125 -1.140625,0.03125 -0.421875,0 -0.84375,-0.03125 -1,-0.03125 v 0.46875 h 0.59375 c 0.203125,0.5 0.203125,0.515625 0.203125,0.53125 0,0.03125 -0.03125,0.09375 -0.03125,0.125 L 3.046875,-1.390625 2,-3.953125 h 0.5625 v -0.46875 c -0.40625,0.015625 -0.8125,0.03125 -1.234375,0.03125 -0.296875,0 -0.734375,-0.03125 -1.078125,-0.03125 v 0.46875 h 0.59375 l 1.515625,3.71875 C 2.4375,-0.0625 2.46875,0.046875 2.71875,0.046875 c 0.25,0 0.296875,-0.109375 0.359375,-0.28125 L 4.140625,-2.8125 5.1875,-0.234375 c 0.078125,0.171875 0.109375,0.28125 0.359375,0.28125 0.25,0 0.296875,-0.109375 0.359375,-0.28125 z m 0,0"
           id="id-0349a9ba-9e69-47a8-b5bd-6abcdb6ae1cd" />
      </symbol>
      <symbol
         overflow="visible"
         id="id-90cb983e-8f55-4857-aaed-1a80bfda1253">
        <path
           style="stroke:none"
           d="M 3.453125,-2.453125 4.609375,-3.75 C 4.75,-3.890625 4.8125,-3.953125 5.625,-3.953125 v -0.46875 c -0.34375,0.015625 -0.859375,0.03125 -0.90625,0.03125 -0.25,0 -0.75,-0.03125 -1.03125,-0.03125 v 0.46875 c 0.140625,0 0.265625,0.015625 0.375,0.078125 -0.03125,0.0625 -0.03125,0.09375 -0.078125,0.125 L 3.15625,-2.8125 2.171875,-3.953125 h 0.40625 v -0.46875 c -0.265625,0 -0.890625,0.03125 -1.21875,0.03125 -0.3125,0 -0.765625,-0.03125 -1.09375,-0.03125 v 0.46875 h 0.71875 L 2.53125,-2.125 1.21875,-0.65625 c -0.15625,0.1875 -0.515625,0.1875 -1,0.1875 V 0 c 0.34375,-0.015625 0.875,-0.03125 0.921875,-0.03125 0.25,0 0.828125,0.015625 1.015625,0.03125 v -0.46875 c -0.171875,0 -0.359375,-0.046875 -0.359375,-0.109375 0,-0.015625 0,-0.015625 0.0625,-0.09375 l 0.96875,-1.09375 1.09375,1.296875 H 3.53125 V 0 c 0.265625,-0.015625 0.875,-0.03125 1.203125,-0.03125 0.3125,0 0.765625,0.015625 1.09375,0.03125 V -0.46875 H 5.125 Z m 0,0"
           id="id-863f672a-c5e8-4689-a41f-18e1b563b2f4" />
      </symbol>
      <symbol
         overflow="visible"
         id="id-3c429750-61dd-412d-91dc-950a3821b9e2">
        <path
           style="stroke:none"
           d=""
           id="id-95d9468c-3167-4e48-85af-48c9263f5f1b" />
      </symbol>
      <symbol
         overflow="visible"
         id="id-7866c219-79cc-4446-9fb7-06ab84fa73f6">
        <path
           style="stroke:none"
           d="m 6.5625,-2.296875 c 0.171875,0 0.359375,0 0.359375,-0.203125 0,-0.1875 -0.1875,-0.1875 -0.359375,-0.1875 H 1.171875 c -0.171875,0 -0.34375,0 -0.34375,0.1875 0,0.203125 0.171875,0.203125 0.34375,0.203125 z m 0,0"
           id="id-c139ec5f-637a-4777-8fb6-4d5d0dda7991" />
      </symbol>
      <symbol
         overflow="visible"
         id="id-1e5b959a-b22f-4c34-91a3-8513e6df5c1f">
        <path
           style="stroke:none"
           d=""
           id="id-d9420fda-61bf-4f5a-9853-e4af53da00e4" />
      </symbol>
      <symbol
         overflow="visible"
         id="id-219961d4-cf60-4477-a999-6ddc293fef9f">
        <path
           style="stroke:none"
           d="m 2.375,-6.8125 c 0,0 0,-0.109375 -0.125,-0.109375 -0.21875,0 -0.953125,0.078125 -1.21875,0.109375 -0.078125,0 -0.1875,0.015625 -0.1875,0.1875 0,0.125 0.09375,0.125 0.25,0.125 0.46875,0 0.484375,0.0625 0.484375,0.171875 0,0.0625 -0.078125,0.40625 -0.125,0.609375 l -0.828125,3.25 c -0.109375,0.5 -0.15625,0.671875 -0.15625,1.015625 0,0.9375 0.53125,1.5625 1.265625,1.5625 1.171875,0 2.40625,-1.484375 2.40625,-2.921875 0,-0.90625 -0.53125,-1.59375 -1.328125,-1.59375 -0.453125,0 -0.875,0.296875 -1.171875,0.59375 z M 1.453125,-3.046875 C 1.5,-3.265625 1.5,-3.28125 1.59375,-3.390625 2.078125,-4.03125 2.53125,-4.1875 2.796875,-4.1875 c 0.359375,0 0.625,0.296875 0.625,0.9375 0,0.59375 -0.328125,1.734375 -0.515625,2.109375 -0.328125,0.671875 -0.78125,1.03125 -1.171875,1.03125 -0.34375,0 -0.671875,-0.265625 -0.671875,-1 0,-0.203125 0,-0.390625 0.15625,-1.015625 z m 0,0"
           id="id-9212e102-755a-47c4-9b1f-1b539c7c6800" />
      </symbol>
      <symbol
         overflow="visible"
         id="id-5f7c6d8a-78a3-40f5-a742-a9222f06844b">
        <path
           style="stroke:none"
           d=""
           id="id-2f399828-52e3-4dac-83f3-4c57a606e854" />
      </symbol>
      <symbol
         overflow="visible"
         id="id-10f6b198-cb71-407d-81e1-f20f06c6ce45">
        <path
           style="stroke:none"
           d="m 6.84375,-3.265625 c 0.15625,0 0.34375,0 0.34375,-0.1875 C 7.1875,-3.65625 7,-3.65625 6.859375,-3.65625 h -5.96875 c -0.140625,0 -0.328125,0 -0.328125,0.203125 0,0.1875 0.1875,0.1875 0.328125,0.1875 z m 0.015625,1.9375 c 0.140625,0 0.328125,0 0.328125,-0.203125 0,-0.1875 -0.1875,-0.1875 -0.34375,-0.1875 H 0.890625 c -0.140625,0 -0.328125,0 -0.328125,0.1875 0,0.203125 0.1875,0.203125 0.328125,0.203125 z m 0,0"
           id="id-e1eaf633-f007-4395-bf03-346daf1be648" />
      </symbol>
      <symbol
         overflow="visible"
         id="id-42f67e36-288d-4349-888b-005e30badffe">
        <path
           style="stroke:none"
           d="m 2.9375,-6.375 c 0,-0.25 0,-0.265625 -0.234375,-0.265625 C 2.078125,-6 1.203125,-6 0.890625,-6 v 0.3125 c 0.203125,0 0.78125,0 1.296875,-0.265625 v 5.171875 c 0,0.359375 -0.03125,0.46875 -0.921875,0.46875 h -0.3125 V 0 c 0.34375,-0.03125 1.203125,-0.03125 1.609375,-0.03125 0.390625,0 1.265625,0 1.609375,0.03125 v -0.3125 h -0.3125 c -0.90625,0 -0.921875,-0.109375 -0.921875,-0.46875 z m 0,0"
           id="id-bdba5aa8-54db-4408-829c-5cff556824c5" />
      </symbol>
    </g>
    <g
       id="id-91fb0305-f634-4fd0-b448-22c574dc932f">
      <symbol
         overflow="visible"
         id="id-77b31f50-d9d7-4354-b567-0edad7ea89c2">
        <path
           style="stroke:none;stroke-width:0"
           d=""
           id="id-83e8a890-89a8-40af-a931-10a9de06477e" />
      </symbol>
      <symbol
         overflow="visible"
         id="id-a614ae22-b82d-4adf-94f1-b0786ae4a5d4">
        <path
           style="stroke:none;stroke-width:0"
           d="M 3.453125,-2.453125 4.609375,-3.75 C 4.75,-3.890625 4.8125,-3.953125 5.625,-3.953125 v -0.46875 c -0.34375,0.015625 -0.859375,0.03125 -0.90625,0.03125 -0.25,0 -0.75,-0.03125 -1.03125,-0.03125 v 0.46875 c 0.140625,0 0.265625,0.015625 0.375,0.078125 -0.03125,0.0625 -0.03125,0.09375 -0.078125,0.125 L 3.15625,-2.8125 2.171875,-3.953125 h 0.40625 v -0.46875 c -0.265625,0 -0.890625,0.03125 -1.21875,0.03125 -0.3125,0 -0.765625,-0.03125 -1.09375,-0.03125 v 0.46875 h 0.71875 L 2.53125,-2.125 1.21875,-0.65625 c -0.15625,0.1875 -0.515625,0.1875 -1,0.1875 V 0 c 0.34375,-0.015625 0.875,-0.03125 0.921875,-0.03125 0.25,0 0.828125,0.015625 1.015625,0.03125 v -0.46875 c -0.171875,0 -0.359375,-0.046875 -0.359375,-0.109375 0,-0.015625 0,-0.015625 0.0625,-0.09375 l 0.96875,-1.09375 1.09375,1.296875 H 3.53125 V 0 c 0.265625,-0.015625 0.875,-0.03125 1.203125,-0.03125 0.3125,0 0.765625,0.015625 1.09375,0.03125 V -0.46875 H 5.125 Z m 0,0"
           id="id-40dc9871-b635-4d4e-9c02-4652a3a21026" />
      </symbol>
      <symbol
         overflow="visible"
         id="id-083772c1-b2c0-45bd-bb77-98eafe6f528b">
        <path
           style="stroke:none;stroke-width:0"
           d=""
           id="id-0e965dae-0f93-453c-863b-3f6c3408fe95" />
      </symbol>
      <symbol
         overflow="visible"
         id="id-e7284589-5c13-4da4-a266-459f87804382">
        <path
           style="stroke:none;stroke-width:0"
           d="m 2.328125,-4.4375 c 0,-0.1875 0,-0.1875 -0.203125,-0.1875 -0.453125,0.4375 -1.078125,0.4375 -1.359375,0.4375 v 0.25 c 0.15625,0 0.625,0 1,-0.1875 v 3.546875 c 0,0.234375 0,0.328125 -0.6875,0.328125 H 0.8125 V 0 c 0.125,0 0.984375,-0.03125 1.234375,-0.03125 0.21875,0 1.09375,0.03125 1.25,0.03125 V -0.25 H 3.03125 c -0.703125,0 -0.703125,-0.09375 -0.703125,-0.328125 z m 0,0"
           id="id-08c15134-58d9-4ba9-9d0f-f4c4be4544de" />
      </symbol>
    </g>
    <g
       id="id-30c5adb5-9a4f-4d71-a3d7-36388435982a">
      <symbol
         overflow="visible"
         id="id-d04b1b7e-ddf4-449f-adec-38554ae3f16d">
        <path
           style="stroke:none"
           d=""
           id="id-c23b30d2-a059-4af3-8345-28df40fda445" />
      </symbol>
      <symbol
         overflow="visible"
         id="id-e8cc2828-e726-4ef6-90e0-b1af7d7bc2d1">
        <path
           style="stroke:none"
           d="M 3.453125,-2.453125 4.609375,-3.75 C 4.75,-3.890625 4.8125,-3.953125 5.625,-3.953125 v -0.46875 c -0.34375,0.015625 -0.859375,0.03125 -0.90625,0.03125 -0.25,0 -0.75,-0.03125 -1.03125,-0.03125 v 0.46875 c 0.140625,0 0.265625,0.015625 0.375,0.078125 -0.03125,0.0625 -0.03125,0.09375 -0.078125,0.125 L 3.15625,-2.8125 2.171875,-3.953125 h 0.40625 v -0.46875 c -0.265625,0 -0.890625,0.03125 -1.21875,0.03125 -0.3125,0 -0.765625,-0.03125 -1.09375,-0.03125 v 0.46875 h 0.71875 L 2.53125,-2.125 1.21875,-0.65625 c -0.15625,0.1875 -0.515625,0.1875 -1,0.1875 V 0 c 0.34375,-0.015625 0.875,-0.03125 0.921875,-0.03125 0.25,0 0.828125,0.015625 1.015625,0.03125 v -0.46875 c -0.171875,0 -0.359375,-0.046875 -0.359375,-0.109375 0,-0.015625 0,-0.015625 0.0625,-0.09375 l 0.96875,-1.09375 1.09375,1.296875 H 3.53125 V 0 c 0.265625,-0.015625 0.875,-0.03125 1.203125,-0.03125 0.3125,0 0.765625,0.015625 1.09375,0.03125 V -0.46875 H 5.125 Z m 0,0"
           id="id-ef22ab77-4c5a-4848-8b37-bc076231a94b" />
      </symbol>
      <symbol
         overflow="visible"
         id="id-82008b9f-1196-40d5-b732-63392c7a2db7">
        <path
           style="stroke:none"
           d=""
           id="id-049b5123-1f26-426a-999d-b729745eb814" />
      </symbol>
      <symbol
         overflow="visible"
         id="id-3ad830ca-021e-4e23-9bd8-e9002be5bf00">
        <path
           style="stroke:none"
           d="M 3.515625,-1.265625 H 3.28125 c -0.015625,0.15625 -0.09375,0.5625 -0.1875,0.625 C 3.046875,-0.59375 2.515625,-0.59375 2.40625,-0.59375 H 1.125 c 0.734375,-0.640625 0.984375,-0.84375 1.390625,-1.171875 0.515625,-0.40625 1,-0.84375 1,-1.5 0,-0.84375 -0.734375,-1.359375 -1.625,-1.359375 -0.859375,0 -1.453125,0.609375 -1.453125,1.25 0,0.34375 0.296875,0.390625 0.375,0.390625 0.15625,0 0.359375,-0.125 0.359375,-0.375 0,-0.125 -0.046875,-0.375 -0.40625,-0.375 C 0.984375,-4.21875 1.453125,-4.375 1.78125,-4.375 c 0.703125,0 1.0625,0.546875 1.0625,1.109375 0,0.609375 -0.4375,1.078125 -0.65625,1.328125 L 0.515625,-0.265625 C 0.4375,-0.203125 0.4375,-0.1875 0.4375,0 h 2.875 z m 0,0"
           id="id-1d08b9f1-d728-418d-964f-1a27e2318964" />
      </symbol>
    </g>
  </defs>
  <sodipodi:namedview
     id="base"
     pagecolor="#ffffff"
     bordercolor="#666666"
     borderopacity="1.0"
     inkscape:pageopacity="0.0"
     inkscape:pageshadow="2"
     inkscape:zoom="0.70076065"
     inkscape:cx="254.25483"
     inkscape:cy="332.4896"
     inkscape:document-units="mm"
     inkscape:current-layer="layer1"
     inkscape:document-rotation="0"
     showgrid="false"
     inkscape:window-width="1600"
     inkscape:window-height="837"
     inkscape:window-x="1358"
     inkscape:window-y="-8"
     inkscape:window-maximized="1" />
  <metadata
     id="metadata1062">
    <rdf:RDF>
      <cc:Work
         rdf:about="">
        <dc:format>image/svg+xml</dc:format>
        <dc:type
           rdf:resource="http://purl.org/dc/dcmitype/StillImage" />
        <dc:title></dc:title>
      </cc:Work>
    </rdf:RDF>
  </metadata>
  <g
     inkscape:label="Capa 1"
     inkscape:groupmode="layer"
     id="layer1"
     transform="translate(-3.5843648,-44.927688)">
    <circle
       style="opacity:0.995891;fill:#ff0000;fill-opacity:1;stroke:#000000;stroke-width:0.450591;stroke-linecap:round"
       id="path833"
       cx="115.26035"
       cy="-96.564995"
       r="4.7747045"
       transform="rotate(101.37897)" />
    <circle
       style="opacity:0.995891;fill:#ff0000;fill-opacity:1;stroke:#000000;stroke-width:0.450591;stroke-linecap:round"
       id="circle835"
       cx="102.4912"
       cy="-186.32297"
       r="4.7747045"
       transform="rotate(101.37897)" />
    <circle
       style="opacity:0.995891;fill:#ff0000;fill-opacity:1;stroke:#000000;stroke-width:0.450591;stroke-linecap:round"
       id="circle837"
       cx="129.89474"
       cy="-161.00301"
       r="4.7747045"
       transform="rotate(101.37897)" />
    <circle
       style="opacity:0.995891;fill:#ff0000;fill-opacity:1;stroke:#000000;stroke-width:0.450591;stroke-linecap:round"
       id="circle839"
       cx="154.00403"
       cy="-143.95685"
       r="4.7747045"
       transform="rotate(101.37897)" />
    <circle
       style="opacity:0.995891;fill:#ff0000;fill-opacity:1;stroke:#000000;stroke-width:0.450591;stroke-linecap:round"
       id="circle841"
       cx="109.74315"
       cy="-117.8019"
       r="4.7747045"
       transform="rotate(101.37897)" />
    <circle
       style="opacity:0.995891;fill:#ff0000;fill-opacity:1;stroke:#000000;stroke-width:0.450591;stroke-linecap:round"
       id="circle843"
       cx="74.901482"
       cy="-166.90324"
       r="4.7747045"
       transform="rotate(101.37897)" />
    <circle
       style="opacity:0.995891;fill:#ff0000;fill-opacity:1;stroke:#000000;stroke-width:0.450591;stroke-linecap:round"
       id="circle845"
       cx="104.4707"
       cy="-164.2737"
       r="4.7747045"
       transform="rotate(101.37897)" />
    <circle
       style="opacity:0.995891;fill:#ff0000;fill-opacity:1;stroke:#000000;stroke-width:0.450591;stroke-linecap:round"
       id="circle847"
       cx="146.36926"
       cy="-110.58002"
       r="4.7747045"
       transform="rotate(101.37897)" />
    <circle
       style="opacity:0.995891;fill:#00ffff;fill-opacity:1;stroke:#000000;stroke-width:0.450591;stroke-linecap:round"
       id="circle849"
       cx="121.5692"
       cy="-159.50316"
       transform="rotate(92.003514)"
       r="4.7747045" />
    <circle
       style="opacity:0.995891;fill:#00ffff;fill-opacity:1;stroke:#000000;stroke-width:0.450591;stroke-linecap:round"
       id="circle851"
       cx="89.329498"
       cy="-131.57033"
       transform="rotate(92.003514)"
       r="4.7747045" />
    <circle
       style="opacity:0.995891;fill:#00ffff;fill-opacity:1;stroke:#000000;stroke-width:0.450591;stroke-linecap:round"
       id="circle853"
       cx="156.50082"
       cy="-108.66103"
       transform="rotate(92.003514)"
       r="4.7747045" />
    <circle
       style="opacity:0.995891;fill:#00ffff;fill-opacity:1;stroke:#000000;stroke-width:0.450591;stroke-linecap:round"
       id="circle855"
       cx="110.72588"
       cy="-118.48676"
       transform="rotate(92.003514)"
       r="4.7747045" />
    <circle
       style="opacity:0.995891;fill:#00ffff;fill-opacity:1;stroke:#000000;stroke-width:0.450591;stroke-linecap:round"
       id="circle857"
       cx="179.6593"
       cy="-146.9413"
       transform="rotate(92.003514)"
       r="4.7747045" />
    <circle
       style="opacity:0.995891;fill:#00ffff;fill-opacity:1;stroke:#000000;stroke-width:0.450591;stroke-linecap:round"
       id="circle859"
       cx="87.163879"
       cy="-102.76407"
       transform="rotate(92.003514)"
       r="4.7747045" />
    <circle
       style="opacity:0.995891;fill:#00ffff;fill-opacity:1;stroke:#000000;stroke-width:0.450591;stroke-linecap:round"
       id="circle861"
       cx="154.1965"
       cy="-166.92717"
       transform="rotate(92.003514)"
       r="4.7747045" />
    <circle
       style="opacity:0.995891;fill:#00ffff;fill-opacity:1;stroke:#000000;stroke-width:0.450591;stroke-linecap:round"
       id="circle863"
       cx="97.3974"
       cy="-68.368172"
       transform="rotate(92.003514)"
       r="4.7747045" />
    <path
       style="fill:#000000;fill-opacity:1;stroke:#000000;stroke-width:1.99928;stroke-linecap:butt;stroke-linejoin:miter;stroke-miterlimit:4;stroke-dasharray:none;stroke-opacity:1;marker-end:url(#marker2384)"
       d="M 6.1918554,247.81849 6.1911333,47.818485"
       id="path877" />
    <path
       style="fill:#000000;fill-opacity:1;stroke:#000000;stroke-width:1.99928;stroke-linecap:butt;stroke-linejoin:miter;stroke-miterlimit:4;stroke-dasharray:none;stroke-opacity:1;marker-end:url(#Arrow2Send)"
       d="M 5.1914983,248.81885 205.1915,248.81806"
       id="path881" />
    <g
       transform="matrix(1.76389,0,0,1.76389,187.5812,236.20466)"
       ns6:version="1.3.0"
       ns6:texconverter="pdflatex"
       ns6:pdfconverter="inkscape"
       ns6:text="$\\mathbf{x}_1$"
       ns6:preamble="C:\Users\NARUTO\AppData\Roaming\inkscape\extensions\textext\default_packages.tex"
       ns6:scale="5.0"
       ns6:alignment="middle center"
       ns6:jacobian_sqrt="1.76389"
       id="g2643">
      <defs
         id="id-c7825cb0-f9fc-46d5-9bd2-f25137fd49b1">
        <g
           id="g2341">
          <symbol
             overflow="visible"
             id="symbol2327">
            <path
               style="stroke:none;stroke-width:0"
               d=""
               id="path2325" />
          </symbol>
          <symbol
             overflow="visible"
             id="symbol2331">
            <path
               style="stroke:none;stroke-width:0"
               d="M 3.453125,-2.453125 4.609375,-3.75 C 4.75,-3.890625 4.8125,-3.953125 5.625,-3.953125 v -0.46875 c -0.34375,0.015625 -0.859375,0.03125 -0.90625,0.03125 -0.25,0 -0.75,-0.03125 -1.03125,-0.03125 v 0.46875 c 0.140625,0 0.265625,0.015625 0.375,0.078125 -0.03125,0.0625 -0.03125,0.09375 -0.078125,0.125 L 3.15625,-2.8125 2.171875,-3.953125 h 0.40625 v -0.46875 c -0.265625,0 -0.890625,0.03125 -1.21875,0.03125 -0.3125,0 -0.765625,-0.03125 -1.09375,-0.03125 v 0.46875 h 0.71875 L 2.53125,-2.125 1.21875,-0.65625 c -0.15625,0.1875 -0.515625,0.1875 -1,0.1875 V 0 c 0.34375,-0.015625 0.875,-0.03125 0.921875,-0.03125 0.25,0 0.828125,0.015625 1.015625,0.03125 v -0.46875 c -0.171875,0 -0.359375,-0.046875 -0.359375,-0.109375 0,-0.015625 0,-0.015625 0.0625,-0.09375 l 0.96875,-1.09375 1.09375,1.296875 H 3.53125 V 0 c 0.265625,-0.015625 0.875,-0.03125 1.203125,-0.03125 0.3125,0 0.765625,0.015625 1.09375,0.03125 V -0.46875 H 5.125 Z m 0,0"
               id="path2329" />
          </symbol>
          <symbol
             overflow="visible"
             id="symbol2335">
            <path
               style="stroke:none;stroke-width:0"
               d=""
               id="path2333" />
          </symbol>
          <symbol
             overflow="visible"
             id="symbol2339">
            <path
               style="stroke:none;stroke-width:0"
               d="m 2.328125,-4.4375 c 0,-0.1875 0,-0.1875 -0.203125,-0.1875 -0.453125,0.4375 -1.078125,0.4375 -1.359375,0.4375 v 0.25 c 0.15625,0 0.625,0 1,-0.1875 v 3.546875 c 0,0.234375 0,0.328125 -0.6875,0.328125 H 0.8125 V 0 c 0.125,0 0.984375,-0.03125 1.234375,-0.03125 0.21875,0 1.09375,0.03125 1.25,0.03125 V -0.25 H 3.03125 c -0.703125,0 -0.703125,-0.09375 -0.703125,-0.328125 z m 0,0"
               id="path2337" />
          </symbol>
        </g>
      </defs>
      <g
         id="id-ffa3b99e-fd1d-44bd-8d5c-236c77604602"
         transform="translate(-148.931,-130.343)">
        <g
           style="fill:#000000;fill-opacity:1"
           id="id-bc1461cb-643a-4f7c-8527-9cbe7516aba7">
          <g
             transform="translate(148.712,134.765)"
             id="g2635">
            <path
               style="stroke:none;stroke-width:0"
               d="M 3.453125,-2.453125 4.609375,-3.75 C 4.75,-3.890625 4.8125,-3.953125 5.625,-3.953125 v -0.46875 c -0.34375,0.015625 -0.859375,0.03125 -0.90625,0.03125 -0.25,0 -0.75,-0.03125 -1.03125,-0.03125 v 0.46875 c 0.140625,0 0.265625,0.015625 0.375,0.078125 -0.03125,0.0625 -0.03125,0.09375 -0.078125,0.125 L 3.15625,-2.8125 2.171875,-3.953125 h 0.40625 v -0.46875 c -0.265625,0 -0.890625,0.03125 -1.21875,0.03125 -0.3125,0 -0.765625,-0.03125 -1.09375,-0.03125 v 0.46875 h 0.71875 L 2.53125,-2.125 1.21875,-0.65625 c -0.15625,0.1875 -0.515625,0.1875 -1,0.1875 V 0 c 0.34375,-0.015625 0.875,-0.03125 0.921875,-0.03125 0.25,0 0.828125,0.015625 1.015625,0.03125 v -0.46875 c -0.171875,0 -0.359375,-0.046875 -0.359375,-0.109375 0,-0.015625 0,-0.015625 0.0625,-0.09375 l 0.96875,-1.09375 1.09375,1.296875 H 3.53125 V 0 c 0.265625,-0.015625 0.875,-0.03125 1.203125,-0.03125 0.3125,0 0.765625,0.015625 1.09375,0.03125 V -0.46875 H 5.125 Z m 0,0"
               id="id-6849cb34-819c-4e17-9cfb-1314074e88a5" />
          </g>
        </g>
        <g
           style="fill:#000000;fill-opacity:1"
           id="id-36baa01d-4099-4eea-b44d-afba0b8c1f45">
          <g
             transform="translate(154.759,136.259)"
             id="g2639">
            <path
               style="stroke:none;stroke-width:0"
               d="m 2.328125,-4.4375 c 0,-0.1875 0,-0.1875 -0.203125,-0.1875 -0.453125,0.4375 -1.078125,0.4375 -1.359375,0.4375 v 0.25 c 0.15625,0 0.625,0 1,-0.1875 v 3.546875 c 0,0.234375 0,0.328125 -0.6875,0.328125 H 0.8125 V 0 c 0.125,0 0.984375,-0.03125 1.234375,-0.03125 0.21875,0 1.09375,0.03125 1.25,0.03125 V -0.25 H 3.03125 c -0.703125,0 -0.703125,-0.09375 -0.703125,-0.328125 z m 0,0"
               id="id-4590a61a-d86c-42e6-94f4-8ca5ee922165" />
          </g>
        </g>
      </g>
    </g>
    <g
       transform="matrix(1.76389,0,0,1.76389,7.6193379,50.622785)"
       ns6:version="1.3.0"
       ns6:texconverter="pdflatex"
       ns6:pdfconverter="inkscape"
       ns6:text="$\\mathbf{x}_2$"
       ns6:preamble="C:\Users\NARUTO\AppData\Roaming\inkscape\extensions\textext\default_packages.tex"
       ns6:scale="5.0"
       ns6:alignment="middle center"
       ns6:jacobian_sqrt="1.76389"
       id="g2699">
      <defs
         id="id-18a6ff9b-4f4e-4418-b2ca-b1f11d14a675">
        <g
           id="g2368">
          <symbol
             overflow="visible"
             id="symbol2354">
            <path
               style="stroke:none"
               d=""
               id="path2352" />
          </symbol>
          <symbol
             overflow="visible"
             id="symbol2358">
            <path
               style="stroke:none"
               d="M 3.453125,-2.453125 4.609375,-3.75 C 4.75,-3.890625 4.8125,-3.953125 5.625,-3.953125 v -0.46875 c -0.34375,0.015625 -0.859375,0.03125 -0.90625,0.03125 -0.25,0 -0.75,-0.03125 -1.03125,-0.03125 v 0.46875 c 0.140625,0 0.265625,0.015625 0.375,0.078125 -0.03125,0.0625 -0.03125,0.09375 -0.078125,0.125 L 3.15625,-2.8125 2.171875,-3.953125 h 0.40625 v -0.46875 c -0.265625,0 -0.890625,0.03125 -1.21875,0.03125 -0.3125,0 -0.765625,-0.03125 -1.09375,-0.03125 v 0.46875 h 0.71875 L 2.53125,-2.125 1.21875,-0.65625 c -0.15625,0.1875 -0.515625,0.1875 -1,0.1875 V 0 c 0.34375,-0.015625 0.875,-0.03125 0.921875,-0.03125 0.25,0 0.828125,0.015625 1.015625,0.03125 v -0.46875 c -0.171875,0 -0.359375,-0.046875 -0.359375,-0.109375 0,-0.015625 0,-0.015625 0.0625,-0.09375 l 0.96875,-1.09375 1.09375,1.296875 H 3.53125 V 0 c 0.265625,-0.015625 0.875,-0.03125 1.203125,-0.03125 0.3125,0 0.765625,0.015625 1.09375,0.03125 V -0.46875 H 5.125 Z m 0,0"
               id="path2356" />
          </symbol>
          <symbol
             overflow="visible"
             id="symbol2362">
            <path
               style="stroke:none"
               d=""
               id="path2360" />
          </symbol>
          <symbol
             overflow="visible"
             id="symbol2366">
            <path
               style="stroke:none"
               d="M 3.515625,-1.265625 H 3.28125 c -0.015625,0.15625 -0.09375,0.5625 -0.1875,0.625 C 3.046875,-0.59375 2.515625,-0.59375 2.40625,-0.59375 H 1.125 c 0.734375,-0.640625 0.984375,-0.84375 1.390625,-1.171875 0.515625,-0.40625 1,-0.84375 1,-1.5 0,-0.84375 -0.734375,-1.359375 -1.625,-1.359375 -0.859375,0 -1.453125,0.609375 -1.453125,1.25 0,0.34375 0.296875,0.390625 0.375,0.390625 0.15625,0 0.359375,-0.125 0.359375,-0.375 0,-0.125 -0.046875,-0.375 -0.40625,-0.375 C 0.984375,-4.21875 1.453125,-4.375 1.78125,-4.375 c 0.703125,0 1.0625,0.546875 1.0625,1.109375 0,0.609375 -0.4375,1.078125 -0.65625,1.328125 L 0.515625,-0.265625 C 0.4375,-0.203125 0.4375,-0.1875 0.4375,0 h 2.875 z m 0,0"
               id="path2364" />
          </symbol>
        </g>
      </defs>
      <g
         id="id-a0615ebc-3dc9-400c-b006-fd3ea2231b0a"
         transform="translate(-148.931,-130.343)">
        <g
           style="fill:#000000;fill-opacity:1"
           id="id-e8560e80-0b05-436e-9f08-ed82bd2bb6ee">
          <g
             transform="translate(148.712,134.765)"
             id="g2890">
            <path
               style="stroke:none"
               d="M 3.453125,-2.453125 4.609375,-3.75 C 4.75,-3.890625 4.8125,-3.953125 5.625,-3.953125 v -0.46875 c -0.34375,0.015625 -0.859375,0.03125 -0.90625,0.03125 -0.25,0 -0.75,-0.03125 -1.03125,-0.03125 v 0.46875 c 0.140625,0 0.265625,0.015625 0.375,0.078125 -0.03125,0.0625 -0.03125,0.09375 -0.078125,0.125 L 3.15625,-2.8125 2.171875,-3.953125 h 0.40625 v -0.46875 c -0.265625,0 -0.890625,0.03125 -1.21875,0.03125 -0.3125,0 -0.765625,-0.03125 -1.09375,-0.03125 v 0.46875 h 0.71875 L 2.53125,-2.125 1.21875,-0.65625 c -0.15625,0.1875 -0.515625,0.1875 -1,0.1875 V 0 c 0.34375,-0.015625 0.875,-0.03125 0.921875,-0.03125 0.25,0 0.828125,0.015625 1.015625,0.03125 v -0.46875 c -0.171875,0 -0.359375,-0.046875 -0.359375,-0.109375 0,-0.015625 0,-0.015625 0.0625,-0.09375 l 0.96875,-1.09375 1.09375,1.296875 H 3.53125 V 0 c 0.265625,-0.015625 0.875,-0.03125 1.203125,-0.03125 0.3125,0 0.765625,0.015625 1.09375,0.03125 V -0.46875 H 5.125 Z m 0,0"
               id="id-ba502367-d7f3-4621-a900-49923a3245fc" />
          </g>
        </g>
        <g
           style="fill:#000000;fill-opacity:1"
           id="id-4c98dd3a-e160-4f81-b82a-7178b1374baa">
          <g
             transform="translate(154.759,136.259)"
             id="g2894">
            <path
               style="stroke:none"
               d="M 3.515625,-1.265625 H 3.28125 c -0.015625,0.15625 -0.09375,0.5625 -0.1875,0.625 C 3.046875,-0.59375 2.515625,-0.59375 2.40625,-0.59375 H 1.125 c 0.734375,-0.640625 0.984375,-0.84375 1.390625,-1.171875 0.515625,-0.40625 1,-0.84375 1,-1.5 0,-0.84375 -0.734375,-1.359375 -1.625,-1.359375 -0.859375,0 -1.453125,0.609375 -1.453125,1.25 0,0.34375 0.296875,0.390625 0.375,0.390625 0.15625,0 0.359375,-0.125 0.359375,-0.375 0,-0.125 -0.046875,-0.375 -0.40625,-0.375 C 0.984375,-4.21875 1.453125,-4.375 1.78125,-4.375 c 0.703125,0 1.0625,0.546875 1.0625,1.109375 0,0.609375 -0.4375,1.078125 -0.65625,1.328125 L 0.515625,-0.265625 C 0.4375,-0.203125 0.4375,-0.1875 0.4375,0 h 2.875 z m 0,0"
               id="id-ddf329a6-27f4-4911-a6e4-8eb9d2fdb4f1" />
          </g>
        </g>
      </g>
    </g>
    <circle
       style="opacity:0.995891;fill:#ffff00;fill-opacity:1;stroke:#000000;stroke-width:0.450591;stroke-linecap:round"
       id="circle2433"
       cx="114.28806"
       cy="-175.14529"
       r="4.7747045"
       transform="rotate(101.37897)" />
    <circle
       style="opacity:0.995891;fill:#ffff00;fill-opacity:1;stroke:#000000;stroke-width:0.450591;stroke-linecap:round"
       id="circle2435"
       cx="94.134125"
       cy="-102.89599"
       r="4.7747045"
       transform="rotate(101.37897)" />
    <ellipse
       style="opacity:0.995891;fill:none;fill-opacity:1;stroke:#000000;stroke-width:1;stroke-linecap:round;stroke-miterlimit:4;stroke-dasharray:1,3;stroke-opacity:1;stroke-dashoffset:0"
       id="circle2437"
       cx="94.134018"
       cy="-102.8959"
       transform="matrix(-0.19729654,0.98034386,-0.98034346,-0.19729851,0,0)"
       rx="39.172104"
       ry="39.171917" />
    <ellipse
       style="opacity:0.995891;fill:none;fill-opacity:1;stroke:#000000;stroke-width:1;stroke-linecap:round;stroke-miterlimit:4;stroke-dasharray:1,2;stroke-opacity:1;stroke-dashoffset:0"
       id="ellipse2439"
       cx="114.29366"
       cy="-175.14894"
       transform="matrix(-0.19732883,0.98033736,-0.98034996,-0.19726622,0,0)"
       rx="26.925817"
       ry="26.929918" />
    <rect
       style="opacity:0.995891;fill:#ffffff;fill-opacity:1;stroke:#000000;stroke-width:0.801203;stroke-linecap:round;stroke-miterlimit:4;stroke-dasharray:none;stroke-dashoffset:0;stroke-opacity:1"
       id="rect2459"
       width="74.523544"
       height="55.176083"
       x="11.387958"
       y="188.98425"
       ry="3.5332618" />
    <g
       id="g2470"
       transform="matrix(1.6024052,0,0,1.6024052,-18.743931,-126.59867)">
      <ellipse
         style="opacity:0.995891;fill:#ffff00;fill-opacity:1;stroke:#000000;stroke-width:0.225268;stroke-linecap:round"
         id="circle2441"
         cx="196.46475"
         cy="-67.323074"
         transform="matrix(-0.19728829,0.98034552,-0.9803418,-0.19730677,0,0)"
         rx="2.3871183"
         ry="2.3870113" />
      <text
         xml:space="preserve"
         style="font-size:3.52777px;line-height:1.25;font-family:sans-serif;stroke-width:0.264583"
         x="32.774952"
         y="207.14238"
         id="text2445"><tspan
           sodipodi:role="line"
           id="tspan2443"
           x="32.774952"
           y="207.14238"
           style="stroke-width:0.264583">Nueva muestra</tspan></text>
      <circle
         style="opacity:0.995891;fill:#00ffff;fill-opacity:1;stroke:#000000;stroke-width:0.225293;stroke-linecap:round"
         id="circle2447"
         cx="213.07141"
         cy="-34.862419"
         transform="rotate(92.003514)"
         r="2.3873286" />
      <text
         xml:space="preserve"
         style="font-size:3.52777px;line-height:1.25;font-family:sans-serif;stroke-width:0.264583"
         x="32.921375"
         y="215.47342"
         id="text2451"><tspan
           sodipodi:role="line"
           id="tspan2449"
           x="32.921375"
           y="215.47342"
           style="stroke-width:0.264583">Clase 1</tspan></text>
      <circle
         style="opacity:0.995891;fill:#ff0000;fill-opacity:1;stroke:#000000;stroke-width:0.225293;stroke-linecap:round"
         id="circle2453"
         cx="221.33969"
         cy="-35.151665"
         transform="rotate(92.003514)"
         r="2.3873286" />
      <text
         xml:space="preserve"
         style="font-size:3.52777px;line-height:1.25;font-family:sans-serif;stroke-width:0.264583"
         x="32.921375"
         y="223.74675"
         id="text2457"><tspan
           sodipodi:role="line"
           id="tspan2455"
           x="32.921375"
           y="223.74675"
           style="stroke-width:0.264583">Clase 2</tspan></text>
    </g>
  </g>
</svg>
