<?xml version="1.0" encoding="UTF-8" standalone="no"?>
<svg
   xmlns:ns17="http://www.iki.fi/pav/software/textext/"
   xmlns:dc="http://purl.org/dc/elements/1.1/"
   xmlns:cc="http://creativecommons.org/ns#"
   xmlns:rdf="http://www.w3.org/1999/02/22-rdf-syntax-ns#"
   xmlns:svg="http://www.w3.org/2000/svg"
   xmlns="http://www.w3.org/2000/svg"
   xmlns:sodipodi="http://sodipodi.sourceforge.net/DTD/sodipodi-0.dtd"
   xmlns:inkscape="http://www.inkscape.org/namespaces/inkscape"
   width="629.86926"
   height="392.51407"
   version="1.1"
   id="svg197"
   sodipodi:docname="nn.svg"
   inkscape:version="1.0.1 (3bc2e813f5, 2020-09-07)">
  <metadata
     id="metadata201">
    <rdf:RDF>
      <cc:Work
         rdf:about="">
        <dc:format>image/svg+xml</dc:format>
        <dc:type
           rdf:resource="http://purl.org/dc/dcmitype/StillImage" />
        <dc:title></dc:title>
      </cc:Work>
    </rdf:RDF>
  </metadata>
  <sodipodi:namedview
     pagecolor="#ffffff"
     bordercolor="#666666"
     borderopacity="1"
     objecttolerance="10"
     gridtolerance="10"
     guidetolerance="10"
     inkscape:pageopacity="0"
     inkscape:pageshadow="2"
     inkscape:window-width="1600"
     inkscape:window-height="837"
     id="namedview199"
     showgrid="false"
     inkscape:zoom="0.90820574"
     inkscape:cx="304.24862"
     inkscape:cy="183.73769"
     inkscape:window-x="1358"
     inkscape:window-y="-8"
     inkscape:window-maximized="1"
     inkscape:current-layer="svg197"
     inkscape:document-rotation="0" />
  <g
     id="g2046"
     transform="translate(-817.33618,-165.20759)">
    <path
       class="link"
       marker-end=""
       d="M 927.33617,181.12261 1091.0336,287.22277"
       style="stroke:#505050;stroke-width:1.34899;stroke-opacity:1"
       id="path2" />
    <path
       class="link"
       marker-end=""
       d="M 927.33617,181.12261 1091.0336,319.05282"
       style="stroke:#505050;stroke-width:1.34899;stroke-opacity:1"
       id="path4" />
    <path
       class="link"
       marker-end=""
       d="M 927.33617,181.12261 1091.0336,350.88287"
       style="stroke:#505050;stroke-width:1.34899;stroke-opacity:1"
       id="path6" />
    <path
       class="link"
       marker-end=""
       d="m 927.33617,225.07839 163.69743,62.14438"
       style="stroke:#505050;stroke-width:1.34899;stroke-opacity:1"
       id="path8" />
    <path
       class="link"
       marker-end=""
       d="m 927.33617,225.07839 163.69743,93.97443"
       style="stroke:#505050;stroke-width:1.34899;stroke-opacity:1"
       id="path10" />
    <path
       class="link"
       marker-end=""
       d="M 927.33617,225.07839 1091.0336,350.88287"
       style="stroke:#505050;stroke-width:1.34899;stroke-opacity:1"
       id="path12" />
    <path
       class="link"
       marker-end=""
       d="m 927.33617,269.03417 163.69743,18.1886"
       style="stroke:#505050;stroke-width:1.34899;stroke-opacity:1"
       id="path14" />
    <path
       class="link"
       marker-end=""
       d="m 927.33617,269.03417 163.69743,50.01865"
       style="stroke:#505050;stroke-width:1.34899;stroke-opacity:1"
       id="path16" />
    <path
       class="link"
       marker-end=""
       d="m 927.33617,269.03417 163.69743,81.8487"
       style="stroke:#505050;stroke-width:1.34899;stroke-opacity:1"
       id="path18" />
    <path
       class="link"
       marker-end=""
       d="M 927.33617,312.98996 1091.0336,287.22277"
       style="stroke:#505050;stroke-width:1.34899;stroke-opacity:1"
       id="path20" />
    <path
       class="link"
       marker-end=""
       d="m 927.33617,312.98996 163.69743,6.06286"
       style="stroke:#505050;stroke-width:1.34899;stroke-opacity:1"
       id="path22" />
    <path
       class="link"
       marker-end=""
       d="m 927.33617,312.98996 163.69743,37.89291"
       style="stroke:#505050;stroke-width:1.34899;stroke-opacity:1"
       id="path24" />
    <path
       class="link"
       marker-end=""
       d="M 927.33617,356.94574 1091.0336,287.22277"
       style="stroke:#505050;stroke-width:1.34899;stroke-opacity:1"
       id="path26" />
    <path
       class="link"
       marker-end=""
       d="M 927.33617,356.94574 1091.0336,319.05282"
       style="stroke:#505050;stroke-width:1.34899;stroke-opacity:1"
       id="path28" />
    <path
       class="link"
       marker-end=""
       d="m 927.33617,356.94574 163.69743,-6.06287"
       style="stroke:#505050;stroke-width:1.34899;stroke-opacity:1"
       id="path30" />
    <path
       class="link"
       marker-end=""
       d="M 927.33617,400.90152 1091.0336,287.22277"
       style="stroke:#505050;stroke-width:1.34899;stroke-opacity:1"
       id="path32" />
    <path
       class="link"
       marker-end=""
       d="m 927.33617,400.90152 163.69743,-81.8487"
       style="stroke:#505050;stroke-width:1.34899;stroke-opacity:1"
       id="path34" />
    <path
       class="link"
       marker-end=""
       d="M 927.33617,400.90152 1091.0336,350.88287"
       style="stroke:#505050;stroke-width:1.34899;stroke-opacity:1"
       id="path36" />
    <path
       class="link"
       marker-end=""
       d="M 927.33617,444.8573 1091.0336,287.22277"
       style="stroke:#505050;stroke-width:1.34899;stroke-opacity:1"
       id="path38" />
    <path
       class="link"
       marker-end=""
       d="M 927.33617,444.8573 1091.0336,319.05282"
       style="stroke:#505050;stroke-width:1.34899;stroke-opacity:1"
       id="path40" />
    <path
       class="link"
       marker-end=""
       d="M 927.33617,444.8573 1091.0336,350.88287"
       style="stroke:#505050;stroke-width:1.34899;stroke-opacity:1"
       id="path42" />
    <path
       class="link"
       marker-end=""
       d="M 927.33617,488.81308 1091.0336,287.22277"
       style="stroke:#505050;stroke-width:1.34899;stroke-opacity:1"
       id="path44" />
    <path
       class="link"
       marker-end=""
       d="M 927.33617,488.81308 1091.0336,319.05282"
       style="stroke:#505050;stroke-width:1.34899;stroke-opacity:1"
       id="path46" />
    <path
       class="link"
       marker-end=""
       d="M 927.33617,488.81308 1091.0336,350.88287"
       style="stroke:#505050;stroke-width:1.34899;stroke-opacity:1"
       id="path48" />
    <path
       class="link"
       marker-end=""
       d="M 927.33617,181.12261 1091.0336,382.71292"
       style="stroke:#505050;stroke-width:1.34899;stroke-opacity:1"
       id="path50" />
    <path
       class="link"
       marker-end=""
       d="M 927.33617,181.12261 1091.0336,414.54297"
       style="stroke:#505050;stroke-width:1.34899;stroke-opacity:1"
       id="path52" />
    <path
       class="link"
       marker-end=""
       d="M 927.33617,225.07839 1091.0336,382.71292"
       style="stroke:#505050;stroke-width:1.34899;stroke-opacity:1"
       id="path54" />
    <path
       class="link"
       marker-end=""
       d="M 927.33617,225.07839 1091.0336,414.54297"
       style="stroke:#505050;stroke-width:1.34899;stroke-opacity:1"
       id="path56" />
    <path
       class="link"
       marker-end=""
       d="M 927.33617,269.03417 1091.0336,382.71292"
       style="stroke:#505050;stroke-width:1.34899;stroke-opacity:1"
       id="path58" />
    <path
       class="link"
       marker-end=""
       d="m 927.33617,269.03417 163.69743,145.5088"
       style="stroke:#505050;stroke-width:1.34899;stroke-opacity:1"
       id="path60" />
    <path
       class="link"
       marker-end=""
       d="m 927.33617,312.98996 163.69743,69.72296"
       style="stroke:#505050;stroke-width:1.34899;stroke-opacity:1"
       id="path62" />
    <path
       class="link"
       marker-end=""
       d="M 927.33617,312.98996 1091.0336,414.54297"
       style="stroke:#505050;stroke-width:1.34899;stroke-opacity:1"
       id="path64" />
    <path
       class="link"
       marker-end=""
       d="m 927.33617,356.94574 163.69743,25.76718"
       style="stroke:#505050;stroke-width:1.34899;stroke-opacity:1"
       id="path66" />
    <path
       class="link"
       marker-end=""
       d="m 927.33617,356.94574 163.69743,57.59723"
       style="stroke:#505050;stroke-width:1.34899;stroke-opacity:1"
       id="path68" />
    <path
       class="link"
       marker-end=""
       d="m 927.33617,400.90152 163.69743,-18.1886"
       style="stroke:#505050;stroke-width:1.34899;stroke-opacity:1"
       id="path70" />
    <path
       class="link"
       marker-end=""
       d="m 927.33617,400.90152 163.69743,13.64145"
       style="stroke:#505050;stroke-width:1.34899;stroke-opacity:1"
       id="path72" />
    <path
       class="link"
       marker-end=""
       d="M 927.33617,444.8573 1091.0336,382.71292"
       style="stroke:#505050;stroke-width:1.34899;stroke-opacity:1"
       id="path74" />
    <path
       class="link"
       marker-end=""
       d="M 927.33617,444.8573 1091.0336,414.54297"
       style="stroke:#505050;stroke-width:1.34899;stroke-opacity:1"
       id="path76" />
    <path
       class="link"
       marker-end=""
       d="M 927.33617,488.81308 1091.0336,382.71292"
       style="stroke:#505050;stroke-width:1.34899;stroke-opacity:1"
       id="path78" />
    <path
       class="link"
       marker-end=""
       d="M 927.33617,488.81308 1091.0336,414.54297"
       style="stroke:#505050;stroke-width:1.34899;stroke-opacity:1"
       id="path80" />
    <path
       class="link"
       marker-end=""
       d="m 1091.0336,255.39273 163.6974,64.41795"
       style="stroke:#505050;stroke-width:1.34899;stroke-opacity:1"
       id="path82" />
    <path
       class="link"
       marker-end=""
       d="m 1091.0336,255.39273 163.6974,94.73228"
       style="stroke:#505050;stroke-width:1.34899;stroke-opacity:1"
       id="path84" />
    <path
       class="link"
       marker-end=""
       d="M 1091.0336,255.39273 1254.731,380.43935"
       style="stroke:#505050;stroke-width:1.34899;stroke-opacity:1"
       id="path86" />
    <path
       class="link"
       marker-end=""
       d="m 1091.0336,287.22277 163.6974,32.58791"
       style="stroke:#505050;stroke-width:1.34899;stroke-opacity:1"
       id="path88" />
    <path
       class="link"
       marker-end=""
       d="m 1091.0336,287.22277 163.6974,62.90224"
       style="stroke:#505050;stroke-width:1.34899;stroke-opacity:1"
       id="path90" />
    <path
       class="link"
       marker-end=""
       d="m 1091.0336,287.22277 163.6974,93.21658"
       style="stroke:#505050;stroke-width:1.34899;stroke-opacity:1"
       id="path92" />
    <path
       class="link"
       marker-end=""
       d="m 1091.0336,319.05282 163.6974,0.75786"
       style="stroke:#505050;stroke-width:1.34899;stroke-opacity:1"
       id="path94" />
    <path
       class="link"
       marker-end=""
       d="m 1091.0336,319.05282 163.6974,31.07219"
       style="stroke:#505050;stroke-width:1.34899;stroke-opacity:1"
       id="path96" />
    <path
       class="link"
       marker-end=""
       d="m 1091.0336,319.05282 163.6974,61.38653"
       style="stroke:#505050;stroke-width:1.34899;stroke-opacity:1"
       id="path98" />
    <path
       class="link"
       marker-end=""
       d="M 1091.0336,350.88287 1254.731,319.81068"
       style="stroke:#505050;stroke-width:1.34899;stroke-opacity:1"
       id="path100" />
    <path
       class="link"
       marker-end=""
       d="m 1091.0336,350.88287 163.6974,-0.75786"
       style="stroke:#505050;stroke-width:1.34899;stroke-opacity:1"
       id="path102" />
    <path
       class="link"
       marker-end=""
       d="m 1091.0336,350.88287 163.6974,29.55648"
       style="stroke:#505050;stroke-width:1.34899;stroke-opacity:1"
       id="path104" />
    <path
       class="link"
       marker-end=""
       d="M 1091.0336,382.71292 1254.731,319.81068"
       style="stroke:#505050;stroke-width:1.34899;stroke-opacity:1"
       id="path106" />
    <path
       class="link"
       marker-end=""
       d="M 1091.0336,382.71292 1254.731,350.12501"
       style="stroke:#505050;stroke-width:1.34899;stroke-opacity:1"
       id="path108" />
    <path
       class="link"
       marker-end=""
       d="m 1091.0336,382.71292 163.6974,-2.27357"
       style="stroke:#505050;stroke-width:1.34899;stroke-opacity:1"
       id="path110" />
    <path
       class="link"
       marker-end=""
       d="M 1091.0336,414.54297 1254.731,319.81068"
       style="stroke:#505050;stroke-width:1.34899;stroke-opacity:1"
       id="path112" />
    <path
       class="link"
       marker-end=""
       d="M 1091.0336,414.54297 1254.731,350.12501"
       style="stroke:#505050;stroke-width:1.34899;stroke-opacity:1"
       id="path114" />
    <path
       class="link"
       marker-end=""
       d="M 1091.0336,414.54297 1254.731,380.43935"
       style="stroke:#505050;stroke-width:1.34899;stroke-opacity:1"
       id="path116" />
    <path
       class="link"
       marker-end=""
       d="m 1254.7205,289.31463 82.1608,15.21774"
       style="stroke:#505050;stroke-width:0.957605;stroke-opacity:1"
       id="path118" />
    <path
       class="link"
       marker-end=""
       d="m 1254.7205,289.31463 82.1608,76.0887"
       style="stroke:#505050;stroke-width:0.957605;stroke-opacity:1"
       id="path120" />
    <path
       class="link"
       marker-end=""
       d="m 1254.7205,319.75011 82.1608,-15.21774"
       style="stroke:#505050;stroke-width:0.957605;stroke-opacity:1"
       id="path122" />
    <path
       class="link"
       marker-end=""
       d="m 1254.7205,319.75011 82.1608,45.65322"
       style="stroke:#505050;stroke-width:0.957605;stroke-opacity:1"
       id="path124" />
    <path
       class="link"
       marker-end=""
       d="m 1254.7205,350.18558 82.1608,-45.65321"
       style="stroke:#505050;stroke-width:0.957605;stroke-opacity:1"
       id="path126" />
    <path
       class="link"
       marker-end=""
       d="m 1254.7205,350.18558 82.1608,15.21775"
       style="stroke:#505050;stroke-width:0.957605;stroke-opacity:1"
       id="path128" />
    <path
       class="link"
       marker-end=""
       d="m 1254.7205,380.62107 82.1608,-76.0887"
       style="stroke:#505050;stroke-width:0.957605;stroke-opacity:1"
       id="path130" />
    <path
       class="link"
       marker-end=""
       d="m 1254.7205,380.62107 82.1608,-15.21774"
       style="stroke:#505050;stroke-width:0.957605;stroke-opacity:1"
       id="path132" />
    <path
       class="link"
       marker-end=""
       d="m 927.33617,181.12261 163.69743,74.27012"
       style="stroke:#505050;stroke-width:1.34899;stroke-opacity:1"
       id="path134" />
    <path
       class="link"
       marker-end=""
       d="m 927.33617,225.07839 163.69743,30.31434"
       style="stroke:#505050;stroke-width:1.34899;stroke-opacity:1"
       id="path136" />
    <path
       class="link"
       marker-end=""
       d="M 927.33617,269.03417 1091.0336,255.39273"
       style="stroke:#505050;stroke-width:1.34899;stroke-opacity:1"
       id="path138" />
    <path
       class="link"
       marker-end=""
       d="M 927.33617,312.98996 1091.0336,255.39273"
       style="stroke:#505050;stroke-width:1.34899;stroke-opacity:1"
       id="path140" />
    <path
       class="link"
       marker-end=""
       d="M 927.33617,356.94574 1091.0336,255.39273"
       style="stroke:#505050;stroke-width:1.34899;stroke-opacity:1"
       id="path142" />
    <path
       class="link"
       marker-end=""
       d="M 927.33617,400.90152 1091.0336,255.39273"
       style="stroke:#505050;stroke-width:1.34899;stroke-opacity:1"
       id="path144" />
    <path
       class="link"
       marker-end=""
       d="M 927.33617,444.8573 1091.0336,255.39273"
       style="stroke:#505050;stroke-width:1.34899;stroke-opacity:1"
       id="path146" />
    <path
       class="link"
       marker-end=""
       d="M 927.33617,488.81308 1091.0336,255.39273"
       style="stroke:#505050;stroke-width:1.34899;stroke-opacity:1"
       id="path148" />
    <path
       class="link"
       marker-end=""
       d="m 1091.0336,255.39273 163.6974,34.10362"
       style="stroke:#505050;stroke-width:1.34899;stroke-opacity:1"
       id="path150" />
    <path
       class="link"
       marker-end=""
       d="m 1091.0336,287.22277 163.6974,2.27358"
       style="stroke:#505050;stroke-width:1.34899;stroke-opacity:1"
       id="path152" />
    <path
       class="link"
       marker-end=""
       d="M 1091.0336,319.05282 1254.731,289.49635"
       style="stroke:#505050;stroke-width:1.34899;stroke-opacity:1"
       id="path154" />
    <path
       class="link"
       marker-end=""
       d="M 1091.0336,350.88287 1254.731,289.49635"
       style="stroke:#505050;stroke-width:1.34899;stroke-opacity:1"
       id="path156" />
    <path
       class="link"
       marker-end=""
       d="M 1091.0336,382.71292 1254.731,289.49635"
       style="stroke:#505050;stroke-width:1.34899;stroke-opacity:1"
       id="path158" />
    <path
       class="link"
       marker-end=""
       d="M 1091.0336,414.54297 1254.731,289.49635"
       style="stroke:#505050;stroke-width:1.34899;stroke-opacity:1"
       id="path160" />
    <circle
       r="15.157166"
       class="node"
       id="0_0"
       cx="927.33618"
       cy="181.12262"
       style="fill:#ffffff;stroke:#333333;stroke-width:1.51572" />
    <circle
       r="15.157166"
       class="node"
       id="0_1"
       cx="927.33618"
       cy="225.0784"
       style="fill:#ffffff;stroke:#333333;stroke-width:1.51572" />
    <circle
       r="15.157166"
       class="node"
       id="0_2"
       cx="927.33618"
       cy="269.03418"
       style="fill:#ffffff;stroke:#333333;stroke-width:1.51572" />
    <circle
       r="15.157166"
       class="node"
       id="0_3"
       cx="927.33618"
       cy="312.98996"
       style="fill:#ffffff;stroke:#333333;stroke-width:1.51572" />
    <circle
       r="15.157166"
       class="node"
       id="0_4"
       cx="927.33618"
       cy="356.94574"
       style="fill:#ffffff;stroke:#333333;stroke-width:1.51572" />
    <circle
       r="15.157166"
       class="node"
       id="0_5"
       cx="927.33618"
       cy="400.90152"
       style="fill:#ffffff;stroke:#333333;stroke-width:1.51572" />
    <circle
       r="15.157166"
       class="node"
       id="0_6"
       cx="927.33618"
       cy="444.8573"
       style="fill:#ffffff;stroke:#333333;stroke-width:1.51572" />
    <circle
       r="15.157166"
       class="node"
       id="0_7"
       cx="927.33618"
       cy="488.81308"
       style="fill:#ffffff;stroke:#333333;stroke-width:1.51572" />
    <circle
       r="15.157166"
       class="node"
       id="1_0"
       cx="1091.0336"
       cy="255.39273"
       style="fill:#ffffff;stroke:#333333;stroke-width:1.51572" />
    <circle
       r="15.157166"
       class="node"
       id="1_1"
       cx="1091.0336"
       cy="287.22278"
       style="fill:#ffffff;stroke:#333333;stroke-width:1.51572" />
    <circle
       r="15.157166"
       class="node"
       id="1_2"
       cx="1091.0336"
       cy="319.05283"
       style="fill:#ffffff;stroke:#333333;stroke-width:1.51572" />
    <circle
       r="15.157166"
       class="node"
       id="1_3"
       cx="1091.0336"
       cy="350.88287"
       style="fill:#ffffff;stroke:#333333;stroke-width:1.51572" />
    <circle
       r="15.157166"
       class="node"
       id="1_4"
       cx="1091.0336"
       cy="382.71292"
       style="fill:#ffffff;stroke:#333333;stroke-width:1.51572" />
    <circle
       r="15.157166"
       class="node"
       id="1_5"
       cx="1091.0336"
       cy="414.54297"
       style="fill:#ffffff;stroke:#333333;stroke-width:1.51572" />
    <circle
       r="15.157166"
       class="node"
       id="2_0"
       cx="1254.731"
       cy="289.49634"
       style="fill:#ffffff;stroke:#333333;stroke-width:1.51572" />
    <circle
       r="15.157166"
       class="node"
       id="2_1"
       cx="1254.731"
       cy="319.81067"
       style="fill:#ffffff;stroke:#333333;stroke-width:1.51572" />
    <circle
       r="15.157166"
       class="node"
       id="2_2"
       cx="1254.731"
       cy="350.125"
       style="fill:#ffffff;stroke:#333333;stroke-width:1.51572" />
    <circle
       r="15.157166"
       class="node"
       id="2_3"
       cx="1254.731"
       cy="380.43933"
       style="fill:#ffffff;stroke:#333333;stroke-width:1.51572" />
    <ellipse
       class="node"
       id="3_0"
       cx="1337.2054"
       cy="303.76096"
       style="fill:#ffffff;stroke:#333333;stroke-width:1.51571"
       ry="15.157143"
       rx="15.157142" />
    <ellipse
       class="node"
       id="3_1"
       cx="1337.2054"
       cy="364.63193"
       style="fill:#ffffff;stroke:#333333;stroke-width:1.51571"
       ry="15.157143"
       rx="15.157142" />
  </g>
  <defs
     id="defs195">
    <marker
       id="arrow"
       viewBox="0 -5 10 10"
       markerWidth="7"
       markerHeight="7"
       orient="auto"
       refX="40">
      <path
         d="M 0,-5 10,0 0,5"
         style="fill:none;stroke:#505050"
         id="path192" />
    </marker>
  </defs>
  <g
     transform="matrix(2.2327517,0,0,2.4686014,0.00111638,366.84678)"
     ns17:version="1.3.0"
     ns17:texconverter="pdflatex"
     ns17:pdfconverter="inkscape"
     ns17:text="Capa de entrada $\\in \\mathbb{R}^{d_1}$"
     ns17:preamble="C:\Users\NARUTO\AppData\Roaming\inkscape\extensions\textext\default_packages.tex"
     ns17:scale="5.0"
     ns17:alignment="middle center"
     ns17:jacobian_sqrt="6.66665"
     id="g1238">
    <defs
       id="id-c349fba3-9001-44a4-a4b5-b02eb3ae8fab">
      <g
         id="id-d38da4f0-a603-438d-b099-d3b420cece1e">
        <symbol
           overflow="visible"
           id="id-1e0d946c-3c70-4949-9beb-a492c01b4105">
          <path
             style="stroke:none;stroke-width:0"
             d=""
             id="id-248cfcc6-3328-4d94-8764-3955d4ff58e5" />
        </symbol>
        <symbol
           overflow="visible"
           id="id-b295d46a-8671-4a42-a1aa-6e74cab31e17">
          <path
             style="stroke:none;stroke-width:0"
             d="m 0.5625,-3.40625 c 0,2.0625 1.609375,3.625 3.46875,3.625 1.625,0 2.59375,-1.390625 2.59375,-2.546875 C 6.625,-2.421875 6.625,-2.5 6.5,-2.5 6.390625,-2.5 6.390625,-2.4375 6.375,-2.328125 6.296875,-0.90625 5.234375,-0.09375 4.140625,-0.09375 c -0.609375,0 -2.5625,-0.328125 -2.5625,-3.3125 0,-2.96875 1.953125,-3.3125 2.5625,-3.3125 1.078125,0 1.96875,0.90625 2.171875,2.359375 C 6.328125,-4.21875 6.328125,-4.1875 6.46875,-4.1875 6.625,-4.1875 6.625,-4.21875 6.625,-4.421875 V -6.78125 c 0,-0.171875 0,-0.25 -0.109375,-0.25 -0.03125,0 -0.078125,0 -0.15625,0.125 l -0.5,0.734375 C 5.5,-6.53125 4.984375,-7.03125 4.03125,-7.03125 c -1.875,0 -3.46875,1.59375 -3.46875,3.625 z m 0,0"
             id="id-f5b07eb7-bc96-4129-856a-eb710d485f7a" />
        </symbol>
        <symbol
           overflow="visible"
           id="id-f4562c4e-71c2-43c4-88c3-ec38d0795856">
          <path
             style="stroke:none;stroke-width:0"
             d="m 3.3125,-0.75 c 0.046875,0.390625 0.3125,0.8125 0.78125,0.8125 0.21875,0 0.828125,-0.140625 0.828125,-0.953125 v -0.5625 h -0.25 v 0.5625 c 0,0.578125 -0.25,0.640625 -0.359375,0.640625 -0.328125,0 -0.375,-0.453125 -0.375,-0.5 v -1.984375 c 0,-0.421875 0,-0.8125 -0.359375,-1.1875 C 3.1875,-4.3125 2.6875,-4.46875 2.21875,-4.46875 c -0.828125,0 -1.515625,0.46875 -1.515625,1.125 0,0.296875 0.203125,0.46875 0.46875,0.46875 0.28125,0 0.453125,-0.203125 0.453125,-0.453125 0,-0.125 -0.046875,-0.453125 -0.515625,-0.453125 C 1.390625,-4.140625 1.875,-4.25 2.1875,-4.25 c 0.5,0 1.0625,0.390625 1.0625,1.28125 v 0.359375 c -0.515625,0.03125 -1.203125,0.0625 -1.828125,0.359375 -0.75,0.34375 -1,0.859375 -1,1.296875 0,0.8125 0.96875,1.0625 1.59375,1.0625 0.65625,0 1.109375,-0.40625 1.296875,-0.859375 z M 3.25,-2.390625 v 1 c 0,0.9375 -0.71875,1.28125 -1.171875,1.28125 -0.484375,0 -0.890625,-0.34375 -0.890625,-0.84375 0,-0.546875 0.421875,-1.375 2.0625,-1.4375 z m 0,0"
             id="id-5a733b5f-73c9-49e7-8ff5-3427b9371b4e" />
        </symbol>
        <symbol
           overflow="visible"
           id="id-9d35b37f-adbe-4db6-9929-dd83b0e2ad04">
          <path
             style="stroke:none;stroke-width:0"
             d="m 1.71875,-3.75 v -0.65625 l -1.4375,0.109375 v 0.3125 c 0.703125,0 0.78125,0.0625 0.78125,0.5 v 4.65625 C 1.0625,1.625 0.953125,1.625 0.28125,1.625 V 1.9375 C 0.625,1.921875 1.140625,1.90625 1.390625,1.90625 c 0.28125,0 0.78125,0.015625 1.125,0.03125 V 1.625 C 1.859375,1.625 1.75,1.625 1.75,1.171875 V -0.59375 c 0.046875,0.171875 0.46875,0.703125 1.21875,0.703125 1.1875,0 2.21875,-0.984375 2.21875,-2.265625 0,-1.265625 -0.953125,-2.25 -2.078125,-2.25 -0.78125,0 -1.203125,0.4375 -1.390625,0.65625 z M 1.75,-1.140625 v -2.21875 C 2.03125,-3.875 2.515625,-4.15625 3.03125,-4.15625 c 0.734375,0 1.328125,0.875 1.328125,2 0,1.203125 -0.6875,2.046875 -1.421875,2.046875 -0.40625,0 -0.78125,-0.203125 -1.046875,-0.609375 C 1.75,-0.921875 1.75,-0.9375 1.75,-1.140625 Z m 0,0"
             id="id-c028425d-2317-4f3e-bda9-d96bad45f1d3" />
        </symbol>
        <symbol
           overflow="visible"
           id="id-4f787beb-048a-4c18-9a90-6b88fb91de2e">
          <path
             style="stroke:none;stroke-width:0"
             d="m 3.78125,-0.546875 v 0.65625 L 5.25,0 v -0.3125 c -0.6875,0 -0.78125,-0.0625 -0.78125,-0.5625 V -6.921875 L 3.046875,-6.8125 V -6.5 c 0.6875,0 0.765625,0.0625 0.765625,0.5625 v 2.15625 c -0.28125,-0.359375 -0.71875,-0.625 -1.25,-0.625 -1.171875,0 -2.21875,0.984375 -2.21875,2.265625 0,1.265625 0.96875,2.25 2.109375,2.25 0.640625,0 1.078125,-0.34375 1.328125,-0.65625 z m 0,-2.671875 v 2.046875 c 0,0.171875 0,0.1875 -0.109375,0.359375 C 3.375,-0.328125 2.9375,-0.109375 2.5,-0.109375 2.046875,-0.109375 1.6875,-0.375 1.453125,-0.75 1.203125,-1.15625 1.171875,-1.71875 1.171875,-2.140625 1.171875,-2.5 1.1875,-3.09375 1.46875,-3.546875 1.6875,-3.859375 2.0625,-4.1875 2.609375,-4.1875 c 0.34375,0 0.765625,0.15625 1.0625,0.59375 0.109375,0.171875 0.109375,0.1875 0.109375,0.375 z m 0,0"
             id="id-d67f1f08-3714-444b-afdb-1c77a0fe3e0f" />
        </symbol>
        <symbol
           overflow="visible"
           id="id-b2e7a143-afea-49b8-975f-29da026babfd">
          <path
             style="stroke:none;stroke-width:0"
             d="M 1.109375,-2.515625 C 1.171875,-4 2.015625,-4.25 2.359375,-4.25 c 1.015625,0 1.125,1.34375 1.125,1.734375 z m 0,0.21875 h 2.78125 c 0.21875,0 0.25,0 0.25,-0.21875 0,-0.984375 -0.546875,-1.953125 -1.78125,-1.953125 -1.15625,0 -2.078125,1.03125 -2.078125,2.28125 0,1.328125 1.046875,2.296875 2.1875,2.296875 C 3.6875,0.109375 4.140625,-1 4.140625,-1.1875 4.140625,-1.28125 4.0625,-1.3125 4,-1.3125 c -0.078125,0 -0.109375,0.0625 -0.125,0.140625 -0.34375,1.03125 -1.25,1.03125 -1.34375,1.03125 -0.5,0 -0.890625,-0.296875 -1.125,-0.671875 -0.296875,-0.46875 -0.296875,-1.125 -0.296875,-1.484375 z m 0,0"
             id="id-d2eeb830-39cd-4004-920e-a4e29deeab35" />
        </symbol>
        <symbol
           overflow="visible"
           id="id-b360f4a3-30df-4399-9198-695a9a47a6ef">
          <path
             style="stroke:none;stroke-width:0"
             d="M 1.09375,-3.421875 V -0.75 c 0,0.4375 -0.109375,0.4375 -0.78125,0.4375 V 0 c 0.359375,-0.015625 0.859375,-0.03125 1.140625,-0.03125 0.25,0 0.765625,0.015625 1.109375,0.03125 v -0.3125 c -0.671875,0 -0.78125,0 -0.78125,-0.4375 V -2.59375 C 1.78125,-3.625 2.5,-4.1875 3.125,-4.1875 c 0.640625,0 0.75,0.53125 0.75,1.109375 V -0.75 c 0,0.4375 -0.109375,0.4375 -0.78125,0.4375 V 0 c 0.34375,-0.015625 0.859375,-0.03125 1.125,-0.03125 0.25,0 0.78125,0.015625 1.109375,0.03125 v -0.3125 c -0.515625,0 -0.765625,0 -0.765625,-0.296875 v -1.90625 c 0,-0.859375 0,-1.15625 -0.3125,-1.515625 -0.140625,-0.171875 -0.46875,-0.375 -1.046875,-0.375 C 2.46875,-4.40625 2,-3.984375 1.71875,-3.359375 V -4.40625 L 0.3125,-4.296875 v 0.3125 c 0.703125,0 0.78125,0.0625 0.78125,0.5625 z m 0,0"
             id="id-e28b5eb2-c31e-480c-80e9-fb2befeb9ce0" />
        </symbol>
        <symbol
           overflow="visible"
           id="id-52a2c1c0-b10b-40c3-8411-7e9bbc5d6b52">
          <path
             style="stroke:none;stroke-width:0"
             d="m 1.71875,-3.984375 h 1.4375 v -0.3125 H 1.71875 V -6.125 h -0.25 c 0,0.8125 -0.296875,1.875 -1.28125,1.921875 v 0.21875 h 0.84375 v 2.75 c 0,1.21875 0.9375,1.34375 1.296875,1.34375 0.703125,0 0.984375,-0.703125 0.984375,-1.34375 v -0.5625 h -0.25 V -1.25 c 0,0.734375 -0.296875,1.109375 -0.671875,1.109375 -0.671875,0 -0.671875,-0.90625 -0.671875,-1.078125 z m 0,0"
             id="id-a8b9b300-36bc-40e8-8f95-8605eef4257a" />
        </symbol>
        <symbol
           overflow="visible"
           id="id-44a8ab9f-1a78-484f-ab78-df0fb12ee99a">
          <path
             style="stroke:none;stroke-width:0"
             d="M 1.671875,-3.3125 V -4.40625 L 0.28125,-4.296875 v 0.3125 c 0.703125,0 0.78125,0.0625 0.78125,0.5625 V -0.75 c 0,0.4375 -0.109375,0.4375 -0.78125,0.4375 V 0 c 0.390625,-0.015625 0.859375,-0.03125 1.140625,-0.03125 0.390625,0 0.859375,0 1.265625,0.03125 V -0.3125 H 2.46875 c -0.734375,0 -0.75,-0.109375 -0.75,-0.46875 V -2.3125 c 0,-0.984375 0.421875,-1.875 1.171875,-1.875 0.0625,0 0.09375,0 0.109375,0.015625 -0.03125,0 -0.234375,0.125 -0.234375,0.390625 0,0.265625 0.21875,0.421875 0.4375,0.421875 0.171875,0 0.421875,-0.125 0.421875,-0.4375 0,-0.3125 -0.3125,-0.609375 -0.734375,-0.609375 -0.734375,0 -1.09375,0.671875 -1.21875,1.09375 z m 0,0"
             id="id-d78a7059-f721-4054-bcd1-e0e20ebe2659" />
        </symbol>
        <symbol
           overflow="visible"
           id="id-ddbfc4cb-9c41-407e-a114-521eabef4f69">
          <path
             style="stroke:none;stroke-width:0"
             d=""
             id="id-e5acbfe7-a294-4d4b-b9e0-4f583233eff6" />
        </symbol>
        <symbol
           overflow="visible"
           id="id-95ce95cf-6343-489a-ad8d-79254bf0870a">
          <path
             style="stroke:none;stroke-width:0"
             d="m 5.46875,-2.296875 c 0.15625,0 0.34375,0 0.34375,-0.203125 0,-0.1875 -0.1875,-0.1875 -0.34375,-0.1875 H 1.234375 C 1.359375,-4.03125 2.5,-4.984375 3.90625,-4.984375 h 1.5625 c 0.15625,0 0.34375,0 0.34375,-0.203125 0,-0.203125 -0.1875,-0.203125 -0.34375,-0.203125 H 3.890625 c -1.703125,0 -3.0625,1.296875 -3.0625,2.890625 0,1.609375 1.359375,2.90625 3.0625,2.90625 H 5.46875 c 0.15625,0 0.34375,0 0.34375,-0.203125 C 5.8125,0 5.625,0 5.46875,0 H 3.90625 C 2.5,0 1.359375,-0.953125 1.234375,-2.296875 Z m 0,0"
             id="id-b0d78276-e0d6-4e17-924f-3ab5aa6fcc6f" />
        </symbol>
        <symbol
           overflow="visible"
           id="id-1c9b1e99-53b9-42ec-8f71-a81507040f77">
          <path
             style="stroke:none;stroke-width:0"
             d=""
             id="id-8072fbcc-b27d-4fcf-bf68-edcfcd7bab31" />
        </symbol>
        <symbol
           overflow="visible"
           id="id-d83d87a5-51f5-4948-afa3-c1441e3ae7c9">
          <path
             style="stroke:none;stroke-width:0"
             d="M 2.671875,-3.125 H 3.03125 l 1.5,2.3125 C 4.625,-0.65625 4.859375,-0.265625 4.96875,-0.125 5.046875,0 5.078125,0 5.296875,0 h 1.375 c 0.1875,0 0.34375,0 0.34375,-0.171875 0,-0.09375 -0.0625,-0.15625 -0.15625,-0.171875 C 6.484375,-0.421875 6,-1.09375 5.765625,-1.40625 5.6875,-1.5 5.1875,-2.15625 4.53125,-3.234375 5.40625,-3.40625 6.265625,-3.78125 6.265625,-4.96875 6.265625,-6.34375 4.8125,-6.828125 3.625,-6.828125 H 0.5 c -0.1875,0 -0.34375,0 -0.34375,0.171875 0,0.171875 0.1875,0.171875 0.265625,0.171875 0.578125,0 0.625,0.078125 0.625,0.578125 v 4.984375 c 0,0.5 -0.046875,0.578125 -0.625,0.578125 -0.078125,0 -0.265625,0 -0.265625,0.171875 C 0.15625,0 0.3125,0 0.5,0 H 3.234375 C 3.40625,0 3.5625,0 3.5625,-0.171875 c 0,-0.171875 -0.171875,-0.171875 -0.28125,-0.171875 -0.5625,0 -0.609375,-0.078125 -0.609375,-0.578125 z m 1.921875,-0.5 c 0.28125,-0.359375 0.3125,-0.890625 0.3125,-1.328125 0,-0.484375 -0.0625,-1.015625 -0.375,-1.421875 0.40625,0.09375 1.390625,0.40625 1.390625,1.40625 0,0.65625 -0.296875,1.15625 -1.328125,1.34375 z M 2.671875,-5.9375 c 0,-0.21875 0,-0.546875 0.625,-0.546875 0.84375,0 1.265625,0.359375 1.265625,1.53125 0,1.28125 -0.3125,1.46875 -1.890625,1.46875 z M 1.3125,-0.34375 C 1.390625,-0.53125 1.390625,-0.8125 1.390625,-0.890625 V -5.9375 c 0,-0.09375 0,-0.359375 -0.078125,-0.546875 h 1.140625 c -0.125,0.171875 -0.125,0.359375 -0.125,0.515625 v 5.078125 c 0,0.09375 0,0.359375 0.078125,0.546875 z M 3.4375,-3.125 c 0.078125,-0.015625 0.109375,-0.03125 0.1875,-0.03125 0.15625,0 0.375,-0.015625 0.515625,-0.03125 0.15625,0.234375 1.234375,2.015625 2.0625,2.84375 h -0.96875 z m 0,0"
             id="id-c94e1852-f67b-410e-b6b6-32f62b100722" />
        </symbol>
        <symbol
           overflow="visible"
           id="id-7b211c3e-fcd7-4f66-a122-a45967ce62f5">
          <path
             style="stroke:none;stroke-width:0"
             d=""
             id="id-08ee4c32-4a72-4c0a-9cd0-05a75e804262" />
        </symbol>
        <symbol
           overflow="visible"
           id="id-19d1f6e4-ccfa-4af6-9512-32e48ccbe0a1">
          <path
             style="stroke:none;stroke-width:0"
             d="M 3.984375,-4.625 C 3.984375,-4.640625 4,-4.734375 4,-4.734375 4,-4.78125 3.984375,-4.84375 3.890625,-4.84375 3.75,-4.84375 3.171875,-4.78125 3,-4.765625 c -0.046875,0 -0.15625,0.015625 -0.15625,0.15625 0,0.09375 0.109375,0.09375 0.1875,0.09375 0.328125,0 0.328125,0.0625 0.328125,0.109375 0,0.046875 0,0.09375 -0.015625,0.15625 L 2.9375,-2.65625 c -0.140625,-0.234375 -0.375,-0.421875 -0.71875,-0.421875 -0.890625,0 -1.796875,0.984375 -1.796875,1.984375 0,0.6875 0.453125,1.15625 1.0625,1.15625 0.375,0 0.703125,-0.203125 0.984375,-0.484375 C 2.59375,0 3,0.0625 3.1875,0.0625 c 0.25,0 0.421875,-0.140625 0.546875,-0.359375 0.15625,-0.28125 0.25,-0.671875 0.25,-0.703125 0,-0.09375 -0.09375,-0.09375 -0.109375,-0.09375 -0.109375,0 -0.109375,0.03125 -0.15625,0.21875 C 3.625,-0.53125 3.5,-0.125 3.203125,-0.125 3.03125,-0.125 2.96875,-0.28125 2.96875,-0.46875 c 0,-0.125 0.015625,-0.1875 0.046875,-0.28125 z M 2.5,-0.875 C 2.453125,-0.671875 2.296875,-0.53125 2.140625,-0.40625 2.078125,-0.34375 1.796875,-0.125 1.5,-0.125 c -0.265625,0 -0.515625,-0.1875 -0.515625,-0.671875 0,-0.375 0.203125,-1.140625 0.375,-1.421875 0.3125,-0.5625 0.671875,-0.65625 0.859375,-0.65625 0.484375,0 0.625,0.53125 0.625,0.609375 0,0.015625 -0.015625,0.078125 -0.015625,0.09375 z m 0,0"
             id="id-c5b668fe-799c-4074-b77e-dbccd927f71b" />
        </symbol>
        <symbol
           overflow="visible"
           id="id-00c0a547-e61c-40ab-824f-a03774241020">
          <path
             style="stroke:none;stroke-width:0"
             d=""
             id="id-69f35f2f-053a-4430-bec8-17e4538bef58" />
        </symbol>
        <symbol
           overflow="visible"
           id="id-1afb8cc3-a21e-4cbc-9a4d-13dd674c3c43">
          <path
             style="stroke:none;stroke-width:0"
             d="M 1.984375,-3.171875 C 1.984375,-3.3125 1.96875,-3.3125 1.796875,-3.3125 1.453125,-3 0.890625,-3 0.796875,-3 H 0.71875 v 0.21875 h 0.078125 c 0.109375,0 0.4375,-0.015625 0.734375,-0.140625 v 2.5 c 0,0.140625 0,0.203125 -0.53125,0.203125 H 0.75 V 0 c 0.265625,-0.015625 0.71875,-0.015625 1,-0.015625 0.296875,0 0.734375,0 1.015625,0.015625 v -0.21875 h -0.25 c -0.53125,0 -0.53125,-0.0625 -0.53125,-0.203125 z m 0,0"
             id="id-8d1974ed-840c-44ff-88a2-124e5c425233" />
        </symbol>
      </g>
    </defs>
    <g
       id="id-9713d56f-02f0-4b01-a707-3311ed113d65"
       transform="translate(-149.275,-126.305)">
      <g
         style="fill:#000000;fill-opacity:1"
         id="id-4fcced6a-8406-46e2-90ad-329df980eef8">
        <g
           transform="translate(148.712,134.765)"
           id="g1179">
          <path
             style="stroke:none;stroke-width:0"
             d="m 0.5625,-3.40625 c 0,2.0625 1.609375,3.625 3.46875,3.625 1.625,0 2.59375,-1.390625 2.59375,-2.546875 C 6.625,-2.421875 6.625,-2.5 6.5,-2.5 6.390625,-2.5 6.390625,-2.4375 6.375,-2.328125 6.296875,-0.90625 5.234375,-0.09375 4.140625,-0.09375 c -0.609375,0 -2.5625,-0.328125 -2.5625,-3.3125 0,-2.96875 1.953125,-3.3125 2.5625,-3.3125 1.078125,0 1.96875,0.90625 2.171875,2.359375 C 6.328125,-4.21875 6.328125,-4.1875 6.46875,-4.1875 6.625,-4.1875 6.625,-4.21875 6.625,-4.421875 V -6.78125 c 0,-0.171875 0,-0.25 -0.109375,-0.25 -0.03125,0 -0.078125,0 -0.15625,0.125 l -0.5,0.734375 C 5.5,-6.53125 4.984375,-7.03125 4.03125,-7.03125 c -1.875,0 -3.46875,1.59375 -3.46875,3.625 z m 0,0"
             id="id-3774e608-6e82-49e5-97b3-a0b3c4cc1629" />
        </g>
        <g
           transform="translate(155.907,134.765)"
           id="g1182">
          <path
             style="stroke:none;stroke-width:0"
             d="m 3.3125,-0.75 c 0.046875,0.390625 0.3125,0.8125 0.78125,0.8125 0.21875,0 0.828125,-0.140625 0.828125,-0.953125 v -0.5625 h -0.25 v 0.5625 c 0,0.578125 -0.25,0.640625 -0.359375,0.640625 -0.328125,0 -0.375,-0.453125 -0.375,-0.5 v -1.984375 c 0,-0.421875 0,-0.8125 -0.359375,-1.1875 C 3.1875,-4.3125 2.6875,-4.46875 2.21875,-4.46875 c -0.828125,0 -1.515625,0.46875 -1.515625,1.125 0,0.296875 0.203125,0.46875 0.46875,0.46875 0.28125,0 0.453125,-0.203125 0.453125,-0.453125 0,-0.125 -0.046875,-0.453125 -0.515625,-0.453125 C 1.390625,-4.140625 1.875,-4.25 2.1875,-4.25 c 0.5,0 1.0625,0.390625 1.0625,1.28125 v 0.359375 c -0.515625,0.03125 -1.203125,0.0625 -1.828125,0.359375 -0.75,0.34375 -1,0.859375 -1,1.296875 0,0.8125 0.96875,1.0625 1.59375,1.0625 0.65625,0 1.109375,-0.40625 1.296875,-0.859375 z M 3.25,-2.390625 v 1 c 0,0.9375 -0.71875,1.28125 -1.171875,1.28125 -0.484375,0 -0.890625,-0.34375 -0.890625,-0.84375 0,-0.546875 0.421875,-1.375 2.0625,-1.4375 z m 0,0"
             id="id-31088aac-c095-4768-bd21-718e79474b6f" />
        </g>
        <g
           transform="translate(160.888,134.765)"
           id="g1185">
          <path
             style="stroke:none;stroke-width:0"
             d="m 1.71875,-3.75 v -0.65625 l -1.4375,0.109375 v 0.3125 c 0.703125,0 0.78125,0.0625 0.78125,0.5 v 4.65625 C 1.0625,1.625 0.953125,1.625 0.28125,1.625 V 1.9375 C 0.625,1.921875 1.140625,1.90625 1.390625,1.90625 c 0.28125,0 0.78125,0.015625 1.125,0.03125 V 1.625 C 1.859375,1.625 1.75,1.625 1.75,1.171875 V -0.59375 c 0.046875,0.171875 0.46875,0.703125 1.21875,0.703125 1.1875,0 2.21875,-0.984375 2.21875,-2.265625 0,-1.265625 -0.953125,-2.25 -2.078125,-2.25 -0.78125,0 -1.203125,0.4375 -1.390625,0.65625 z M 1.75,-1.140625 v -2.21875 C 2.03125,-3.875 2.515625,-4.15625 3.03125,-4.15625 c 0.734375,0 1.328125,0.875 1.328125,2 0,1.203125 -0.6875,2.046875 -1.421875,2.046875 -0.40625,0 -0.78125,-0.203125 -1.046875,-0.609375 C 1.75,-0.921875 1.75,-0.9375 1.75,-1.140625 Z m 0,0"
             id="id-bd8e6b81-87a9-4a77-8deb-37d31aa5b3a0" />
        </g>
        <g
           transform="translate(166.424,134.765)"
           id="g1188">
          <path
             style="stroke:none;stroke-width:0"
             d="m 3.3125,-0.75 c 0.046875,0.390625 0.3125,0.8125 0.78125,0.8125 0.21875,0 0.828125,-0.140625 0.828125,-0.953125 v -0.5625 h -0.25 v 0.5625 c 0,0.578125 -0.25,0.640625 -0.359375,0.640625 -0.328125,0 -0.375,-0.453125 -0.375,-0.5 v -1.984375 c 0,-0.421875 0,-0.8125 -0.359375,-1.1875 C 3.1875,-4.3125 2.6875,-4.46875 2.21875,-4.46875 c -0.828125,0 -1.515625,0.46875 -1.515625,1.125 0,0.296875 0.203125,0.46875 0.46875,0.46875 0.28125,0 0.453125,-0.203125 0.453125,-0.453125 0,-0.125 -0.046875,-0.453125 -0.515625,-0.453125 C 1.390625,-4.140625 1.875,-4.25 2.1875,-4.25 c 0.5,0 1.0625,0.390625 1.0625,1.28125 v 0.359375 c -0.515625,0.03125 -1.203125,0.0625 -1.828125,0.359375 -0.75,0.34375 -1,0.859375 -1,1.296875 0,0.8125 0.96875,1.0625 1.59375,1.0625 0.65625,0 1.109375,-0.40625 1.296875,-0.859375 z M 3.25,-2.390625 v 1 c 0,0.9375 -0.71875,1.28125 -1.171875,1.28125 -0.484375,0 -0.890625,-0.34375 -0.890625,-0.84375 0,-0.546875 0.421875,-1.375 2.0625,-1.4375 z m 0,0"
             id="id-748dfa13-6fbe-45aa-8f01-703a71086a2e" />
        </g>
      </g>
      <g
         style="fill:#000000;fill-opacity:1"
         id="id-22aeb6de-d86c-4694-a31b-ccbcd7a3f1b3">
        <g
           transform="translate(174.722,134.765)"
           id="g1192">
          <path
             style="stroke:none;stroke-width:0"
             d="m 3.78125,-0.546875 v 0.65625 L 5.25,0 v -0.3125 c -0.6875,0 -0.78125,-0.0625 -0.78125,-0.5625 V -6.921875 L 3.046875,-6.8125 V -6.5 c 0.6875,0 0.765625,0.0625 0.765625,0.5625 v 2.15625 c -0.28125,-0.359375 -0.71875,-0.625 -1.25,-0.625 -1.171875,0 -2.21875,0.984375 -2.21875,2.265625 0,1.265625 0.96875,2.25 2.109375,2.25 0.640625,0 1.078125,-0.34375 1.328125,-0.65625 z m 0,-2.671875 v 2.046875 c 0,0.171875 0,0.1875 -0.109375,0.359375 C 3.375,-0.328125 2.9375,-0.109375 2.5,-0.109375 2.046875,-0.109375 1.6875,-0.375 1.453125,-0.75 1.203125,-1.15625 1.171875,-1.71875 1.171875,-2.140625 1.171875,-2.5 1.1875,-3.09375 1.46875,-3.546875 1.6875,-3.859375 2.0625,-4.1875 2.609375,-4.1875 c 0.34375,0 0.765625,0.15625 1.0625,0.59375 0.109375,0.171875 0.109375,0.1875 0.109375,0.375 z m 0,0"
             id="id-63d11c42-7344-483c-8250-5e3816e3047e" />
        </g>
        <g
           transform="translate(180.258,134.765)"
           id="g1195">
          <path
             style="stroke:none;stroke-width:0"
             d="M 1.109375,-2.515625 C 1.171875,-4 2.015625,-4.25 2.359375,-4.25 c 1.015625,0 1.125,1.34375 1.125,1.734375 z m 0,0.21875 h 2.78125 c 0.21875,0 0.25,0 0.25,-0.21875 0,-0.984375 -0.546875,-1.953125 -1.78125,-1.953125 -1.15625,0 -2.078125,1.03125 -2.078125,2.28125 0,1.328125 1.046875,2.296875 2.1875,2.296875 C 3.6875,0.109375 4.140625,-1 4.140625,-1.1875 4.140625,-1.28125 4.0625,-1.3125 4,-1.3125 c -0.078125,0 -0.109375,0.0625 -0.125,0.140625 -0.34375,1.03125 -1.25,1.03125 -1.34375,1.03125 -0.5,0 -0.890625,-0.296875 -1.125,-0.671875 -0.296875,-0.46875 -0.296875,-1.125 -0.296875,-1.484375 z m 0,0"
             id="id-62d0e39d-fee7-4b99-89bc-fe888386e490" />
        </g>
      </g>
      <g
         style="fill:#000000;fill-opacity:1"
         id="id-090947a5-679d-4baf-b23c-924df6ef1df6">
        <g
           transform="translate(188.012,134.765)"
           id="g1199">
          <path
             style="stroke:none;stroke-width:0"
             d="M 1.109375,-2.515625 C 1.171875,-4 2.015625,-4.25 2.359375,-4.25 c 1.015625,0 1.125,1.34375 1.125,1.734375 z m 0,0.21875 h 2.78125 c 0.21875,0 0.25,0 0.25,-0.21875 0,-0.984375 -0.546875,-1.953125 -1.78125,-1.953125 -1.15625,0 -2.078125,1.03125 -2.078125,2.28125 0,1.328125 1.046875,2.296875 2.1875,2.296875 C 3.6875,0.109375 4.140625,-1 4.140625,-1.1875 4.140625,-1.28125 4.0625,-1.3125 4,-1.3125 c -0.078125,0 -0.109375,0.0625 -0.125,0.140625 -0.34375,1.03125 -1.25,1.03125 -1.34375,1.03125 -0.5,0 -0.890625,-0.296875 -1.125,-0.671875 -0.296875,-0.46875 -0.296875,-1.125 -0.296875,-1.484375 z m 0,0"
             id="id-9f527239-a03a-4d80-93a9-f75c3cdce31d" />
        </g>
        <g
           transform="translate(192.44,134.765)"
           id="g1202">
          <path
             style="stroke:none;stroke-width:0"
             d="M 1.09375,-3.421875 V -0.75 c 0,0.4375 -0.109375,0.4375 -0.78125,0.4375 V 0 c 0.359375,-0.015625 0.859375,-0.03125 1.140625,-0.03125 0.25,0 0.765625,0.015625 1.109375,0.03125 v -0.3125 c -0.671875,0 -0.78125,0 -0.78125,-0.4375 V -2.59375 C 1.78125,-3.625 2.5,-4.1875 3.125,-4.1875 c 0.640625,0 0.75,0.53125 0.75,1.109375 V -0.75 c 0,0.4375 -0.109375,0.4375 -0.78125,0.4375 V 0 c 0.34375,-0.015625 0.859375,-0.03125 1.125,-0.03125 0.25,0 0.78125,0.015625 1.109375,0.03125 v -0.3125 c -0.515625,0 -0.765625,0 -0.765625,-0.296875 v -1.90625 c 0,-0.859375 0,-1.15625 -0.3125,-1.515625 -0.140625,-0.171875 -0.46875,-0.375 -1.046875,-0.375 C 2.46875,-4.40625 2,-3.984375 1.71875,-3.359375 V -4.40625 L 0.3125,-4.296875 v 0.3125 c 0.703125,0 0.78125,0.0625 0.78125,0.5625 z m 0,0"
             id="id-33a3932b-aba1-481f-9ad8-5dd65006a2af" />
        </g>
      </g>
      <g
         style="fill:#000000;fill-opacity:1"
         id="id-721115e3-632e-48aa-a666-7b2893205d24">
        <g
           transform="translate(197.696,134.765)"
           id="g1206">
          <path
             style="stroke:none;stroke-width:0"
             d="m 1.71875,-3.984375 h 1.4375 v -0.3125 H 1.71875 V -6.125 h -0.25 c 0,0.8125 -0.296875,1.875 -1.28125,1.921875 v 0.21875 h 0.84375 v 2.75 c 0,1.21875 0.9375,1.34375 1.296875,1.34375 0.703125,0 0.984375,-0.703125 0.984375,-1.34375 v -0.5625 h -0.25 V -1.25 c 0,0.734375 -0.296875,1.109375 -0.671875,1.109375 -0.671875,0 -0.671875,-0.90625 -0.671875,-1.078125 z m 0,0"
             id="id-5ae542fc-d8bc-4b5f-b1c7-0c9fa5c607d6" />
        </g>
        <g
           transform="translate(201.571,134.765)"
           id="g1209">
          <path
             style="stroke:none;stroke-width:0"
             d="M 1.671875,-3.3125 V -4.40625 L 0.28125,-4.296875 v 0.3125 c 0.703125,0 0.78125,0.0625 0.78125,0.5625 V -0.75 c 0,0.4375 -0.109375,0.4375 -0.78125,0.4375 V 0 c 0.390625,-0.015625 0.859375,-0.03125 1.140625,-0.03125 0.390625,0 0.859375,0 1.265625,0.03125 V -0.3125 H 2.46875 c -0.734375,0 -0.75,-0.109375 -0.75,-0.46875 V -2.3125 c 0,-0.984375 0.421875,-1.875 1.171875,-1.875 0.0625,0 0.09375,0 0.109375,0.015625 -0.03125,0 -0.234375,0.125 -0.234375,0.390625 0,0.265625 0.21875,0.421875 0.4375,0.421875 0.171875,0 0.421875,-0.125 0.421875,-0.4375 0,-0.3125 -0.3125,-0.609375 -0.734375,-0.609375 -0.734375,0 -1.09375,0.671875 -1.21875,1.09375 z m 0,0"
             id="id-71c39199-4696-40d3-8ec0-6fb0e2405a40" />
        </g>
        <g
           transform="translate(205.473,134.765)"
           id="g1212">
          <path
             style="stroke:none;stroke-width:0"
             d="m 3.3125,-0.75 c 0.046875,0.390625 0.3125,0.8125 0.78125,0.8125 0.21875,0 0.828125,-0.140625 0.828125,-0.953125 v -0.5625 h -0.25 v 0.5625 c 0,0.578125 -0.25,0.640625 -0.359375,0.640625 -0.328125,0 -0.375,-0.453125 -0.375,-0.5 v -1.984375 c 0,-0.421875 0,-0.8125 -0.359375,-1.1875 C 3.1875,-4.3125 2.6875,-4.46875 2.21875,-4.46875 c -0.828125,0 -1.515625,0.46875 -1.515625,1.125 0,0.296875 0.203125,0.46875 0.46875,0.46875 0.28125,0 0.453125,-0.203125 0.453125,-0.453125 0,-0.125 -0.046875,-0.453125 -0.515625,-0.453125 C 1.390625,-4.140625 1.875,-4.25 2.1875,-4.25 c 0.5,0 1.0625,0.390625 1.0625,1.28125 v 0.359375 c -0.515625,0.03125 -1.203125,0.0625 -1.828125,0.359375 -0.75,0.34375 -1,0.859375 -1,1.296875 0,0.8125 0.96875,1.0625 1.59375,1.0625 0.65625,0 1.109375,-0.40625 1.296875,-0.859375 z M 3.25,-2.390625 v 1 c 0,0.9375 -0.71875,1.28125 -1.171875,1.28125 -0.484375,0 -0.890625,-0.34375 -0.890625,-0.84375 0,-0.546875 0.421875,-1.375 2.0625,-1.4375 z m 0,0"
             id="id-f7c84917-8f54-4386-a2b3-343cc7c921fb" />
        </g>
        <g
           transform="translate(210.454,134.765)"
           id="g1215">
          <path
             style="stroke:none;stroke-width:0"
             d="m 3.78125,-0.546875 v 0.65625 L 5.25,0 v -0.3125 c -0.6875,0 -0.78125,-0.0625 -0.78125,-0.5625 V -6.921875 L 3.046875,-6.8125 V -6.5 c 0.6875,0 0.765625,0.0625 0.765625,0.5625 v 2.15625 c -0.28125,-0.359375 -0.71875,-0.625 -1.25,-0.625 -1.171875,0 -2.21875,0.984375 -2.21875,2.265625 0,1.265625 0.96875,2.25 2.109375,2.25 0.640625,0 1.078125,-0.34375 1.328125,-0.65625 z m 0,-2.671875 v 2.046875 c 0,0.171875 0,0.1875 -0.109375,0.359375 C 3.375,-0.328125 2.9375,-0.109375 2.5,-0.109375 2.046875,-0.109375 1.6875,-0.375 1.453125,-0.75 1.203125,-1.15625 1.171875,-1.71875 1.171875,-2.140625 1.171875,-2.5 1.1875,-3.09375 1.46875,-3.546875 1.6875,-3.859375 2.0625,-4.1875 2.609375,-4.1875 c 0.34375,0 0.765625,0.15625 1.0625,0.59375 0.109375,0.171875 0.109375,0.1875 0.109375,0.375 z m 0,0"
             id="id-25923e8f-5c37-42a7-a433-5647a4cf0cd7" />
        </g>
        <g
           transform="translate(215.989,134.765)"
           id="g1218">
          <path
             style="stroke:none;stroke-width:0"
             d="m 3.3125,-0.75 c 0.046875,0.390625 0.3125,0.8125 0.78125,0.8125 0.21875,0 0.828125,-0.140625 0.828125,-0.953125 v -0.5625 h -0.25 v 0.5625 c 0,0.578125 -0.25,0.640625 -0.359375,0.640625 -0.328125,0 -0.375,-0.453125 -0.375,-0.5 v -1.984375 c 0,-0.421875 0,-0.8125 -0.359375,-1.1875 C 3.1875,-4.3125 2.6875,-4.46875 2.21875,-4.46875 c -0.828125,0 -1.515625,0.46875 -1.515625,1.125 0,0.296875 0.203125,0.46875 0.46875,0.46875 0.28125,0 0.453125,-0.203125 0.453125,-0.453125 0,-0.125 -0.046875,-0.453125 -0.515625,-0.453125 C 1.390625,-4.140625 1.875,-4.25 2.1875,-4.25 c 0.5,0 1.0625,0.390625 1.0625,1.28125 v 0.359375 c -0.515625,0.03125 -1.203125,0.0625 -1.828125,0.359375 -0.75,0.34375 -1,0.859375 -1,1.296875 0,0.8125 0.96875,1.0625 1.59375,1.0625 0.65625,0 1.109375,-0.40625 1.296875,-0.859375 z M 3.25,-2.390625 v 1 c 0,0.9375 -0.71875,1.28125 -1.171875,1.28125 -0.484375,0 -0.890625,-0.34375 -0.890625,-0.84375 0,-0.546875 0.421875,-1.375 2.0625,-1.4375 z m 0,0"
             id="id-eacbfb24-df7e-41df-9611-108ae99dc34d" />
        </g>
      </g>
      <g
         style="fill:#000000;fill-opacity:1"
         id="id-8d7c6663-27d4-4cd4-9ac3-b011b9167440">
        <g
           transform="translate(224.29,134.765)"
           id="g1222">
          <path
             style="stroke:none;stroke-width:0"
             d="m 5.46875,-2.296875 c 0.15625,0 0.34375,0 0.34375,-0.203125 0,-0.1875 -0.1875,-0.1875 -0.34375,-0.1875 H 1.234375 C 1.359375,-4.03125 2.5,-4.984375 3.90625,-4.984375 h 1.5625 c 0.15625,0 0.34375,0 0.34375,-0.203125 0,-0.203125 -0.1875,-0.203125 -0.34375,-0.203125 H 3.890625 c -1.703125,0 -3.0625,1.296875 -3.0625,2.890625 0,1.609375 1.359375,2.90625 3.0625,2.90625 H 5.46875 c 0.15625,0 0.34375,0 0.34375,-0.203125 C 5.8125,0 5.625,0 5.46875,0 H 3.90625 C 2.5,0 1.359375,-0.953125 1.234375,-2.296875 Z m 0,0"
             id="id-3a70b583-f5c5-476e-bee5-1ee30dbd192f" />
        </g>
      </g>
      <g
         style="fill:#000000;fill-opacity:1"
         id="id-989b4564-7578-4f2e-b0a6-850c5881cba0">
        <g
           transform="translate(233.699,134.765)"
           id="g1226">
          <path
             style="stroke:none;stroke-width:0"
             d="M 2.671875,-3.125 H 3.03125 l 1.5,2.3125 C 4.625,-0.65625 4.859375,-0.265625 4.96875,-0.125 5.046875,0 5.078125,0 5.296875,0 h 1.375 c 0.1875,0 0.34375,0 0.34375,-0.171875 0,-0.09375 -0.0625,-0.15625 -0.15625,-0.171875 C 6.484375,-0.421875 6,-1.09375 5.765625,-1.40625 5.6875,-1.5 5.1875,-2.15625 4.53125,-3.234375 5.40625,-3.40625 6.265625,-3.78125 6.265625,-4.96875 6.265625,-6.34375 4.8125,-6.828125 3.625,-6.828125 H 0.5 c -0.1875,0 -0.34375,0 -0.34375,0.171875 0,0.171875 0.1875,0.171875 0.265625,0.171875 0.578125,0 0.625,0.078125 0.625,0.578125 v 4.984375 c 0,0.5 -0.046875,0.578125 -0.625,0.578125 -0.078125,0 -0.265625,0 -0.265625,0.171875 C 0.15625,0 0.3125,0 0.5,0 H 3.234375 C 3.40625,0 3.5625,0 3.5625,-0.171875 c 0,-0.171875 -0.171875,-0.171875 -0.28125,-0.171875 -0.5625,0 -0.609375,-0.078125 -0.609375,-0.578125 z m 1.921875,-0.5 c 0.28125,-0.359375 0.3125,-0.890625 0.3125,-1.328125 0,-0.484375 -0.0625,-1.015625 -0.375,-1.421875 0.40625,0.09375 1.390625,0.40625 1.390625,1.40625 0,0.65625 -0.296875,1.15625 -1.328125,1.34375 z M 2.671875,-5.9375 c 0,-0.21875 0,-0.546875 0.625,-0.546875 0.84375,0 1.265625,0.359375 1.265625,1.53125 0,1.28125 -0.3125,1.46875 -1.890625,1.46875 z M 1.3125,-0.34375 C 1.390625,-0.53125 1.390625,-0.8125 1.390625,-0.890625 V -5.9375 c 0,-0.09375 0,-0.359375 -0.078125,-0.546875 h 1.140625 c -0.125,0.171875 -0.125,0.359375 -0.125,0.515625 v 5.078125 c 0,0.09375 0,0.359375 0.078125,0.546875 z M 3.4375,-3.125 c 0.078125,-0.015625 0.109375,-0.03125 0.1875,-0.03125 0.15625,0 0.375,-0.015625 0.515625,-0.03125 0.15625,0.234375 1.234375,2.015625 2.0625,2.84375 h -0.96875 z m 0,0"
             id="id-8c3b629a-ef81-4e46-bbd3-2543fc078df2" />
        </g>
      </g>
      <g
         style="fill:#000000;fill-opacity:1"
         id="id-180d8bfe-a552-44ff-aa2e-bcb224002045">
        <g
           transform="translate(240.894,131.149)"
           id="g1230">
          <path
             style="stroke:none;stroke-width:0"
             d="M 3.984375,-4.625 C 3.984375,-4.640625 4,-4.734375 4,-4.734375 4,-4.78125 3.984375,-4.84375 3.890625,-4.84375 3.75,-4.84375 3.171875,-4.78125 3,-4.765625 c -0.046875,0 -0.15625,0.015625 -0.15625,0.15625 0,0.09375 0.109375,0.09375 0.1875,0.09375 0.328125,0 0.328125,0.0625 0.328125,0.109375 0,0.046875 0,0.09375 -0.015625,0.15625 L 2.9375,-2.65625 c -0.140625,-0.234375 -0.375,-0.421875 -0.71875,-0.421875 -0.890625,0 -1.796875,0.984375 -1.796875,1.984375 0,0.6875 0.453125,1.15625 1.0625,1.15625 0.375,0 0.703125,-0.203125 0.984375,-0.484375 C 2.59375,0 3,0.0625 3.1875,0.0625 c 0.25,0 0.421875,-0.140625 0.546875,-0.359375 0.15625,-0.28125 0.25,-0.671875 0.25,-0.703125 0,-0.09375 -0.09375,-0.09375 -0.109375,-0.09375 -0.109375,0 -0.109375,0.03125 -0.15625,0.21875 C 3.625,-0.53125 3.5,-0.125 3.203125,-0.125 3.03125,-0.125 2.96875,-0.28125 2.96875,-0.46875 c 0,-0.125 0.015625,-0.1875 0.046875,-0.28125 z M 2.5,-0.875 C 2.453125,-0.671875 2.296875,-0.53125 2.140625,-0.40625 2.078125,-0.34375 1.796875,-0.125 1.5,-0.125 c -0.265625,0 -0.515625,-0.1875 -0.515625,-0.671875 0,-0.375 0.203125,-1.140625 0.375,-1.421875 0.3125,-0.5625 0.671875,-0.65625 0.859375,-0.65625 0.484375,0 0.625,0.53125 0.625,0.609375 0,0.015625 -0.015625,0.078125 -0.015625,0.09375 z m 0,0"
             id="id-ca2043ee-2abb-4529-b045-85499c76c8b5" />
        </g>
      </g>
      <g
         style="fill:#000000;fill-opacity:1"
         id="id-2c0f7d01-0cf7-429c-905c-0e0abf5e5ec1">
        <g
           transform="translate(245.042,132.146)"
           id="g1234">
          <path
             style="stroke:none;stroke-width:0"
             d="M 1.984375,-3.171875 C 1.984375,-3.3125 1.96875,-3.3125 1.796875,-3.3125 1.453125,-3 0.890625,-3 0.796875,-3 H 0.71875 v 0.21875 h 0.078125 c 0.109375,0 0.4375,-0.015625 0.734375,-0.140625 v 2.5 c 0,0.140625 0,0.203125 -0.53125,0.203125 H 0.75 V 0 c 0.265625,-0.015625 0.71875,-0.015625 1,-0.015625 0.296875,0 0.734375,0 1.015625,0.015625 v -0.21875 h -0.25 c -0.53125,0 -0.53125,-0.0625 -0.53125,-0.203125 z m 0,0"
             id="id-d41f5b6a-c72c-4871-ab0e-d7552ae34ea4" />
        </g>
      </g>
    </g>
  </g>
  <g
     transform="matrix(2.4253916,0,0,2.4686015,409.87048,366.84678)"
     ns17:version="1.3.0"
     ns17:texconverter="pdflatex"
     ns17:pdfconverter="inkscape"
     ns17:text="Capa de salida $\\in \\mathbb{R}^{d_2}$"
     ns17:preamble="C:\Users\NARUTO\AppData\Roaming\inkscape\extensions\textext\default_packages.tex"
     ns17:scale="5.0"
     ns17:alignment="middle center"
     ns17:jacobian_sqrt="6.66665"
     id="g1479">
    <defs
       id="id-6a099274-6838-414d-8e4e-483d5134f96b">
      <g
         id="id-2b857515-e596-4120-ac89-d4693d298f57">
        <symbol
           overflow="visible"
           id="id-fcd8db9e-c582-4511-990b-fd3bd5070a7a">
          <path
             style="stroke:none"
             d=""
             id="id-1121207e-34ed-4828-a4e8-8058dfa1100c" />
        </symbol>
        <symbol
           overflow="visible"
           id="id-29956262-530d-4920-a8fe-36b6676588cb">
          <path
             style="stroke:none"
             d="m 0.5625,-3.40625 c 0,2.0625 1.609375,3.625 3.46875,3.625 1.625,0 2.59375,-1.390625 2.59375,-2.546875 C 6.625,-2.421875 6.625,-2.5 6.5,-2.5 6.390625,-2.5 6.390625,-2.4375 6.375,-2.328125 6.296875,-0.90625 5.234375,-0.09375 4.140625,-0.09375 c -0.609375,0 -2.5625,-0.328125 -2.5625,-3.3125 0,-2.96875 1.953125,-3.3125 2.5625,-3.3125 1.078125,0 1.96875,0.90625 2.171875,2.359375 C 6.328125,-4.21875 6.328125,-4.1875 6.46875,-4.1875 6.625,-4.1875 6.625,-4.21875 6.625,-4.421875 V -6.78125 c 0,-0.171875 0,-0.25 -0.109375,-0.25 -0.03125,0 -0.078125,0 -0.15625,0.125 l -0.5,0.734375 C 5.5,-6.53125 4.984375,-7.03125 4.03125,-7.03125 c -1.875,0 -3.46875,1.59375 -3.46875,3.625 z m 0,0"
             id="id-e5b7c911-5a47-4c8f-951b-f97d5a0f926f" />
        </symbol>
        <symbol
           overflow="visible"
           id="id-4ea0a1b2-de85-4aee-ba50-6b4b7c2d0594">
          <path
             style="stroke:none"
             d="m 3.3125,-0.75 c 0.046875,0.390625 0.3125,0.8125 0.78125,0.8125 0.21875,0 0.828125,-0.140625 0.828125,-0.953125 v -0.5625 h -0.25 v 0.5625 c 0,0.578125 -0.25,0.640625 -0.359375,0.640625 -0.328125,0 -0.375,-0.453125 -0.375,-0.5 v -1.984375 c 0,-0.421875 0,-0.8125 -0.359375,-1.1875 C 3.1875,-4.3125 2.6875,-4.46875 2.21875,-4.46875 c -0.828125,0 -1.515625,0.46875 -1.515625,1.125 0,0.296875 0.203125,0.46875 0.46875,0.46875 0.28125,0 0.453125,-0.203125 0.453125,-0.453125 0,-0.125 -0.046875,-0.453125 -0.515625,-0.453125 C 1.390625,-4.140625 1.875,-4.25 2.1875,-4.25 c 0.5,0 1.0625,0.390625 1.0625,1.28125 v 0.359375 c -0.515625,0.03125 -1.203125,0.0625 -1.828125,0.359375 -0.75,0.34375 -1,0.859375 -1,1.296875 0,0.8125 0.96875,1.0625 1.59375,1.0625 0.65625,0 1.109375,-0.40625 1.296875,-0.859375 z M 3.25,-2.390625 v 1 c 0,0.9375 -0.71875,1.28125 -1.171875,1.28125 -0.484375,0 -0.890625,-0.34375 -0.890625,-0.84375 0,-0.546875 0.421875,-1.375 2.0625,-1.4375 z m 0,0"
             id="id-2aaec750-d60f-4777-a19e-31fa4f0e6f23" />
        </symbol>
        <symbol
           overflow="visible"
           id="id-2330728f-406d-404e-914c-53433f3a1e90">
          <path
             style="stroke:none"
             d="m 1.71875,-3.75 v -0.65625 l -1.4375,0.109375 v 0.3125 c 0.703125,0 0.78125,0.0625 0.78125,0.5 v 4.65625 C 1.0625,1.625 0.953125,1.625 0.28125,1.625 V 1.9375 C 0.625,1.921875 1.140625,1.90625 1.390625,1.90625 c 0.28125,0 0.78125,0.015625 1.125,0.03125 V 1.625 C 1.859375,1.625 1.75,1.625 1.75,1.171875 V -0.59375 c 0.046875,0.171875 0.46875,0.703125 1.21875,0.703125 1.1875,0 2.21875,-0.984375 2.21875,-2.265625 0,-1.265625 -0.953125,-2.25 -2.078125,-2.25 -0.78125,0 -1.203125,0.4375 -1.390625,0.65625 z M 1.75,-1.140625 v -2.21875 C 2.03125,-3.875 2.515625,-4.15625 3.03125,-4.15625 c 0.734375,0 1.328125,0.875 1.328125,2 0,1.203125 -0.6875,2.046875 -1.421875,2.046875 -0.40625,0 -0.78125,-0.203125 -1.046875,-0.609375 C 1.75,-0.921875 1.75,-0.9375 1.75,-1.140625 Z m 0,0"
             id="id-b71f97b8-7ad9-41dd-b3ce-1e3614e42723" />
        </symbol>
        <symbol
           overflow="visible"
           id="id-7d6b9ca0-c583-4ee6-ae21-753021c8990a">
          <path
             style="stroke:none"
             d="m 3.78125,-0.546875 v 0.65625 L 5.25,0 v -0.3125 c -0.6875,0 -0.78125,-0.0625 -0.78125,-0.5625 V -6.921875 L 3.046875,-6.8125 V -6.5 c 0.6875,0 0.765625,0.0625 0.765625,0.5625 v 2.15625 c -0.28125,-0.359375 -0.71875,-0.625 -1.25,-0.625 -1.171875,0 -2.21875,0.984375 -2.21875,2.265625 0,1.265625 0.96875,2.25 2.109375,2.25 0.640625,0 1.078125,-0.34375 1.328125,-0.65625 z m 0,-2.671875 v 2.046875 c 0,0.171875 0,0.1875 -0.109375,0.359375 C 3.375,-0.328125 2.9375,-0.109375 2.5,-0.109375 2.046875,-0.109375 1.6875,-0.375 1.453125,-0.75 1.203125,-1.15625 1.171875,-1.71875 1.171875,-2.140625 1.171875,-2.5 1.1875,-3.09375 1.46875,-3.546875 1.6875,-3.859375 2.0625,-4.1875 2.609375,-4.1875 c 0.34375,0 0.765625,0.15625 1.0625,0.59375 0.109375,0.171875 0.109375,0.1875 0.109375,0.375 z m 0,0"
             id="id-205bc109-b84c-4f50-b0be-1335bc68f4a4" />
        </symbol>
        <symbol
           overflow="visible"
           id="id-08691369-0cf5-4ac1-beb0-aeac0607ad17">
          <path
             style="stroke:none"
             d="M 1.109375,-2.515625 C 1.171875,-4 2.015625,-4.25 2.359375,-4.25 c 1.015625,0 1.125,1.34375 1.125,1.734375 z m 0,0.21875 h 2.78125 c 0.21875,0 0.25,0 0.25,-0.21875 0,-0.984375 -0.546875,-1.953125 -1.78125,-1.953125 -1.15625,0 -2.078125,1.03125 -2.078125,2.28125 0,1.328125 1.046875,2.296875 2.1875,2.296875 C 3.6875,0.109375 4.140625,-1 4.140625,-1.1875 4.140625,-1.28125 4.0625,-1.3125 4,-1.3125 c -0.078125,0 -0.109375,0.0625 -0.125,0.140625 -0.34375,1.03125 -1.25,1.03125 -1.34375,1.03125 -0.5,0 -0.890625,-0.296875 -1.125,-0.671875 -0.296875,-0.46875 -0.296875,-1.125 -0.296875,-1.484375 z m 0,0"
             id="id-576f0353-a290-4797-81cb-b3062a910860" />
        </symbol>
        <symbol
           overflow="visible"
           id="id-1c276275-ea9c-486e-890b-28aa969523a5">
          <path
             style="stroke:none"
             d="m 2.078125,-1.9375 c 0.21875,0.046875 1.03125,0.203125 1.03125,0.921875 0,0.5 -0.34375,0.90625 -1.125,0.90625 -0.84375,0 -1.203125,-0.5625 -1.390625,-1.421875 C 0.5625,-1.65625 0.5625,-1.6875 0.453125,-1.6875 c -0.125,0 -0.125,0.0625 -0.125,0.234375 V -0.125 c 0,0.171875 0,0.234375 0.109375,0.234375 0.046875,0 0.0625,-0.015625 0.25,-0.203125 0.015625,-0.015625 0.015625,-0.03125 0.203125,-0.21875 0.4375,0.40625 0.890625,0.421875 1.09375,0.421875 1.140625,0 1.609375,-0.671875 1.609375,-1.390625 0,-0.515625 -0.296875,-0.828125 -0.421875,-0.9375 C 2.84375,-2.546875 2.453125,-2.625 2.03125,-2.703125 1.46875,-2.8125 0.8125,-2.9375 0.8125,-3.515625 c 0,-0.359375 0.25,-0.765625 1.109375,-0.765625 1.09375,0 1.15625,0.90625 1.171875,1.203125 0,0.09375 0.09375,0.09375 0.109375,0.09375 0.140625,0 0.140625,-0.046875 0.140625,-0.234375 v -1.015625 c 0,-0.15625 0,-0.234375 -0.109375,-0.234375 -0.046875,0 -0.078125,0 -0.203125,0.125 -0.03125,0.03125 -0.125,0.125 -0.171875,0.15625 -0.375,-0.28125 -0.78125,-0.28125 -0.9375,-0.28125 -1.21875,0 -1.59375,0.671875 -1.59375,1.234375 0,0.34375 0.15625,0.625 0.421875,0.84375 0.328125,0.25 0.609375,0.3125 1.328125,0.453125 z m 0,0"
             id="id-4a3f11bc-d5fd-4578-a609-27134e41d6ad" />
        </symbol>
        <symbol
           overflow="visible"
           id="id-b9229c96-a893-4792-a284-dbc7a71c2d9a">
          <path
             style="stroke:none"
             d="M 1.765625,-6.921875 0.328125,-6.8125 V -6.5 c 0.703125,0 0.78125,0.0625 0.78125,0.5625 V -0.75 c 0,0.4375 -0.109375,0.4375 -0.78125,0.4375 V 0 C 0.65625,-0.015625 1.1875,-0.03125 1.4375,-0.03125 c 0.25,0 0.734375,0.015625 1.109375,0.03125 v -0.3125 c -0.671875,0 -0.78125,0 -0.78125,-0.4375 z m 0,0"
             id="id-f9331a6b-3bbf-4985-97e6-59e5957ce3d2" />
        </symbol>
        <symbol
           overflow="visible"
           id="id-20364d76-6ff5-41e9-b0c5-ebb0c23ffa3e">
          <path
             style="stroke:none"
             d="M 1.765625,-4.40625 0.375,-4.296875 v 0.3125 c 0.640625,0 0.734375,0.0625 0.734375,0.546875 V -0.75 c 0,0.4375 -0.109375,0.4375 -0.78125,0.4375 V 0 C 0.640625,-0.015625 1.1875,-0.03125 1.421875,-0.03125 1.78125,-0.03125 2.125,-0.015625 2.46875,0 v -0.3125 c -0.671875,0 -0.703125,-0.046875 -0.703125,-0.4375 z m 0.03125,-1.734375 c 0,-0.3125 -0.234375,-0.53125 -0.515625,-0.53125 -0.3125,0 -0.53125,0.265625 -0.53125,0.53125 0,0.265625 0.21875,0.53125 0.53125,0.53125 0.28125,0 0.515625,-0.21875 0.515625,-0.53125 z m 0,0"
             id="id-472f2c19-f194-46e4-b2ac-2f860f96dba9" />
        </symbol>
        <symbol
           overflow="visible"
           id="id-287f6147-9c8f-4d5c-bc83-476654b73aa7">
          <path
             style="stroke:none"
             d=""
             id="id-9f963bb7-7ebf-4d50-b882-f1c83cea9969" />
        </symbol>
        <symbol
           overflow="visible"
           id="id-238f6de1-0a9c-44fe-9eb7-fda678e3c516">
          <path
             style="stroke:none"
             d="m 5.46875,-2.296875 c 0.15625,0 0.34375,0 0.34375,-0.203125 0,-0.1875 -0.1875,-0.1875 -0.34375,-0.1875 H 1.234375 C 1.359375,-4.03125 2.5,-4.984375 3.90625,-4.984375 h 1.5625 c 0.15625,0 0.34375,0 0.34375,-0.203125 0,-0.203125 -0.1875,-0.203125 -0.34375,-0.203125 H 3.890625 c -1.703125,0 -3.0625,1.296875 -3.0625,2.890625 0,1.609375 1.359375,2.90625 3.0625,2.90625 H 5.46875 c 0.15625,0 0.34375,0 0.34375,-0.203125 C 5.8125,0 5.625,0 5.46875,0 H 3.90625 C 2.5,0 1.359375,-0.953125 1.234375,-2.296875 Z m 0,0"
             id="id-25a5b0e9-cb55-4183-80ac-63087338cd09" />
        </symbol>
        <symbol
           overflow="visible"
           id="id-5dfc0ebc-e6da-4001-8420-c7464835d316">
          <path
             style="stroke:none"
             d=""
             id="id-1ee7d22e-bc4f-4052-8784-f198314bf56f" />
        </symbol>
        <symbol
           overflow="visible"
           id="id-715bc0ce-6e0e-4500-a521-30c8cfb4dd4e">
          <path
             style="stroke:none"
             d="M 2.671875,-3.125 H 3.03125 l 1.5,2.3125 C 4.625,-0.65625 4.859375,-0.265625 4.96875,-0.125 5.046875,0 5.078125,0 5.296875,0 h 1.375 c 0.1875,0 0.34375,0 0.34375,-0.171875 0,-0.09375 -0.0625,-0.15625 -0.15625,-0.171875 C 6.484375,-0.421875 6,-1.09375 5.765625,-1.40625 5.6875,-1.5 5.1875,-2.15625 4.53125,-3.234375 5.40625,-3.40625 6.265625,-3.78125 6.265625,-4.96875 6.265625,-6.34375 4.8125,-6.828125 3.625,-6.828125 H 0.5 c -0.1875,0 -0.34375,0 -0.34375,0.171875 0,0.171875 0.1875,0.171875 0.265625,0.171875 0.578125,0 0.625,0.078125 0.625,0.578125 v 4.984375 c 0,0.5 -0.046875,0.578125 -0.625,0.578125 -0.078125,0 -0.265625,0 -0.265625,0.171875 C 0.15625,0 0.3125,0 0.5,0 H 3.234375 C 3.40625,0 3.5625,0 3.5625,-0.171875 c 0,-0.171875 -0.171875,-0.171875 -0.28125,-0.171875 -0.5625,0 -0.609375,-0.078125 -0.609375,-0.578125 z m 1.921875,-0.5 c 0.28125,-0.359375 0.3125,-0.890625 0.3125,-1.328125 0,-0.484375 -0.0625,-1.015625 -0.375,-1.421875 0.40625,0.09375 1.390625,0.40625 1.390625,1.40625 0,0.65625 -0.296875,1.15625 -1.328125,1.34375 z M 2.671875,-5.9375 c 0,-0.21875 0,-0.546875 0.625,-0.546875 0.84375,0 1.265625,0.359375 1.265625,1.53125 0,1.28125 -0.3125,1.46875 -1.890625,1.46875 z M 1.3125,-0.34375 C 1.390625,-0.53125 1.390625,-0.8125 1.390625,-0.890625 V -5.9375 c 0,-0.09375 0,-0.359375 -0.078125,-0.546875 h 1.140625 c -0.125,0.171875 -0.125,0.359375 -0.125,0.515625 v 5.078125 c 0,0.09375 0,0.359375 0.078125,0.546875 z M 3.4375,-3.125 c 0.078125,-0.015625 0.109375,-0.03125 0.1875,-0.03125 0.15625,0 0.375,-0.015625 0.515625,-0.03125 0.15625,0.234375 1.234375,2.015625 2.0625,2.84375 h -0.96875 z m 0,0"
             id="id-8abcaf7a-37ac-471c-af4e-6d130ccb215a" />
        </symbol>
        <symbol
           overflow="visible"
           id="id-34fd9501-9fab-42c5-8a0d-3906c601f43b">
          <path
             style="stroke:none"
             d=""
             id="id-1125e502-8458-47db-8326-b9277b5626ab" />
        </symbol>
        <symbol
           overflow="visible"
           id="id-40e14d3b-1bf0-435a-a1bb-e791add94606">
          <path
             style="stroke:none"
             d="M 3.984375,-4.625 C 3.984375,-4.640625 4,-4.734375 4,-4.734375 4,-4.78125 3.984375,-4.84375 3.890625,-4.84375 3.75,-4.84375 3.171875,-4.78125 3,-4.765625 c -0.046875,0 -0.15625,0.015625 -0.15625,0.15625 0,0.09375 0.109375,0.09375 0.1875,0.09375 0.328125,0 0.328125,0.0625 0.328125,0.109375 0,0.046875 0,0.09375 -0.015625,0.15625 L 2.9375,-2.65625 c -0.140625,-0.234375 -0.375,-0.421875 -0.71875,-0.421875 -0.890625,0 -1.796875,0.984375 -1.796875,1.984375 0,0.6875 0.453125,1.15625 1.0625,1.15625 0.375,0 0.703125,-0.203125 0.984375,-0.484375 C 2.59375,0 3,0.0625 3.1875,0.0625 c 0.25,0 0.421875,-0.140625 0.546875,-0.359375 0.15625,-0.28125 0.25,-0.671875 0.25,-0.703125 0,-0.09375 -0.09375,-0.09375 -0.109375,-0.09375 -0.109375,0 -0.109375,0.03125 -0.15625,0.21875 C 3.625,-0.53125 3.5,-0.125 3.203125,-0.125 3.03125,-0.125 2.96875,-0.28125 2.96875,-0.46875 c 0,-0.125 0.015625,-0.1875 0.046875,-0.28125 z M 2.5,-0.875 C 2.453125,-0.671875 2.296875,-0.53125 2.140625,-0.40625 2.078125,-0.34375 1.796875,-0.125 1.5,-0.125 c -0.265625,0 -0.515625,-0.1875 -0.515625,-0.671875 0,-0.375 0.203125,-1.140625 0.375,-1.421875 0.3125,-0.5625 0.671875,-0.65625 0.859375,-0.65625 0.484375,0 0.625,0.53125 0.625,0.609375 0,0.015625 -0.015625,0.078125 -0.015625,0.09375 z m 0,0"
             id="id-9e1a559c-0041-4801-a5be-9ed050ecae14" />
        </symbol>
        <symbol
           overflow="visible"
           id="id-89f5b5bb-d528-471e-b1f6-9c19bf52d6c6">
          <path
             style="stroke:none"
             d=""
             id="id-16e59c38-f876-4b6e-8bd1-c5ff0300a412" />
        </symbol>
        <symbol
           overflow="visible"
           id="id-da840dbc-5bbf-4a10-ac90-8bad1508a194">
          <path
             style="stroke:none"
             d="M 2.9375,-0.96875 H 2.71875 c 0,0.09375 -0.0625,0.40625 -0.140625,0.453125 -0.03125,0.03125 -0.453125,0.03125 -0.53125,0.03125 H 1.078125 C 1.40625,-0.71875 1.765625,-1 2.0625,-1.203125 c 0.453125,-0.3125 0.875,-0.59375 0.875,-1.125 0,-0.640625 -0.609375,-0.984375 -1.3125,-0.984375 -0.671875,0 -1.171875,0.375 -1.171875,0.875 0,0.25 0.21875,0.296875 0.296875,0.296875 0.125,0 0.28125,-0.09375 0.28125,-0.296875 0,-0.171875 -0.125,-0.28125 -0.28125,-0.28125 0.140625,-0.234375 0.4375,-0.375 0.765625,-0.375 0.484375,0 0.890625,0.28125 0.890625,0.765625 0,0.421875 -0.296875,0.75 -0.671875,1.0625 l -1.21875,1.03125 C 0.46875,-0.1875 0.453125,-0.1875 0.453125,-0.15625 V 0 h 2.3125 z m 0,0"
             id="id-41a9a940-853f-4936-b1fc-49f6af670b23" />
        </symbol>
      </g>
    </defs>
    <g
       id="id-e327a7b5-05e8-4268-bba9-95948105b148"
       transform="translate(-149.275,-126.305)">
      <g
         style="fill:#000000;fill-opacity:1"
         id="id-998b1a76-f9d4-4b4d-bd95-6ae5baaffe50">
        <g
           transform="translate(148.712,134.765)"
           id="g1708">
          <path
             style="stroke:none"
             d="m 0.5625,-3.40625 c 0,2.0625 1.609375,3.625 3.46875,3.625 1.625,0 2.59375,-1.390625 2.59375,-2.546875 C 6.625,-2.421875 6.625,-2.5 6.5,-2.5 6.390625,-2.5 6.390625,-2.4375 6.375,-2.328125 6.296875,-0.90625 5.234375,-0.09375 4.140625,-0.09375 c -0.609375,0 -2.5625,-0.328125 -2.5625,-3.3125 0,-2.96875 1.953125,-3.3125 2.5625,-3.3125 1.078125,0 1.96875,0.90625 2.171875,2.359375 C 6.328125,-4.21875 6.328125,-4.1875 6.46875,-4.1875 6.625,-4.1875 6.625,-4.21875 6.625,-4.421875 V -6.78125 c 0,-0.171875 0,-0.25 -0.109375,-0.25 -0.03125,0 -0.078125,0 -0.15625,0.125 l -0.5,0.734375 C 5.5,-6.53125 4.984375,-7.03125 4.03125,-7.03125 c -1.875,0 -3.46875,1.59375 -3.46875,3.625 z m 0,0"
             id="id-09e2b8f3-25c1-4738-890d-02797efca014" />
        </g>
        <g
           transform="translate(155.907,134.765)"
           id="g1711">
          <path
             style="stroke:none"
             d="m 3.3125,-0.75 c 0.046875,0.390625 0.3125,0.8125 0.78125,0.8125 0.21875,0 0.828125,-0.140625 0.828125,-0.953125 v -0.5625 h -0.25 v 0.5625 c 0,0.578125 -0.25,0.640625 -0.359375,0.640625 -0.328125,0 -0.375,-0.453125 -0.375,-0.5 v -1.984375 c 0,-0.421875 0,-0.8125 -0.359375,-1.1875 C 3.1875,-4.3125 2.6875,-4.46875 2.21875,-4.46875 c -0.828125,0 -1.515625,0.46875 -1.515625,1.125 0,0.296875 0.203125,0.46875 0.46875,0.46875 0.28125,0 0.453125,-0.203125 0.453125,-0.453125 0,-0.125 -0.046875,-0.453125 -0.515625,-0.453125 C 1.390625,-4.140625 1.875,-4.25 2.1875,-4.25 c 0.5,0 1.0625,0.390625 1.0625,1.28125 v 0.359375 c -0.515625,0.03125 -1.203125,0.0625 -1.828125,0.359375 -0.75,0.34375 -1,0.859375 -1,1.296875 0,0.8125 0.96875,1.0625 1.59375,1.0625 0.65625,0 1.109375,-0.40625 1.296875,-0.859375 z M 3.25,-2.390625 v 1 c 0,0.9375 -0.71875,1.28125 -1.171875,1.28125 -0.484375,0 -0.890625,-0.34375 -0.890625,-0.84375 0,-0.546875 0.421875,-1.375 2.0625,-1.4375 z m 0,0"
             id="id-3d467500-28fd-467d-a61d-ef53c67185bf" />
        </g>
        <g
           transform="translate(160.888,134.765)"
           id="g1714">
          <path
             style="stroke:none"
             d="m 1.71875,-3.75 v -0.65625 l -1.4375,0.109375 v 0.3125 c 0.703125,0 0.78125,0.0625 0.78125,0.5 v 4.65625 C 1.0625,1.625 0.953125,1.625 0.28125,1.625 V 1.9375 C 0.625,1.921875 1.140625,1.90625 1.390625,1.90625 c 0.28125,0 0.78125,0.015625 1.125,0.03125 V 1.625 C 1.859375,1.625 1.75,1.625 1.75,1.171875 V -0.59375 c 0.046875,0.171875 0.46875,0.703125 1.21875,0.703125 1.1875,0 2.21875,-0.984375 2.21875,-2.265625 0,-1.265625 -0.953125,-2.25 -2.078125,-2.25 -0.78125,0 -1.203125,0.4375 -1.390625,0.65625 z M 1.75,-1.140625 v -2.21875 C 2.03125,-3.875 2.515625,-4.15625 3.03125,-4.15625 c 0.734375,0 1.328125,0.875 1.328125,2 0,1.203125 -0.6875,2.046875 -1.421875,2.046875 -0.40625,0 -0.78125,-0.203125 -1.046875,-0.609375 C 1.75,-0.921875 1.75,-0.9375 1.75,-1.140625 Z m 0,0"
             id="id-a20ec1ab-7d91-4e07-bbf4-f06baf845d92" />
        </g>
        <g
           transform="translate(166.424,134.765)"
           id="g1717">
          <path
             style="stroke:none"
             d="m 3.3125,-0.75 c 0.046875,0.390625 0.3125,0.8125 0.78125,0.8125 0.21875,0 0.828125,-0.140625 0.828125,-0.953125 v -0.5625 h -0.25 v 0.5625 c 0,0.578125 -0.25,0.640625 -0.359375,0.640625 -0.328125,0 -0.375,-0.453125 -0.375,-0.5 v -1.984375 c 0,-0.421875 0,-0.8125 -0.359375,-1.1875 C 3.1875,-4.3125 2.6875,-4.46875 2.21875,-4.46875 c -0.828125,0 -1.515625,0.46875 -1.515625,1.125 0,0.296875 0.203125,0.46875 0.46875,0.46875 0.28125,0 0.453125,-0.203125 0.453125,-0.453125 0,-0.125 -0.046875,-0.453125 -0.515625,-0.453125 C 1.390625,-4.140625 1.875,-4.25 2.1875,-4.25 c 0.5,0 1.0625,0.390625 1.0625,1.28125 v 0.359375 c -0.515625,0.03125 -1.203125,0.0625 -1.828125,0.359375 -0.75,0.34375 -1,0.859375 -1,1.296875 0,0.8125 0.96875,1.0625 1.59375,1.0625 0.65625,0 1.109375,-0.40625 1.296875,-0.859375 z M 3.25,-2.390625 v 1 c 0,0.9375 -0.71875,1.28125 -1.171875,1.28125 -0.484375,0 -0.890625,-0.34375 -0.890625,-0.84375 0,-0.546875 0.421875,-1.375 2.0625,-1.4375 z m 0,0"
             id="id-cf4e42de-c990-429f-8e87-c05483edd01d" />
        </g>
      </g>
      <g
         style="fill:#000000;fill-opacity:1"
         id="id-a6692bac-c4dd-41a4-b742-af0c2f37e0cc">
        <g
           transform="translate(174.722,134.765)"
           id="g1721">
          <path
             style="stroke:none"
             d="m 3.78125,-0.546875 v 0.65625 L 5.25,0 v -0.3125 c -0.6875,0 -0.78125,-0.0625 -0.78125,-0.5625 V -6.921875 L 3.046875,-6.8125 V -6.5 c 0.6875,0 0.765625,0.0625 0.765625,0.5625 v 2.15625 c -0.28125,-0.359375 -0.71875,-0.625 -1.25,-0.625 -1.171875,0 -2.21875,0.984375 -2.21875,2.265625 0,1.265625 0.96875,2.25 2.109375,2.25 0.640625,0 1.078125,-0.34375 1.328125,-0.65625 z m 0,-2.671875 v 2.046875 c 0,0.171875 0,0.1875 -0.109375,0.359375 C 3.375,-0.328125 2.9375,-0.109375 2.5,-0.109375 2.046875,-0.109375 1.6875,-0.375 1.453125,-0.75 1.203125,-1.15625 1.171875,-1.71875 1.171875,-2.140625 1.171875,-2.5 1.1875,-3.09375 1.46875,-3.546875 1.6875,-3.859375 2.0625,-4.1875 2.609375,-4.1875 c 0.34375,0 0.765625,0.15625 1.0625,0.59375 0.109375,0.171875 0.109375,0.1875 0.109375,0.375 z m 0,0"
             id="id-96bfe07d-e212-4865-9408-d4a209107d09" />
        </g>
        <g
           transform="translate(180.258,134.765)"
           id="g1724">
          <path
             style="stroke:none"
             d="M 1.109375,-2.515625 C 1.171875,-4 2.015625,-4.25 2.359375,-4.25 c 1.015625,0 1.125,1.34375 1.125,1.734375 z m 0,0.21875 h 2.78125 c 0.21875,0 0.25,0 0.25,-0.21875 0,-0.984375 -0.546875,-1.953125 -1.78125,-1.953125 -1.15625,0 -2.078125,1.03125 -2.078125,2.28125 0,1.328125 1.046875,2.296875 2.1875,2.296875 C 3.6875,0.109375 4.140625,-1 4.140625,-1.1875 4.140625,-1.28125 4.0625,-1.3125 4,-1.3125 c -0.078125,0 -0.109375,0.0625 -0.125,0.140625 -0.34375,1.03125 -1.25,1.03125 -1.34375,1.03125 -0.5,0 -0.890625,-0.296875 -1.125,-0.671875 -0.296875,-0.46875 -0.296875,-1.125 -0.296875,-1.484375 z m 0,0"
             id="id-001d0c46-95f9-470e-9215-cb4126c28322" />
        </g>
      </g>
      <g
         style="fill:#000000;fill-opacity:1"
         id="id-23717b71-9c9d-4f48-8091-a44b017a08e0">
        <g
           transform="translate(188.012,134.765)"
           id="g1728">
          <path
             style="stroke:none"
             d="m 2.078125,-1.9375 c 0.21875,0.046875 1.03125,0.203125 1.03125,0.921875 0,0.5 -0.34375,0.90625 -1.125,0.90625 -0.84375,0 -1.203125,-0.5625 -1.390625,-1.421875 C 0.5625,-1.65625 0.5625,-1.6875 0.453125,-1.6875 c -0.125,0 -0.125,0.0625 -0.125,0.234375 V -0.125 c 0,0.171875 0,0.234375 0.109375,0.234375 0.046875,0 0.0625,-0.015625 0.25,-0.203125 0.015625,-0.015625 0.015625,-0.03125 0.203125,-0.21875 0.4375,0.40625 0.890625,0.421875 1.09375,0.421875 1.140625,0 1.609375,-0.671875 1.609375,-1.390625 0,-0.515625 -0.296875,-0.828125 -0.421875,-0.9375 C 2.84375,-2.546875 2.453125,-2.625 2.03125,-2.703125 1.46875,-2.8125 0.8125,-2.9375 0.8125,-3.515625 c 0,-0.359375 0.25,-0.765625 1.109375,-0.765625 1.09375,0 1.15625,0.90625 1.171875,1.203125 0,0.09375 0.09375,0.09375 0.109375,0.09375 0.140625,0 0.140625,-0.046875 0.140625,-0.234375 v -1.015625 c 0,-0.15625 0,-0.234375 -0.109375,-0.234375 -0.046875,0 -0.078125,0 -0.203125,0.125 -0.03125,0.03125 -0.125,0.125 -0.171875,0.15625 -0.375,-0.28125 -0.78125,-0.28125 -0.9375,-0.28125 -1.21875,0 -1.59375,0.671875 -1.59375,1.234375 0,0.34375 0.15625,0.625 0.421875,0.84375 0.328125,0.25 0.609375,0.3125 1.328125,0.453125 z m 0,0"
             id="id-2b0b6e7c-5ba2-49f6-ab0c-3a0969ffd97d" />
        </g>
        <g
           transform="translate(191.942,134.765)"
           id="g1731">
          <path
             style="stroke:none"
             d="m 3.3125,-0.75 c 0.046875,0.390625 0.3125,0.8125 0.78125,0.8125 0.21875,0 0.828125,-0.140625 0.828125,-0.953125 v -0.5625 h -0.25 v 0.5625 c 0,0.578125 -0.25,0.640625 -0.359375,0.640625 -0.328125,0 -0.375,-0.453125 -0.375,-0.5 v -1.984375 c 0,-0.421875 0,-0.8125 -0.359375,-1.1875 C 3.1875,-4.3125 2.6875,-4.46875 2.21875,-4.46875 c -0.828125,0 -1.515625,0.46875 -1.515625,1.125 0,0.296875 0.203125,0.46875 0.46875,0.46875 0.28125,0 0.453125,-0.203125 0.453125,-0.453125 0,-0.125 -0.046875,-0.453125 -0.515625,-0.453125 C 1.390625,-4.140625 1.875,-4.25 2.1875,-4.25 c 0.5,0 1.0625,0.390625 1.0625,1.28125 v 0.359375 c -0.515625,0.03125 -1.203125,0.0625 -1.828125,0.359375 -0.75,0.34375 -1,0.859375 -1,1.296875 0,0.8125 0.96875,1.0625 1.59375,1.0625 0.65625,0 1.109375,-0.40625 1.296875,-0.859375 z M 3.25,-2.390625 v 1 c 0,0.9375 -0.71875,1.28125 -1.171875,1.28125 -0.484375,0 -0.890625,-0.34375 -0.890625,-0.84375 0,-0.546875 0.421875,-1.375 2.0625,-1.4375 z m 0,0"
             id="id-90370400-88e5-428c-9f76-91198f97baa1" />
        </g>
        <g
           transform="translate(196.923,134.765)"
           id="g1734">
          <path
             style="stroke:none"
             d="M 1.765625,-6.921875 0.328125,-6.8125 V -6.5 c 0.703125,0 0.78125,0.0625 0.78125,0.5625 V -0.75 c 0,0.4375 -0.109375,0.4375 -0.78125,0.4375 V 0 C 0.65625,-0.015625 1.1875,-0.03125 1.4375,-0.03125 c 0.25,0 0.734375,0.015625 1.109375,0.03125 v -0.3125 c -0.671875,0 -0.78125,0 -0.78125,-0.4375 z m 0,0"
             id="id-45e80b97-5d0f-44c6-a90b-8f85f0b0674b" />
        </g>
        <g
           transform="translate(199.691,134.765)"
           id="g1737">
          <path
             style="stroke:none"
             d="M 1.765625,-4.40625 0.375,-4.296875 v 0.3125 c 0.640625,0 0.734375,0.0625 0.734375,0.546875 V -0.75 c 0,0.4375 -0.109375,0.4375 -0.78125,0.4375 V 0 C 0.640625,-0.015625 1.1875,-0.03125 1.421875,-0.03125 1.78125,-0.03125 2.125,-0.015625 2.46875,0 v -0.3125 c -0.671875,0 -0.703125,-0.046875 -0.703125,-0.4375 z m 0.03125,-1.734375 c 0,-0.3125 -0.234375,-0.53125 -0.515625,-0.53125 -0.3125,0 -0.53125,0.265625 -0.53125,0.53125 0,0.265625 0.21875,0.53125 0.53125,0.53125 0.28125,0 0.515625,-0.21875 0.515625,-0.53125 z m 0,0"
             id="id-c7825316-8dae-4f74-affc-39b751f2f881" />
        </g>
        <g
           transform="translate(202.458,134.765)"
           id="g1740">
          <path
             style="stroke:none"
             d="m 3.78125,-0.546875 v 0.65625 L 5.25,0 v -0.3125 c -0.6875,0 -0.78125,-0.0625 -0.78125,-0.5625 V -6.921875 L 3.046875,-6.8125 V -6.5 c 0.6875,0 0.765625,0.0625 0.765625,0.5625 v 2.15625 c -0.28125,-0.359375 -0.71875,-0.625 -1.25,-0.625 -1.171875,0 -2.21875,0.984375 -2.21875,2.265625 0,1.265625 0.96875,2.25 2.109375,2.25 0.640625,0 1.078125,-0.34375 1.328125,-0.65625 z m 0,-2.671875 v 2.046875 c 0,0.171875 0,0.1875 -0.109375,0.359375 C 3.375,-0.328125 2.9375,-0.109375 2.5,-0.109375 2.046875,-0.109375 1.6875,-0.375 1.453125,-0.75 1.203125,-1.15625 1.171875,-1.71875 1.171875,-2.140625 1.171875,-2.5 1.1875,-3.09375 1.46875,-3.546875 1.6875,-3.859375 2.0625,-4.1875 2.609375,-4.1875 c 0.34375,0 0.765625,0.15625 1.0625,0.59375 0.109375,0.171875 0.109375,0.1875 0.109375,0.375 z m 0,0"
             id="id-fd6ddf2a-b79a-4646-b83a-15a88701dd7c" />
        </g>
        <g
           transform="translate(207.993,134.765)"
           id="g1743">
          <path
             style="stroke:none"
             d="m 3.3125,-0.75 c 0.046875,0.390625 0.3125,0.8125 0.78125,0.8125 0.21875,0 0.828125,-0.140625 0.828125,-0.953125 v -0.5625 h -0.25 v 0.5625 c 0,0.578125 -0.25,0.640625 -0.359375,0.640625 -0.328125,0 -0.375,-0.453125 -0.375,-0.5 v -1.984375 c 0,-0.421875 0,-0.8125 -0.359375,-1.1875 C 3.1875,-4.3125 2.6875,-4.46875 2.21875,-4.46875 c -0.828125,0 -1.515625,0.46875 -1.515625,1.125 0,0.296875 0.203125,0.46875 0.46875,0.46875 0.28125,0 0.453125,-0.203125 0.453125,-0.453125 0,-0.125 -0.046875,-0.453125 -0.515625,-0.453125 C 1.390625,-4.140625 1.875,-4.25 2.1875,-4.25 c 0.5,0 1.0625,0.390625 1.0625,1.28125 v 0.359375 c -0.515625,0.03125 -1.203125,0.0625 -1.828125,0.359375 -0.75,0.34375 -1,0.859375 -1,1.296875 0,0.8125 0.96875,1.0625 1.59375,1.0625 0.65625,0 1.109375,-0.40625 1.296875,-0.859375 z M 3.25,-2.390625 v 1 c 0,0.9375 -0.71875,1.28125 -1.171875,1.28125 -0.484375,0 -0.890625,-0.34375 -0.890625,-0.84375 0,-0.546875 0.421875,-1.375 2.0625,-1.4375 z m 0,0"
             id="id-37c4dbc5-a99e-4429-bdb3-e6a061a30ada" />
        </g>
      </g>
      <g
         style="fill:#000000;fill-opacity:1"
         id="id-fe4e133a-0ea4-471e-8728-9d3bdef43f4e">
        <g
           transform="translate(216.292,134.765)"
           id="g1747">
          <path
             style="stroke:none"
             d="m 5.46875,-2.296875 c 0.15625,0 0.34375,0 0.34375,-0.203125 0,-0.1875 -0.1875,-0.1875 -0.34375,-0.1875 H 1.234375 C 1.359375,-4.03125 2.5,-4.984375 3.90625,-4.984375 h 1.5625 c 0.15625,0 0.34375,0 0.34375,-0.203125 0,-0.203125 -0.1875,-0.203125 -0.34375,-0.203125 H 3.890625 c -1.703125,0 -3.0625,1.296875 -3.0625,2.890625 0,1.609375 1.359375,2.90625 3.0625,2.90625 H 5.46875 c 0.15625,0 0.34375,0 0.34375,-0.203125 C 5.8125,0 5.625,0 5.46875,0 H 3.90625 C 2.5,0 1.359375,-0.953125 1.234375,-2.296875 Z m 0,0"
             id="id-03842a90-5fa7-4b5e-a156-6bb3d789952e" />
        </g>
      </g>
      <g
         style="fill:#000000;fill-opacity:1"
         id="id-4a3553c6-df10-4371-8961-4bac4dd38442">
        <g
           transform="translate(225.701,134.765)"
           id="g1751">
          <path
             style="stroke:none"
             d="M 2.671875,-3.125 H 3.03125 l 1.5,2.3125 C 4.625,-0.65625 4.859375,-0.265625 4.96875,-0.125 5.046875,0 5.078125,0 5.296875,0 h 1.375 c 0.1875,0 0.34375,0 0.34375,-0.171875 0,-0.09375 -0.0625,-0.15625 -0.15625,-0.171875 C 6.484375,-0.421875 6,-1.09375 5.765625,-1.40625 5.6875,-1.5 5.1875,-2.15625 4.53125,-3.234375 5.40625,-3.40625 6.265625,-3.78125 6.265625,-4.96875 6.265625,-6.34375 4.8125,-6.828125 3.625,-6.828125 H 0.5 c -0.1875,0 -0.34375,0 -0.34375,0.171875 0,0.171875 0.1875,0.171875 0.265625,0.171875 0.578125,0 0.625,0.078125 0.625,0.578125 v 4.984375 c 0,0.5 -0.046875,0.578125 -0.625,0.578125 -0.078125,0 -0.265625,0 -0.265625,0.171875 C 0.15625,0 0.3125,0 0.5,0 H 3.234375 C 3.40625,0 3.5625,0 3.5625,-0.171875 c 0,-0.171875 -0.171875,-0.171875 -0.28125,-0.171875 -0.5625,0 -0.609375,-0.078125 -0.609375,-0.578125 z m 1.921875,-0.5 c 0.28125,-0.359375 0.3125,-0.890625 0.3125,-1.328125 0,-0.484375 -0.0625,-1.015625 -0.375,-1.421875 0.40625,0.09375 1.390625,0.40625 1.390625,1.40625 0,0.65625 -0.296875,1.15625 -1.328125,1.34375 z M 2.671875,-5.9375 c 0,-0.21875 0,-0.546875 0.625,-0.546875 0.84375,0 1.265625,0.359375 1.265625,1.53125 0,1.28125 -0.3125,1.46875 -1.890625,1.46875 z M 1.3125,-0.34375 C 1.390625,-0.53125 1.390625,-0.8125 1.390625,-0.890625 V -5.9375 c 0,-0.09375 0,-0.359375 -0.078125,-0.546875 h 1.140625 c -0.125,0.171875 -0.125,0.359375 -0.125,0.515625 v 5.078125 c 0,0.09375 0,0.359375 0.078125,0.546875 z M 3.4375,-3.125 c 0.078125,-0.015625 0.109375,-0.03125 0.1875,-0.03125 0.15625,0 0.375,-0.015625 0.515625,-0.03125 0.15625,0.234375 1.234375,2.015625 2.0625,2.84375 h -0.96875 z m 0,0"
             id="id-9dd5a115-e8e4-4771-9024-9ed96ebb14dd" />
        </g>
      </g>
      <g
         style="fill:#000000;fill-opacity:1"
         id="id-6bcec6de-50f2-48ee-bcc2-1676aaecfe90">
        <g
           transform="translate(232.897,131.149)"
           id="g1755">
          <path
             style="stroke:none"
             d="M 3.984375,-4.625 C 3.984375,-4.640625 4,-4.734375 4,-4.734375 4,-4.78125 3.984375,-4.84375 3.890625,-4.84375 3.75,-4.84375 3.171875,-4.78125 3,-4.765625 c -0.046875,0 -0.15625,0.015625 -0.15625,0.15625 0,0.09375 0.109375,0.09375 0.1875,0.09375 0.328125,0 0.328125,0.0625 0.328125,0.109375 0,0.046875 0,0.09375 -0.015625,0.15625 L 2.9375,-2.65625 c -0.140625,-0.234375 -0.375,-0.421875 -0.71875,-0.421875 -0.890625,0 -1.796875,0.984375 -1.796875,1.984375 0,0.6875 0.453125,1.15625 1.0625,1.15625 0.375,0 0.703125,-0.203125 0.984375,-0.484375 C 2.59375,0 3,0.0625 3.1875,0.0625 c 0.25,0 0.421875,-0.140625 0.546875,-0.359375 0.15625,-0.28125 0.25,-0.671875 0.25,-0.703125 0,-0.09375 -0.09375,-0.09375 -0.109375,-0.09375 -0.109375,0 -0.109375,0.03125 -0.15625,0.21875 C 3.625,-0.53125 3.5,-0.125 3.203125,-0.125 3.03125,-0.125 2.96875,-0.28125 2.96875,-0.46875 c 0,-0.125 0.015625,-0.1875 0.046875,-0.28125 z M 2.5,-0.875 C 2.453125,-0.671875 2.296875,-0.53125 2.140625,-0.40625 2.078125,-0.34375 1.796875,-0.125 1.5,-0.125 c -0.265625,0 -0.515625,-0.1875 -0.515625,-0.671875 0,-0.375 0.203125,-1.140625 0.375,-1.421875 0.3125,-0.5625 0.671875,-0.65625 0.859375,-0.65625 0.484375,0 0.625,0.53125 0.625,0.609375 0,0.015625 -0.015625,0.078125 -0.015625,0.09375 z m 0,0"
             id="id-cda871a4-c4ed-41d0-a20f-3b4b5734b975" />
        </g>
      </g>
      <g
         style="fill:#000000;fill-opacity:1"
         id="id-6a403ec9-f942-40e4-829f-0cc5bcc8ca11">
        <g
           transform="translate(237.044,132.146)"
           id="g1759">
          <path
             style="stroke:none"
             d="M 2.9375,-0.96875 H 2.71875 c 0,0.09375 -0.0625,0.40625 -0.140625,0.453125 -0.03125,0.03125 -0.453125,0.03125 -0.53125,0.03125 H 1.078125 C 1.40625,-0.71875 1.765625,-1 2.0625,-1.203125 c 0.453125,-0.3125 0.875,-0.59375 0.875,-1.125 0,-0.640625 -0.609375,-0.984375 -1.3125,-0.984375 -0.671875,0 -1.171875,0.375 -1.171875,0.875 0,0.25 0.21875,0.296875 0.296875,0.296875 0.125,0 0.28125,-0.09375 0.28125,-0.296875 0,-0.171875 -0.125,-0.28125 -0.28125,-0.28125 0.140625,-0.234375 0.4375,-0.375 0.765625,-0.375 0.484375,0 0.890625,0.28125 0.890625,0.765625 0,0.421875 -0.296875,0.75 -0.671875,1.0625 l -1.21875,1.03125 C 0.46875,-0.1875 0.453125,-0.1875 0.453125,-0.15625 V 0 h 2.3125 z m 0,0"
             id="id-b5080e56-fa79-4829-85c9-22d5ba5e3e32" />
        </g>
      </g>
    </g>
  </g>
</svg>
