<?xml version="1.0" encoding="UTF-8" standalone="no"?>
<svg
   xmlns:ns6="http://www.iki.fi/pav/software/textext/"
   xmlns:dc="http://purl.org/dc/elements/1.1/"
   xmlns:cc="http://creativecommons.org/ns#"
   xmlns:rdf="http://www.w3.org/1999/02/22-rdf-syntax-ns#"
   xmlns:svg="http://www.w3.org/2000/svg"
   xmlns="http://www.w3.org/2000/svg"
   xmlns:sodipodi="http://sodipodi.sourceforge.net/DTD/sodipodi-0.dtd"
   xmlns:inkscape="http://www.inkscape.org/namespaces/inkscape"
   width="204.49792mm"
   height="206.47803mm"
   viewBox="0 0 204.49792 206.47803"
   version="1.1"
   id="svg8"
   sodipodi:docname="svm.svg"
   inkscape:version="1.0.1 (3bc2e813f5, 2020-09-07)">
  <defs
     id="defs2">
    <marker
       style="overflow:visible"
       id="marker2384"
       refX="0"
       refY="0"
       orient="auto"
       inkscape:stockid="Arrow2Send"
       inkscape:isstock="true">
      <path
         transform="matrix(-0.3,0,0,-0.3,0.69,0)"
         d="M 8.7185878,4.0337352 -2.2072895,0.01601326 8.7185884,-4.0017078 c -1.7454984,2.3720609 -1.7354408,5.6174519 -6e-7,8.035443 z"
         style="fill:#000000;fill-opacity:1;fill-rule:evenodd;stroke:#000000;stroke-width:0.625;stroke-linejoin:round;stroke-opacity:1"
         id="path2382" />
    </marker>
    <marker
       style="overflow:visible"
       id="Arrow2Send"
       refX="0"
       refY="0"
       orient="auto"
       inkscape:stockid="Arrow2Send"
       inkscape:isstock="true">
      <path
         transform="matrix(-0.3,0,0,-0.3,0.69,0)"
         d="M 8.7185878,4.0337352 -2.2072895,0.01601326 8.7185884,-4.0017078 c -1.7454984,2.3720609 -1.7354408,5.6174519 -6e-7,8.035443 z"
         style="fill:#000000;fill-opacity:1;fill-rule:evenodd;stroke:#000000;stroke-width:0.625;stroke-linejoin:round;stroke-opacity:1"
         id="path2053" />
    </marker>
    <marker
       style="overflow:visible"
       id="marker2318"
       refX="0"
       refY="0"
       orient="auto"
       inkscape:stockid="Arrow2Mend"
       inkscape:isstock="true">
      <path
         transform="scale(-0.6)"
         d="M 8.7185878,4.0337352 -2.2072895,0.01601326 8.7185884,-4.0017078 c -1.7454984,2.3720609 -1.7354408,5.6174519 -6e-7,8.035443 z"
         style="fill:#ff0000;fill-opacity:1;fill-rule:evenodd;stroke:#000000;stroke-width:0.625;stroke-linejoin:round;stroke-opacity:1"
         id="path2316" />
    </marker>
    <marker
       style="overflow:visible"
       id="Arrow2Mend"
       refX="0"
       refY="0"
       orient="auto"
       inkscape:stockid="Arrow2Mend"
       inkscape:isstock="true">
      <path
         transform="scale(-0.6)"
         d="M 8.7185878,4.0337352 -2.2072895,0.01601326 8.7185884,-4.0017078 c -1.7454984,2.3720609 -1.7354408,5.6174519 -6e-7,8.035443 z"
         style="fill:#ff0000;fill-opacity:1;fill-rule:evenodd;stroke:#000000;stroke-width:0.625;stroke-linejoin:round;stroke-opacity:1"
         id="path2047" />
    </marker>
    <marker
       style="overflow:visible"
       id="Arrow1Lend"
       refX="0"
       refY="0"
       orient="auto"
       inkscape:stockid="Arrow1Lend"
       inkscape:isstock="true">
      <path
         transform="matrix(-0.8,0,0,-0.8,-10,0)"
         style="fill:#ff0000;fill-opacity:1;fill-rule:evenodd;stroke:#000000;stroke-width:1pt;stroke-opacity:1"
         d="M 0,0 5,-5 -12.5,0 5,5 Z"
         id="path2023" />
    </marker>
  </defs>
  <sodipodi:namedview
     id="base"
     pagecolor="#ffffff"
     bordercolor="#666666"
     borderopacity="1.0"
     inkscape:pageopacity="0.0"
     inkscape:pageshadow="2"
     inkscape:zoom="0.40112457"
     inkscape:cx="364.45237"
     inkscape:cy="292.75023"
     inkscape:document-units="mm"
     inkscape:current-layer="layer1"
     inkscape:document-rotation="0"
     showgrid="false"
     inkscape:window-width="1366"
     inkscape:window-height="705"
     inkscape:window-x="-8"
     inkscape:window-y="-8"
     inkscape:window-maximized="1" />
  <metadata
     id="metadata5">
    <rdf:RDF>
      <cc:Work
         rdf:about="">
        <dc:format>image/svg+xml</dc:format>
        <dc:type
           rdf:resource="http://purl.org/dc/dcmitype/StillImage" />
        <dc:title></dc:title>
      </cc:Work>
    </rdf:RDF>
  </metadata>
  <g
     inkscape:label="Capa 1"
     inkscape:groupmode="layer"
     id="layer1"
     transform="translate(-35.798925,-9.755603)">
    <circle
       style="opacity:0.995891;fill:#ff0000;fill-opacity:1;stroke:#000000;stroke-width:0.450591;stroke-linecap:round"
       id="path833"
       cx="128.98265"
       cy="69.531471"
       r="4.7747045" />
    <circle
       style="opacity:0.995891;fill:#ff0000;fill-opacity:1;stroke:#000000;stroke-width:0.450591;stroke-linecap:round"
       id="circle835"
       cx="96.600464"
       cy="62.371029"
       r="4.7747045" />
    <circle
       style="opacity:0.995891;fill:#ff0000;fill-opacity:1;stroke:#000000;stroke-width:0.450591;stroke-linecap:round"
       id="circle837"
       cx="143.39925"
       cy="23.793659"
       r="4.7747045" />
    <circle
       style="opacity:0.995891;fill:#ff0000;fill-opacity:1;stroke:#000000;stroke-width:0.450591;stroke-linecap:round"
       id="circle839"
       cx="99.76255"
       cy="80.078682"
       r="4.7747045" />
    <circle
       style="opacity:0.995891;fill:#ff0000;fill-opacity:1;stroke:#000000;stroke-width:0.450591;stroke-linecap:round"
       id="circle841"
       cx="132.64819"
       cy="52.252377"
       r="4.7747045" />
    <circle
       style="opacity:0.995891;fill:#ff0000;fill-opacity:1;stroke:#000000;stroke-width:0.450591;stroke-linecap:round"
       id="circle843"
       cx="90.908737"
       cy="45.928219"
       r="4.7747045" />
    <circle
       style="opacity:0.995891;fill:#ff0000;fill-opacity:1;stroke:#000000;stroke-width:0.450591;stroke-linecap:round"
       id="circle845"
       cx="112.41087"
       cy="34.544731"
       r="4.7747045" />
    <circle
       style="opacity:0.995891;fill:#ff0000;fill-opacity:1;stroke:#000000;stroke-width:0.450591;stroke-linecap:round"
       id="circle847"
       cx="97.02462"
       cy="101.52235"
       r="4.7747045" />
    <circle
       style="opacity:0.995891;fill:#00ffff;fill-opacity:1;stroke:#000000;stroke-width:0.450591;stroke-linecap:round"
       id="circle849"
       cx="182.72462"
       cy="201.6757"
       r="4.7747045"
       transform="rotate(-9.3754517)" />
    <circle
       style="opacity:0.995891;fill:#00ffff;fill-opacity:1;stroke:#000000;stroke-width:0.450591;stroke-linecap:round"
       id="circle851"
       cx="147.16158"
       cy="156.70897"
       r="4.7747045"
       transform="rotate(-9.3754517)" />
    <circle
       style="opacity:0.995891;fill:#00ffff;fill-opacity:1;stroke:#000000;stroke-width:0.450591;stroke-linecap:round"
       id="circle853"
       cx="197.13268"
       cy="153.2682"
       r="4.7747045"
       transform="rotate(-9.3754517)" />
    <circle
       style="opacity:0.995891;fill:#00ffff;fill-opacity:1;stroke:#000000;stroke-width:0.450591;stroke-linecap:round"
       id="circle855"
       cx="153.496"
       cy="209.55321"
       r="4.7747045"
       transform="rotate(-9.3754517)" />
    <circle
       style="opacity:0.995891;fill:#00ffff;fill-opacity:1;stroke:#000000;stroke-width:0.450591;stroke-linecap:round"
       id="circle857"
       cx="186.38164"
       cy="181.72691"
       r="4.7747045"
       transform="rotate(-9.3754517)" />
    <circle
       style="opacity:0.995891;fill:#00ffff;fill-opacity:1;stroke:#000000;stroke-width:0.450591;stroke-linecap:round"
       id="circle859"
       cx="144.64218"
       cy="175.40276"
       r="4.7747045"
       transform="rotate(-9.3754517)" />
    <circle
       style="opacity:0.995891;fill:#00ffff;fill-opacity:1;stroke:#000000;stroke-width:0.450591;stroke-linecap:round"
       id="circle861"
       cx="166.14432"
       cy="164.01927"
       r="4.7747045"
       transform="rotate(-9.3754517)" />
    <circle
       style="opacity:0.995891;fill:#00ffff;fill-opacity:1;stroke:#000000;stroke-width:0.450591;stroke-linecap:round"
       id="circle863"
       cx="125.6697"
       cy="207.02354"
       r="4.7747045"
       transform="rotate(-9.3754517)" />
    <path
       style="fill:#ff0000;stroke:#ff0000;stroke-width:0.827319px;stroke-linecap:butt;stroke-linejoin:miter;stroke-opacity:1"
       d="M 37.698556,212.35439 237.11355,12.938899"
       id="path867" />
    <path
       style="fill:#000000;fill-opacity:1;stroke:#000000;stroke-width:1;stroke-linecap:butt;stroke-linejoin:miter;stroke-miterlimit:4;stroke-dasharray:none;stroke-opacity:1"
       d="M 37.625115,162.42783 186.97135,13.081222"
       id="path873" />
    <rect
       style="opacity:0.995891;fill:#ffffff;fill-opacity:1;stroke:none;stroke-width:2.31044;stroke-linecap:round;stroke-miterlimit:4;stroke-dasharray:none;stroke-dashoffset:0;stroke-opacity:1"
       id="rect1057"
       width="92.061684"
       height="49.273209"
       x="130.64069"
       y="-172.92937"
       ry="3.7270575"
       transform="rotate(45)" />
    <path
       style="fill:#000000;fill-opacity:1;stroke:#000000;stroke-width:1;stroke-linecap:butt;stroke-linejoin:miter;stroke-miterlimit:4;stroke-dasharray:none;stroke-opacity:1"
       d="M 86.370499,213.68233 237.18484,62.867612"
       id="path875" />
    <path
       style="fill:#000000;fill-opacity:1;stroke:#000000;stroke-width:1.99928;stroke-linecap:butt;stroke-linejoin:miter;stroke-miterlimit:4;stroke-dasharray:none;stroke-opacity:1;marker-end:url(#marker2384)"
       d="m 38.406416,212.6464 -7.22e-4,-200"
       id="path877" />
    <path
       style="fill:#000000;fill-opacity:1;stroke:#000000;stroke-width:1.99928;stroke-linecap:butt;stroke-linejoin:miter;stroke-miterlimit:4;stroke-dasharray:none;stroke-opacity:1;marker-end:url(#Arrow2Send)"
       d="m 37.406059,213.64676 200.000001,-7.2e-4"
       id="path881" />
    <g
       transform="matrix(0.58007972,-0.5831342,0.58007972,0.5831342,176.7571,62.030748)"
       ns6:version="1.3.0"
       ns6:texconverter="pdflatex"
       ns6:pdfconverter="inkscape"
       ns6:text="$\\textcolor{red}{\\mathbf{wx}-b = 0}$"
       ns6:preamble="C:\Users\NARUTO\AppData\Roaming\inkscape\extensions\textext\default_packages.tex"
       ns6:scale="0.7483088957722395"
       ns6:alignment="middle center"
       ns6:jacobian_sqrt="0.263987"
       id="g953">
      <defs
         id="id-c54cb40d-d459-462c-ab0b-b2c7e8c95254">
        <g
           id="id-df094e72-de35-42f7-9f6f-db0ecd36dfa6">
          <symbol
             overflow="visible"
             id="id-8dc39bf2-a5db-4a2f-91d9-0880cc1ec1a6">
            <path
               style="stroke:none;stroke-width:0"
               d=""
               id="id-c9f83c48-93eb-4682-aec1-de6093e2aa2c" />
          </symbol>
          <symbol
             overflow="visible"
             id="id-a8c0367d-4ad2-4dcb-afd6-0880b2066400">
            <path
               style="stroke:none;stroke-width:0"
               d="m 7.34375,-3.75 c 0.046875,-0.125 0.09375,-0.203125 0.6875,-0.203125 v -0.46875 C 7.796875,-4.40625 7.5,-4.390625 7.25,-4.390625 c -0.265625,0 -0.734375,-0.03125 -0.953125,-0.03125 v 0.46875 c 0.09375,0 0.578125,0 0.578125,0.109375 0,0.03125 -0.03125,0.09375 -0.03125,0.125 L 5.796875,-1.171875 4.65625,-3.953125 h 0.5625 v -0.46875 c -0.328125,0 -0.84375,0.03125 -1.140625,0.03125 -0.421875,0 -0.84375,-0.03125 -1,-0.03125 v 0.46875 h 0.59375 c 0.203125,0.5 0.203125,0.515625 0.203125,0.53125 0,0.03125 -0.03125,0.09375 -0.03125,0.125 L 3.046875,-1.390625 2,-3.953125 h 0.5625 v -0.46875 c -0.40625,0.015625 -0.8125,0.03125 -1.234375,0.03125 -0.296875,0 -0.734375,-0.03125 -1.078125,-0.03125 v 0.46875 h 0.59375 l 1.515625,3.71875 C 2.4375,-0.0625 2.46875,0.046875 2.71875,0.046875 c 0.25,0 0.296875,-0.109375 0.359375,-0.28125 L 4.140625,-2.8125 5.1875,-0.234375 c 0.078125,0.171875 0.109375,0.28125 0.359375,0.28125 0.25,0 0.296875,-0.109375 0.359375,-0.28125 z m 0,0"
               id="id-ff0daaec-ec9c-4830-932a-9b5218f54c0c" />
          </symbol>
          <symbol
             overflow="visible"
             id="id-ca0eb048-c6b6-495f-b00c-6c45c3a02dc6">
            <path
               style="stroke:none;stroke-width:0"
               d="M 3.453125,-2.453125 4.609375,-3.75 C 4.75,-3.890625 4.8125,-3.953125 5.625,-3.953125 v -0.46875 c -0.34375,0.015625 -0.859375,0.03125 -0.90625,0.03125 -0.25,0 -0.75,-0.03125 -1.03125,-0.03125 v 0.46875 c 0.140625,0 0.265625,0.015625 0.375,0.078125 -0.03125,0.0625 -0.03125,0.09375 -0.078125,0.125 L 3.15625,-2.8125 2.171875,-3.953125 h 0.40625 v -0.46875 c -0.265625,0 -0.890625,0.03125 -1.21875,0.03125 -0.3125,0 -0.765625,-0.03125 -1.09375,-0.03125 v 0.46875 h 0.71875 L 2.53125,-2.125 1.21875,-0.65625 c -0.15625,0.1875 -0.515625,0.1875 -1,0.1875 V 0 c 0.34375,-0.015625 0.875,-0.03125 0.921875,-0.03125 0.25,0 0.828125,0.015625 1.015625,0.03125 v -0.46875 c -0.171875,0 -0.359375,-0.046875 -0.359375,-0.109375 0,-0.015625 0,-0.015625 0.0625,-0.09375 l 0.96875,-1.09375 1.09375,1.296875 H 3.53125 V 0 c 0.265625,-0.015625 0.875,-0.03125 1.203125,-0.03125 0.3125,0 0.765625,0.015625 1.09375,0.03125 V -0.46875 H 5.125 Z m 0,0"
               id="id-0d1aa1ff-f51a-4b97-9342-7b5b9ac86d3d" />
          </symbol>
          <symbol
             overflow="visible"
             id="id-c0cbc605-c3f2-4e84-b42b-82741476928d">
            <path
               style="stroke:none;stroke-width:0"
               d=""
               id="id-f61596d3-8698-4221-96c1-53eebf0c6c22" />
          </symbol>
          <symbol
             overflow="visible"
             id="id-6f5209ff-7126-46d4-a548-c3dddd7faf46">
            <path
               style="stroke:none;stroke-width:0"
               d="m 6.5625,-2.296875 c 0.171875,0 0.359375,0 0.359375,-0.203125 0,-0.1875 -0.1875,-0.1875 -0.359375,-0.1875 H 1.171875 c -0.171875,0 -0.34375,0 -0.34375,0.1875 0,0.203125 0.171875,0.203125 0.34375,0.203125 z m 0,0"
               id="id-2a81e098-bd96-4b9c-b361-0eb69bf0c328" />
          </symbol>
          <symbol
             overflow="visible"
             id="id-2b31d799-7d91-4bef-a9f3-c9219726f884">
            <path
               style="stroke:none;stroke-width:0"
               d=""
               id="id-bfaa9839-7d71-4dc7-8a55-3ef71ecf1db3" />
          </symbol>
          <symbol
             overflow="visible"
             id="id-294b47b8-894b-43db-b8fc-db83547f008e">
            <path
               style="stroke:none;stroke-width:0"
               d="m 2.375,-6.8125 c 0,0 0,-0.109375 -0.125,-0.109375 -0.21875,0 -0.953125,0.078125 -1.21875,0.109375 -0.078125,0 -0.1875,0.015625 -0.1875,0.1875 0,0.125 0.09375,0.125 0.25,0.125 0.46875,0 0.484375,0.0625 0.484375,0.171875 0,0.0625 -0.078125,0.40625 -0.125,0.609375 l -0.828125,3.25 c -0.109375,0.5 -0.15625,0.671875 -0.15625,1.015625 0,0.9375 0.53125,1.5625 1.265625,1.5625 1.171875,0 2.40625,-1.484375 2.40625,-2.921875 0,-0.90625 -0.53125,-1.59375 -1.328125,-1.59375 -0.453125,0 -0.875,0.296875 -1.171875,0.59375 z M 1.453125,-3.046875 C 1.5,-3.265625 1.5,-3.28125 1.59375,-3.390625 2.078125,-4.03125 2.53125,-4.1875 2.796875,-4.1875 c 0.359375,0 0.625,0.296875 0.625,0.9375 0,0.59375 -0.328125,1.734375 -0.515625,2.109375 -0.328125,0.671875 -0.78125,1.03125 -1.171875,1.03125 -0.34375,0 -0.671875,-0.265625 -0.671875,-1 0,-0.203125 0,-0.390625 0.15625,-1.015625 z m 0,0"
               id="id-f2634875-1b20-4fb8-a0c3-3172fe88781b" />
          </symbol>
          <symbol
             overflow="visible"
             id="id-b263e084-6395-4ae6-8726-5e04c185c0d9">
            <path
               style="stroke:none;stroke-width:0"
               d=""
               id="id-433ea1e0-a286-4d5d-8737-a1e7ecf94d42" />
          </symbol>
          <symbol
             overflow="visible"
             id="id-72bee9b0-6eb6-4292-9069-31432a2674e1">
            <path
               style="stroke:none;stroke-width:0"
               d="m 6.84375,-3.265625 c 0.15625,0 0.34375,0 0.34375,-0.1875 C 7.1875,-3.65625 7,-3.65625 6.859375,-3.65625 h -5.96875 c -0.140625,0 -0.328125,0 -0.328125,0.203125 0,0.1875 0.1875,0.1875 0.328125,0.1875 z m 0.015625,1.9375 c 0.140625,0 0.328125,0 0.328125,-0.203125 0,-0.1875 -0.1875,-0.1875 -0.34375,-0.1875 H 0.890625 c -0.140625,0 -0.328125,0 -0.328125,0.1875 0,0.203125 0.1875,0.203125 0.328125,0.203125 z m 0,0"
               id="id-90742e10-d330-465d-bf59-3c70605139de" />
          </symbol>
          <symbol
             overflow="visible"
             id="id-a852fae2-9c6d-46e5-9091-19f02fa81c58">
            <path
               style="stroke:none;stroke-width:0"
               d="m 4.578125,-3.1875 c 0,-0.796875 -0.046875,-1.59375 -0.390625,-2.328125 -0.453125,-0.96875 -1.28125,-1.125 -1.6875,-1.125 -0.609375,0 -1.328125,0.265625 -1.75,1.1875 -0.3125,0.6875 -0.359375,1.46875 -0.359375,2.265625 0,0.75 0.03125,1.640625 0.453125,2.40625 0.421875,0.796875 1.15625,1 1.640625,1 0.53125,0 1.296875,-0.203125 1.734375,-1.15625 0.3125,-0.6875 0.359375,-1.46875 0.359375,-2.25 z M 2.484375,0 C 2.09375,0 1.5,-0.25 1.328125,-1.203125 1.21875,-1.796875 1.21875,-2.71875 1.21875,-3.3125 c 0,-0.640625 0,-1.296875 0.078125,-1.828125 0.1875,-1.1875 0.9375,-1.28125 1.1875,-1.28125 0.328125,0 0.984375,0.1875 1.171875,1.171875 0.109375,0.5625 0.109375,1.3125 0.109375,1.9375 0,0.75 0,1.421875 -0.109375,2.0625 C 3.5,-0.296875 2.9375,0 2.484375,0 Z m 0,0"
               id="id-3066ba38-8d5d-4936-9094-1736fa49073b" />
          </symbol>
        </g>
      </defs>
      <g
         id="id-5ca03476-3f21-4095-b9ec-a9e3bb75a5c0"
         transform="translate(-148.962,-127.843)">
        <g
           style="fill:#ff0000;fill-opacity:1"
           id="id-c7f9b107-b08b-460a-ba04-5dc21db9caf7">
          <g
             transform="translate(148.712,134.765)"
             id="g930">
            <path
               style="stroke:none;stroke-width:0"
               d="m 7.34375,-3.75 c 0.046875,-0.125 0.09375,-0.203125 0.6875,-0.203125 v -0.46875 C 7.796875,-4.40625 7.5,-4.390625 7.25,-4.390625 c -0.265625,0 -0.734375,-0.03125 -0.953125,-0.03125 v 0.46875 c 0.09375,0 0.578125,0 0.578125,0.109375 0,0.03125 -0.03125,0.09375 -0.03125,0.125 L 5.796875,-1.171875 4.65625,-3.953125 h 0.5625 v -0.46875 c -0.328125,0 -0.84375,0.03125 -1.140625,0.03125 -0.421875,0 -0.84375,-0.03125 -1,-0.03125 v 0.46875 h 0.59375 c 0.203125,0.5 0.203125,0.515625 0.203125,0.53125 0,0.03125 -0.03125,0.09375 -0.03125,0.125 L 3.046875,-1.390625 2,-3.953125 h 0.5625 v -0.46875 c -0.40625,0.015625 -0.8125,0.03125 -1.234375,0.03125 -0.296875,0 -0.734375,-0.03125 -1.078125,-0.03125 v 0.46875 h 0.59375 l 1.515625,3.71875 C 2.4375,-0.0625 2.46875,0.046875 2.71875,0.046875 c 0.25,0 0.296875,-0.109375 0.359375,-0.28125 L 4.140625,-2.8125 5.1875,-0.234375 c 0.078125,0.171875 0.109375,0.28125 0.359375,0.28125 0.25,0 0.296875,-0.109375 0.359375,-0.28125 z m 0,0"
               id="id-293cde8e-9fb5-4d6f-afa3-e32c0c819e59" />
          </g>
          <g
             transform="translate(156.987,134.765)"
             id="g933">
            <path
               style="stroke:none;stroke-width:0"
               d="M 3.453125,-2.453125 4.609375,-3.75 C 4.75,-3.890625 4.8125,-3.953125 5.625,-3.953125 v -0.46875 c -0.34375,0.015625 -0.859375,0.03125 -0.90625,0.03125 -0.25,0 -0.75,-0.03125 -1.03125,-0.03125 v 0.46875 c 0.140625,0 0.265625,0.015625 0.375,0.078125 -0.03125,0.0625 -0.03125,0.09375 -0.078125,0.125 L 3.15625,-2.8125 2.171875,-3.953125 h 0.40625 v -0.46875 c -0.265625,0 -0.890625,0.03125 -1.21875,0.03125 -0.3125,0 -0.765625,-0.03125 -1.09375,-0.03125 v 0.46875 h 0.71875 L 2.53125,-2.125 1.21875,-0.65625 c -0.15625,0.1875 -0.515625,0.1875 -1,0.1875 V 0 c 0.34375,-0.015625 0.875,-0.03125 0.921875,-0.03125 0.25,0 0.828125,0.015625 1.015625,0.03125 v -0.46875 c -0.171875,0 -0.359375,-0.046875 -0.359375,-0.109375 0,-0.015625 0,-0.015625 0.0625,-0.09375 l 0.96875,-1.09375 1.09375,1.296875 H 3.53125 V 0 c 0.265625,-0.015625 0.875,-0.03125 1.203125,-0.03125 0.3125,0 0.765625,0.015625 1.09375,0.03125 V -0.46875 H 5.125 Z m 0,0"
               id="id-1f7ecaa3-e3cb-4110-85d4-f49ae96f24cf" />
          </g>
        </g>
        <g
           style="fill:#ff0000;fill-opacity:1"
           id="id-aefadff9-2e34-4f1b-914d-f6902b125acf">
          <g
             transform="translate(165.247,134.765)"
             id="g937">
            <path
               style="stroke:none;stroke-width:0"
               d="m 6.5625,-2.296875 c 0.171875,0 0.359375,0 0.359375,-0.203125 0,-0.1875 -0.1875,-0.1875 -0.359375,-0.1875 H 1.171875 c -0.171875,0 -0.34375,0 -0.34375,0.1875 0,0.203125 0.171875,0.203125 0.34375,0.203125 z m 0,0"
               id="id-a88b3464-700a-4132-826c-5a0d1cf16085" />
          </g>
        </g>
        <g
           style="fill:#ff0000;fill-opacity:1"
           id="id-4cd72de7-e806-42d9-a87f-78f45d6c221a">
          <g
             transform="translate(175.21,134.765)"
             id="g941">
            <path
               style="stroke:none;stroke-width:0"
               d="m 2.375,-6.8125 c 0,0 0,-0.109375 -0.125,-0.109375 -0.21875,0 -0.953125,0.078125 -1.21875,0.109375 -0.078125,0 -0.1875,0.015625 -0.1875,0.1875 0,0.125 0.09375,0.125 0.25,0.125 0.46875,0 0.484375,0.0625 0.484375,0.171875 0,0.0625 -0.078125,0.40625 -0.125,0.609375 l -0.828125,3.25 c -0.109375,0.5 -0.15625,0.671875 -0.15625,1.015625 0,0.9375 0.53125,1.5625 1.265625,1.5625 1.171875,0 2.40625,-1.484375 2.40625,-2.921875 0,-0.90625 -0.53125,-1.59375 -1.328125,-1.59375 -0.453125,0 -0.875,0.296875 -1.171875,0.59375 z M 1.453125,-3.046875 C 1.5,-3.265625 1.5,-3.28125 1.59375,-3.390625 2.078125,-4.03125 2.53125,-4.1875 2.796875,-4.1875 c 0.359375,0 0.625,0.296875 0.625,0.9375 0,0.59375 -0.328125,1.734375 -0.515625,2.109375 -0.328125,0.671875 -0.78125,1.03125 -1.171875,1.03125 -0.34375,0 -0.671875,-0.265625 -0.671875,-1 0,-0.203125 0,-0.390625 0.15625,-1.015625 z m 0,0"
               id="id-ed4b9abc-4d61-486f-9260-7d4bcb60586c" />
          </g>
        </g>
        <g
           style="fill:#ff0000;fill-opacity:1"
           id="id-71b192b9-a56e-4a97-a945-eba3e0508f37">
          <g
             transform="translate(182.253,134.765)"
             id="g945">
            <path
               style="stroke:none;stroke-width:0"
               d="m 6.84375,-3.265625 c 0.15625,0 0.34375,0 0.34375,-0.1875 C 7.1875,-3.65625 7,-3.65625 6.859375,-3.65625 h -5.96875 c -0.140625,0 -0.328125,0 -0.328125,0.203125 0,0.1875 0.1875,0.1875 0.328125,0.1875 z m 0.015625,1.9375 c 0.140625,0 0.328125,0 0.328125,-0.203125 0,-0.1875 -0.1875,-0.1875 -0.34375,-0.1875 H 0.890625 c -0.140625,0 -0.328125,0 -0.328125,0.1875 0,0.203125 0.1875,0.203125 0.328125,0.203125 z m 0,0"
               id="id-1d40fc26-1649-4802-ad96-4f88533fe68e" />
          </g>
        </g>
        <g
           style="fill:#ff0000;fill-opacity:1"
           id="id-b70e4d3d-37c0-4e3a-9ac5-878656a4e972">
          <g
             transform="translate(192.772,134.765)"
             id="g949">
            <path
               style="stroke:none;stroke-width:0"
               d="m 4.578125,-3.1875 c 0,-0.796875 -0.046875,-1.59375 -0.390625,-2.328125 -0.453125,-0.96875 -1.28125,-1.125 -1.6875,-1.125 -0.609375,0 -1.328125,0.265625 -1.75,1.1875 -0.3125,0.6875 -0.359375,1.46875 -0.359375,2.265625 0,0.75 0.03125,1.640625 0.453125,2.40625 0.421875,0.796875 1.15625,1 1.640625,1 0.53125,0 1.296875,-0.203125 1.734375,-1.15625 0.3125,-0.6875 0.359375,-1.46875 0.359375,-2.25 z M 2.484375,0 C 2.09375,0 1.5,-0.25 1.328125,-1.203125 1.21875,-1.796875 1.21875,-2.71875 1.21875,-3.3125 c 0,-0.640625 0,-1.296875 0.078125,-1.828125 0.1875,-1.1875 0.9375,-1.28125 1.1875,-1.28125 0.328125,0 0.984375,0.1875 1.171875,1.171875 0.109375,0.5625 0.109375,1.3125 0.109375,1.9375 0,0.75 0,1.421875 -0.109375,2.0625 C 3.5,-0.296875 2.9375,0 2.484375,0 Z m 0,0"
               id="id-53502762-6695-4ff7-84d2-0d9651100141" />
          </g>
        </g>
      </g>
    </g>
    <g
       transform="matrix(0.57247811,-0.58747176,0.57247811,0.58747176,149.70534,39.545017)"
       ns6:version="1.3.0"
       ns6:texconverter="pdflatex"
       ns6:pdfconverter="inkscape"
       ns6:text="$\\mathbf{wx}-b = 1$"
       ns6:preamble="C:\Users\NARUTO\AppData\Roaming\inkscape\extensions\textext\default_packages.tex"
       ns6:scale="1.6140851932872855"
       ns6:alignment="middle center"
       ns6:jacobian_sqrt="0.5694132918996535"
       id="g1410">
      <defs
         id="id-557c569e-966c-4307-a94b-140ff634ada7">
        <g
           id="id-89bfb543-597d-460f-bdfb-572facbca03c">
          <symbol
             overflow="visible"
             id="id-ba00ab27-f1c9-4659-b272-403cfd170d20">
            <path
               style="stroke:none"
               d=""
               id="id-c54feb6f-79de-48ca-a59b-af562a1688cb" />
          </symbol>
          <symbol
             overflow="visible"
             id="id-c9d21d75-de60-460d-9e75-6299e15d31da">
            <path
               style="stroke:none"
               d="m 7.34375,-3.75 c 0.046875,-0.125 0.09375,-0.203125 0.6875,-0.203125 v -0.46875 C 7.796875,-4.40625 7.5,-4.390625 7.25,-4.390625 c -0.265625,0 -0.734375,-0.03125 -0.953125,-0.03125 v 0.46875 c 0.09375,0 0.578125,0 0.578125,0.109375 0,0.03125 -0.03125,0.09375 -0.03125,0.125 L 5.796875,-1.171875 4.65625,-3.953125 h 0.5625 v -0.46875 c -0.328125,0 -0.84375,0.03125 -1.140625,0.03125 -0.421875,0 -0.84375,-0.03125 -1,-0.03125 v 0.46875 h 0.59375 c 0.203125,0.5 0.203125,0.515625 0.203125,0.53125 0,0.03125 -0.03125,0.09375 -0.03125,0.125 L 3.046875,-1.390625 2,-3.953125 h 0.5625 v -0.46875 c -0.40625,0.015625 -0.8125,0.03125 -1.234375,0.03125 -0.296875,0 -0.734375,-0.03125 -1.078125,-0.03125 v 0.46875 h 0.59375 l 1.515625,3.71875 C 2.4375,-0.0625 2.46875,0.046875 2.71875,0.046875 c 0.25,0 0.296875,-0.109375 0.359375,-0.28125 L 4.140625,-2.8125 5.1875,-0.234375 c 0.078125,0.171875 0.109375,0.28125 0.359375,0.28125 0.25,0 0.296875,-0.109375 0.359375,-0.28125 z m 0,0"
               id="id-40319931-070f-4c5d-9efd-aec98ac30fc6" />
          </symbol>
          <symbol
             overflow="visible"
             id="id-9e69a8d8-1661-4de7-bf4d-115c5ca89083">
            <path
               style="stroke:none"
               d="M 3.453125,-2.453125 4.609375,-3.75 C 4.75,-3.890625 4.8125,-3.953125 5.625,-3.953125 v -0.46875 c -0.34375,0.015625 -0.859375,0.03125 -0.90625,0.03125 -0.25,0 -0.75,-0.03125 -1.03125,-0.03125 v 0.46875 c 0.140625,0 0.265625,0.015625 0.375,0.078125 -0.03125,0.0625 -0.03125,0.09375 -0.078125,0.125 L 3.15625,-2.8125 2.171875,-3.953125 h 0.40625 v -0.46875 c -0.265625,0 -0.890625,0.03125 -1.21875,0.03125 -0.3125,0 -0.765625,-0.03125 -1.09375,-0.03125 v 0.46875 h 0.71875 L 2.53125,-2.125 1.21875,-0.65625 c -0.15625,0.1875 -0.515625,0.1875 -1,0.1875 V 0 c 0.34375,-0.015625 0.875,-0.03125 0.921875,-0.03125 0.25,0 0.828125,0.015625 1.015625,0.03125 v -0.46875 c -0.171875,0 -0.359375,-0.046875 -0.359375,-0.109375 0,-0.015625 0,-0.015625 0.0625,-0.09375 l 0.96875,-1.09375 1.09375,1.296875 H 3.53125 V 0 c 0.265625,-0.015625 0.875,-0.03125 1.203125,-0.03125 0.3125,0 0.765625,0.015625 1.09375,0.03125 V -0.46875 H 5.125 Z m 0,0"
               id="id-8699f1fe-e8b4-4cd9-a874-58d39b992f0b" />
          </symbol>
          <symbol
             overflow="visible"
             id="id-226b4396-1181-472c-9a98-19bffd014e65">
            <path
               style="stroke:none"
               d=""
               id="id-964b9628-7fd8-4dd2-bee9-a629c9624ed7" />
          </symbol>
          <symbol
             overflow="visible"
             id="id-8ea849f9-0534-4271-a34e-8f1bfa49c090">
            <path
               style="stroke:none"
               d="m 6.5625,-2.296875 c 0.171875,0 0.359375,0 0.359375,-0.203125 0,-0.1875 -0.1875,-0.1875 -0.359375,-0.1875 H 1.171875 c -0.171875,0 -0.34375,0 -0.34375,0.1875 0,0.203125 0.171875,0.203125 0.34375,0.203125 z m 0,0"
               id="id-90d7f704-37be-407e-8ff3-93c62d545523" />
          </symbol>
          <symbol
             overflow="visible"
             id="id-805d5ae9-b0e7-4dce-aaa3-e1371e6c903d">
            <path
               style="stroke:none"
               d=""
               id="id-1c8168f1-944a-4a19-a626-dd1b15e26aee" />
          </symbol>
          <symbol
             overflow="visible"
             id="id-75f37c63-1192-4d8c-bc96-79c676427bb3">
            <path
               style="stroke:none"
               d="m 2.375,-6.8125 c 0,0 0,-0.109375 -0.125,-0.109375 -0.21875,0 -0.953125,0.078125 -1.21875,0.109375 -0.078125,0 -0.1875,0.015625 -0.1875,0.1875 0,0.125 0.09375,0.125 0.25,0.125 0.46875,0 0.484375,0.0625 0.484375,0.171875 0,0.0625 -0.078125,0.40625 -0.125,0.609375 l -0.828125,3.25 c -0.109375,0.5 -0.15625,0.671875 -0.15625,1.015625 0,0.9375 0.53125,1.5625 1.265625,1.5625 1.171875,0 2.40625,-1.484375 2.40625,-2.921875 0,-0.90625 -0.53125,-1.59375 -1.328125,-1.59375 -0.453125,0 -0.875,0.296875 -1.171875,0.59375 z M 1.453125,-3.046875 C 1.5,-3.265625 1.5,-3.28125 1.59375,-3.390625 2.078125,-4.03125 2.53125,-4.1875 2.796875,-4.1875 c 0.359375,0 0.625,0.296875 0.625,0.9375 0,0.59375 -0.328125,1.734375 -0.515625,2.109375 -0.328125,0.671875 -0.78125,1.03125 -1.171875,1.03125 -0.34375,0 -0.671875,-0.265625 -0.671875,-1 0,-0.203125 0,-0.390625 0.15625,-1.015625 z m 0,0"
               id="id-ceb43989-4433-4822-abf1-707e7b466aad" />
          </symbol>
          <symbol
             overflow="visible"
             id="id-c7aab290-daf7-43d3-9402-0eb0f0ff6acd">
            <path
               style="stroke:none"
               d=""
               id="id-406efede-5998-495f-b5b4-c8489cba438e" />
          </symbol>
          <symbol
             overflow="visible"
             id="id-2e1e375c-6b85-4b40-bee4-78f9a3508015">
            <path
               style="stroke:none"
               d="m 6.84375,-3.265625 c 0.15625,0 0.34375,0 0.34375,-0.1875 C 7.1875,-3.65625 7,-3.65625 6.859375,-3.65625 h -5.96875 c -0.140625,0 -0.328125,0 -0.328125,0.203125 0,0.1875 0.1875,0.1875 0.328125,0.1875 z m 0.015625,1.9375 c 0.140625,0 0.328125,0 0.328125,-0.203125 0,-0.1875 -0.1875,-0.1875 -0.34375,-0.1875 H 0.890625 c -0.140625,0 -0.328125,0 -0.328125,0.1875 0,0.203125 0.1875,0.203125 0.328125,0.203125 z m 0,0"
               id="id-350e418e-df6f-442a-a331-e156a57c5538" />
          </symbol>
          <symbol
             overflow="visible"
             id="id-fee92ce0-d3c6-4460-87ec-b47e17bd5778">
            <path
               style="stroke:none"
               d="m 2.9375,-6.375 c 0,-0.25 0,-0.265625 -0.234375,-0.265625 C 2.078125,-6 1.203125,-6 0.890625,-6 v 0.3125 c 0.203125,0 0.78125,0 1.296875,-0.265625 v 5.171875 c 0,0.359375 -0.03125,0.46875 -0.921875,0.46875 h -0.3125 V 0 c 0.34375,-0.03125 1.203125,-0.03125 1.609375,-0.03125 0.390625,0 1.265625,0 1.609375,0.03125 v -0.3125 h -0.3125 c -0.90625,0 -0.921875,-0.109375 -0.921875,-0.46875 z m 0,0"
               id="id-369df604-2f34-426f-a8dc-919d5f60d63e" />
          </symbol>
        </g>
      </defs>
      <g
         id="id-ed0910a1-3e51-4774-803a-b62c02dc052f"
         transform="translate(-148.962,-127.843)">
        <g
           style="fill:#000000;fill-opacity:1"
           id="id-74868cbf-30cc-4d18-84fc-63e71aa22ae3">
          <g
             transform="translate(148.712,134.765)"
             id="g1750">
            <path
               style="stroke:none"
               d="m 7.34375,-3.75 c 0.046875,-0.125 0.09375,-0.203125 0.6875,-0.203125 v -0.46875 C 7.796875,-4.40625 7.5,-4.390625 7.25,-4.390625 c -0.265625,0 -0.734375,-0.03125 -0.953125,-0.03125 v 0.46875 c 0.09375,0 0.578125,0 0.578125,0.109375 0,0.03125 -0.03125,0.09375 -0.03125,0.125 L 5.796875,-1.171875 4.65625,-3.953125 h 0.5625 v -0.46875 c -0.328125,0 -0.84375,0.03125 -1.140625,0.03125 -0.421875,0 -0.84375,-0.03125 -1,-0.03125 v 0.46875 h 0.59375 c 0.203125,0.5 0.203125,0.515625 0.203125,0.53125 0,0.03125 -0.03125,0.09375 -0.03125,0.125 L 3.046875,-1.390625 2,-3.953125 h 0.5625 v -0.46875 c -0.40625,0.015625 -0.8125,0.03125 -1.234375,0.03125 -0.296875,0 -0.734375,-0.03125 -1.078125,-0.03125 v 0.46875 h 0.59375 l 1.515625,3.71875 C 2.4375,-0.0625 2.46875,0.046875 2.71875,0.046875 c 0.25,0 0.296875,-0.109375 0.359375,-0.28125 L 4.140625,-2.8125 5.1875,-0.234375 c 0.078125,0.171875 0.109375,0.28125 0.359375,0.28125 0.25,0 0.296875,-0.109375 0.359375,-0.28125 z m 0,0"
               id="id-ccfc5763-3ace-4e8b-baca-bd35fbadfabe" />
          </g>
          <g
             transform="translate(156.987,134.765)"
             id="g1753">
            <path
               style="stroke:none"
               d="M 3.453125,-2.453125 4.609375,-3.75 C 4.75,-3.890625 4.8125,-3.953125 5.625,-3.953125 v -0.46875 c -0.34375,0.015625 -0.859375,0.03125 -0.90625,0.03125 -0.25,0 -0.75,-0.03125 -1.03125,-0.03125 v 0.46875 c 0.140625,0 0.265625,0.015625 0.375,0.078125 -0.03125,0.0625 -0.03125,0.09375 -0.078125,0.125 L 3.15625,-2.8125 2.171875,-3.953125 h 0.40625 v -0.46875 c -0.265625,0 -0.890625,0.03125 -1.21875,0.03125 -0.3125,0 -0.765625,-0.03125 -1.09375,-0.03125 v 0.46875 h 0.71875 L 2.53125,-2.125 1.21875,-0.65625 c -0.15625,0.1875 -0.515625,0.1875 -1,0.1875 V 0 c 0.34375,-0.015625 0.875,-0.03125 0.921875,-0.03125 0.25,0 0.828125,0.015625 1.015625,0.03125 v -0.46875 c -0.171875,0 -0.359375,-0.046875 -0.359375,-0.109375 0,-0.015625 0,-0.015625 0.0625,-0.09375 l 0.96875,-1.09375 1.09375,1.296875 H 3.53125 V 0 c 0.265625,-0.015625 0.875,-0.03125 1.203125,-0.03125 0.3125,0 0.765625,0.015625 1.09375,0.03125 V -0.46875 H 5.125 Z m 0,0"
               id="id-7e2dfe84-a79b-4916-bba6-8525ea210956" />
          </g>
        </g>
        <g
           style="fill:#000000;fill-opacity:1"
           id="id-a30c63ad-d125-4d62-a351-630180d6a94f">
          <g
             transform="translate(165.247,134.765)"
             id="g1757">
            <path
               style="stroke:none"
               d="m 6.5625,-2.296875 c 0.171875,0 0.359375,0 0.359375,-0.203125 0,-0.1875 -0.1875,-0.1875 -0.359375,-0.1875 H 1.171875 c -0.171875,0 -0.34375,0 -0.34375,0.1875 0,0.203125 0.171875,0.203125 0.34375,0.203125 z m 0,0"
               id="id-b53879ca-b118-4b9e-8920-f2f06b4dc41a" />
          </g>
        </g>
        <g
           style="fill:#000000;fill-opacity:1"
           id="id-0c6d27c7-b643-4626-b26d-79f3f901d566">
          <g
             transform="translate(175.21,134.765)"
             id="g1761">
            <path
               style="stroke:none"
               d="m 2.375,-6.8125 c 0,0 0,-0.109375 -0.125,-0.109375 -0.21875,0 -0.953125,0.078125 -1.21875,0.109375 -0.078125,0 -0.1875,0.015625 -0.1875,0.1875 0,0.125 0.09375,0.125 0.25,0.125 0.46875,0 0.484375,0.0625 0.484375,0.171875 0,0.0625 -0.078125,0.40625 -0.125,0.609375 l -0.828125,3.25 c -0.109375,0.5 -0.15625,0.671875 -0.15625,1.015625 0,0.9375 0.53125,1.5625 1.265625,1.5625 1.171875,0 2.40625,-1.484375 2.40625,-2.921875 0,-0.90625 -0.53125,-1.59375 -1.328125,-1.59375 -0.453125,0 -0.875,0.296875 -1.171875,0.59375 z M 1.453125,-3.046875 C 1.5,-3.265625 1.5,-3.28125 1.59375,-3.390625 2.078125,-4.03125 2.53125,-4.1875 2.796875,-4.1875 c 0.359375,0 0.625,0.296875 0.625,0.9375 0,0.59375 -0.328125,1.734375 -0.515625,2.109375 -0.328125,0.671875 -0.78125,1.03125 -1.171875,1.03125 -0.34375,0 -0.671875,-0.265625 -0.671875,-1 0,-0.203125 0,-0.390625 0.15625,-1.015625 z m 0,0"
               id="id-921b839e-8ceb-42ce-afbe-f1bb45bc3b1e" />
          </g>
        </g>
        <g
           style="fill:#000000;fill-opacity:1"
           id="id-b44cf438-6f02-4b2b-b33b-10d9680f4952">
          <g
             transform="translate(182.253,134.765)"
             id="g1765">
            <path
               style="stroke:none"
               d="m 6.84375,-3.265625 c 0.15625,0 0.34375,0 0.34375,-0.1875 C 7.1875,-3.65625 7,-3.65625 6.859375,-3.65625 h -5.96875 c -0.140625,0 -0.328125,0 -0.328125,0.203125 0,0.1875 0.1875,0.1875 0.328125,0.1875 z m 0.015625,1.9375 c 0.140625,0 0.328125,0 0.328125,-0.203125 0,-0.1875 -0.1875,-0.1875 -0.34375,-0.1875 H 0.890625 c -0.140625,0 -0.328125,0 -0.328125,0.1875 0,0.203125 0.1875,0.203125 0.328125,0.203125 z m 0,0"
               id="id-44e3e802-6060-455e-9c20-41426dac93cc" />
          </g>
        </g>
        <g
           style="fill:#000000;fill-opacity:1"
           id="id-d52b0f70-2293-48a1-a763-7b2fcced927a">
          <g
             transform="translate(192.772,134.765)"
             id="g1769">
            <path
               style="stroke:none"
               d="m 2.9375,-6.375 c 0,-0.25 0,-0.265625 -0.234375,-0.265625 C 2.078125,-6 1.203125,-6 0.890625,-6 v 0.3125 c 0.203125,0 0.78125,0 1.296875,-0.265625 v 5.171875 c 0,0.359375 -0.03125,0.46875 -0.921875,0.46875 h -0.3125 V 0 c 0.34375,-0.03125 1.203125,-0.03125 1.609375,-0.03125 0.390625,0 1.265625,0 1.609375,0.03125 v -0.3125 h -0.3125 c -0.90625,0 -0.921875,-0.109375 -0.921875,-0.46875 z m 0,0"
               id="id-bac55ba8-9f2c-4668-acf8-b2ab9ca3b66f" />
          </g>
        </g>
      </g>
    </g>
    <g
       transform="matrix(0.49875519,-0.51009751,0.49875519,0.51009751,202.40266,85.317191)"
       ns6:version="1.3.0"
       ns6:texconverter="pdflatex"
       ns6:pdfconverter="inkscape"
       ns6:text="$\\mathbf{wx}-b = -1$"
       ns6:preamble="C:\Users\NARUTO\AppData\Roaming\inkscape\extensions\textext\default_packages.tex"
       ns6:scale="1.6140851932872855"
       ns6:alignment="middle center"
       ns6:jacobian_sqrt="0.5694132918996535"
       id="g1160">
      <defs
         id="id-b4945a00-1dc6-4685-a3aa-b7c9e8505480">
        <g
           id="id-f3a3d3bb-cb3c-43fc-a74e-c0bb734b9e30">
          <symbol
             overflow="visible"
             id="id-ac07cad1-c88a-454f-87ee-6ecdccab3758">
            <path
               style="stroke:none"
               d=""
               id="id-8ccda966-be4f-4b19-8ebd-16157fea1e0e" />
          </symbol>
          <symbol
             overflow="visible"
             id="id-4bbadfbb-b7ff-4843-a9b1-08f0d9fcc017">
            <path
               style="stroke:none"
               d="m 7.34375,-3.75 c 0.046875,-0.125 0.09375,-0.203125 0.6875,-0.203125 v -0.46875 C 7.796875,-4.40625 7.5,-4.390625 7.25,-4.390625 c -0.265625,0 -0.734375,-0.03125 -0.953125,-0.03125 v 0.46875 c 0.09375,0 0.578125,0 0.578125,0.109375 0,0.03125 -0.03125,0.09375 -0.03125,0.125 L 5.796875,-1.171875 4.65625,-3.953125 h 0.5625 v -0.46875 c -0.328125,0 -0.84375,0.03125 -1.140625,0.03125 -0.421875,0 -0.84375,-0.03125 -1,-0.03125 v 0.46875 h 0.59375 c 0.203125,0.5 0.203125,0.515625 0.203125,0.53125 0,0.03125 -0.03125,0.09375 -0.03125,0.125 L 3.046875,-1.390625 2,-3.953125 h 0.5625 v -0.46875 c -0.40625,0.015625 -0.8125,0.03125 -1.234375,0.03125 -0.296875,0 -0.734375,-0.03125 -1.078125,-0.03125 v 0.46875 h 0.59375 l 1.515625,3.71875 C 2.4375,-0.0625 2.46875,0.046875 2.71875,0.046875 c 0.25,0 0.296875,-0.109375 0.359375,-0.28125 L 4.140625,-2.8125 5.1875,-0.234375 c 0.078125,0.171875 0.109375,0.28125 0.359375,0.28125 0.25,0 0.296875,-0.109375 0.359375,-0.28125 z m 0,0"
               id="id-0349a9ba-9e69-47a8-b5bd-6abcdb6ae1cd" />
          </symbol>
          <symbol
             overflow="visible"
             id="id-90cb983e-8f55-4857-aaed-1a80bfda1253">
            <path
               style="stroke:none"
               d="M 3.453125,-2.453125 4.609375,-3.75 C 4.75,-3.890625 4.8125,-3.953125 5.625,-3.953125 v -0.46875 c -0.34375,0.015625 -0.859375,0.03125 -0.90625,0.03125 -0.25,0 -0.75,-0.03125 -1.03125,-0.03125 v 0.46875 c 0.140625,0 0.265625,0.015625 0.375,0.078125 -0.03125,0.0625 -0.03125,0.09375 -0.078125,0.125 L 3.15625,-2.8125 2.171875,-3.953125 h 0.40625 v -0.46875 c -0.265625,0 -0.890625,0.03125 -1.21875,0.03125 -0.3125,0 -0.765625,-0.03125 -1.09375,-0.03125 v 0.46875 h 0.71875 L 2.53125,-2.125 1.21875,-0.65625 c -0.15625,0.1875 -0.515625,0.1875 -1,0.1875 V 0 c 0.34375,-0.015625 0.875,-0.03125 0.921875,-0.03125 0.25,0 0.828125,0.015625 1.015625,0.03125 v -0.46875 c -0.171875,0 -0.359375,-0.046875 -0.359375,-0.109375 0,-0.015625 0,-0.015625 0.0625,-0.09375 l 0.96875,-1.09375 1.09375,1.296875 H 3.53125 V 0 c 0.265625,-0.015625 0.875,-0.03125 1.203125,-0.03125 0.3125,0 0.765625,0.015625 1.09375,0.03125 V -0.46875 H 5.125 Z m 0,0"
               id="id-863f672a-c5e8-4689-a41f-18e1b563b2f4" />
          </symbol>
          <symbol
             overflow="visible"
             id="id-3c429750-61dd-412d-91dc-950a3821b9e2">
            <path
               style="stroke:none"
               d=""
               id="id-95d9468c-3167-4e48-85af-48c9263f5f1b" />
          </symbol>
          <symbol
             overflow="visible"
             id="id-7866c219-79cc-4446-9fb7-06ab84fa73f6">
            <path
               style="stroke:none"
               d="m 6.5625,-2.296875 c 0.171875,0 0.359375,0 0.359375,-0.203125 0,-0.1875 -0.1875,-0.1875 -0.359375,-0.1875 H 1.171875 c -0.171875,0 -0.34375,0 -0.34375,0.1875 0,0.203125 0.171875,0.203125 0.34375,0.203125 z m 0,0"
               id="id-c139ec5f-637a-4777-8fb6-4d5d0dda7991" />
          </symbol>
          <symbol
             overflow="visible"
             id="id-1e5b959a-b22f-4c34-91a3-8513e6df5c1f">
            <path
               style="stroke:none"
               d=""
               id="id-d9420fda-61bf-4f5a-9853-e4af53da00e4" />
          </symbol>
          <symbol
             overflow="visible"
             id="id-219961d4-cf60-4477-a999-6ddc293fef9f">
            <path
               style="stroke:none"
               d="m 2.375,-6.8125 c 0,0 0,-0.109375 -0.125,-0.109375 -0.21875,0 -0.953125,0.078125 -1.21875,0.109375 -0.078125,0 -0.1875,0.015625 -0.1875,0.1875 0,0.125 0.09375,0.125 0.25,0.125 0.46875,0 0.484375,0.0625 0.484375,0.171875 0,0.0625 -0.078125,0.40625 -0.125,0.609375 l -0.828125,3.25 c -0.109375,0.5 -0.15625,0.671875 -0.15625,1.015625 0,0.9375 0.53125,1.5625 1.265625,1.5625 1.171875,0 2.40625,-1.484375 2.40625,-2.921875 0,-0.90625 -0.53125,-1.59375 -1.328125,-1.59375 -0.453125,0 -0.875,0.296875 -1.171875,0.59375 z M 1.453125,-3.046875 C 1.5,-3.265625 1.5,-3.28125 1.59375,-3.390625 2.078125,-4.03125 2.53125,-4.1875 2.796875,-4.1875 c 0.359375,0 0.625,0.296875 0.625,0.9375 0,0.59375 -0.328125,1.734375 -0.515625,2.109375 -0.328125,0.671875 -0.78125,1.03125 -1.171875,1.03125 -0.34375,0 -0.671875,-0.265625 -0.671875,-1 0,-0.203125 0,-0.390625 0.15625,-1.015625 z m 0,0"
               id="id-9212e102-755a-47c4-9b1f-1b539c7c6800" />
          </symbol>
          <symbol
             overflow="visible"
             id="id-5f7c6d8a-78a3-40f5-a742-a9222f06844b">
            <path
               style="stroke:none"
               d=""
               id="id-2f399828-52e3-4dac-83f3-4c57a606e854" />
          </symbol>
          <symbol
             overflow="visible"
             id="id-10f6b198-cb71-407d-81e1-f20f06c6ce45">
            <path
               style="stroke:none"
               d="m 6.84375,-3.265625 c 0.15625,0 0.34375,0 0.34375,-0.1875 C 7.1875,-3.65625 7,-3.65625 6.859375,-3.65625 h -5.96875 c -0.140625,0 -0.328125,0 -0.328125,0.203125 0,0.1875 0.1875,0.1875 0.328125,0.1875 z m 0.015625,1.9375 c 0.140625,0 0.328125,0 0.328125,-0.203125 0,-0.1875 -0.1875,-0.1875 -0.34375,-0.1875 H 0.890625 c -0.140625,0 -0.328125,0 -0.328125,0.1875 0,0.203125 0.1875,0.203125 0.328125,0.203125 z m 0,0"
               id="id-e1eaf633-f007-4395-bf03-346daf1be648" />
          </symbol>
          <symbol
             overflow="visible"
             id="id-42f67e36-288d-4349-888b-005e30badffe">
            <path
               style="stroke:none"
               d="m 2.9375,-6.375 c 0,-0.25 0,-0.265625 -0.234375,-0.265625 C 2.078125,-6 1.203125,-6 0.890625,-6 v 0.3125 c 0.203125,0 0.78125,0 1.296875,-0.265625 v 5.171875 c 0,0.359375 -0.03125,0.46875 -0.921875,0.46875 h -0.3125 V 0 c 0.34375,-0.03125 1.203125,-0.03125 1.609375,-0.03125 0.390625,0 1.265625,0 1.609375,0.03125 v -0.3125 h -0.3125 c -0.90625,0 -0.921875,-0.109375 -0.921875,-0.46875 z m 0,0"
               id="id-bdba5aa8-54db-4408-829c-5cff556824c5" />
          </symbol>
        </g>
      </defs>
      <g
         id="id-56cc4732-63df-40e3-b4c6-bda7b524db0c"
         transform="translate(-148.962,-127.843)">
        <g
           style="fill:#000000;fill-opacity:1"
           id="id-91b68314-c5f2-429e-9d45-cae13b85707e">
          <g
             transform="translate(148.712,134.765)"
             id="g1946">
            <path
               style="stroke:none"
               d="m 7.34375,-3.75 c 0.046875,-0.125 0.09375,-0.203125 0.6875,-0.203125 v -0.46875 C 7.796875,-4.40625 7.5,-4.390625 7.25,-4.390625 c -0.265625,0 -0.734375,-0.03125 -0.953125,-0.03125 v 0.46875 c 0.09375,0 0.578125,0 0.578125,0.109375 0,0.03125 -0.03125,0.09375 -0.03125,0.125 L 5.796875,-1.171875 4.65625,-3.953125 h 0.5625 v -0.46875 c -0.328125,0 -0.84375,0.03125 -1.140625,0.03125 -0.421875,0 -0.84375,-0.03125 -1,-0.03125 v 0.46875 h 0.59375 c 0.203125,0.5 0.203125,0.515625 0.203125,0.53125 0,0.03125 -0.03125,0.09375 -0.03125,0.125 L 3.046875,-1.390625 2,-3.953125 h 0.5625 v -0.46875 c -0.40625,0.015625 -0.8125,0.03125 -1.234375,0.03125 -0.296875,0 -0.734375,-0.03125 -1.078125,-0.03125 v 0.46875 h 0.59375 l 1.515625,3.71875 C 2.4375,-0.0625 2.46875,0.046875 2.71875,0.046875 c 0.25,0 0.296875,-0.109375 0.359375,-0.28125 L 4.140625,-2.8125 5.1875,-0.234375 c 0.078125,0.171875 0.109375,0.28125 0.359375,0.28125 0.25,0 0.296875,-0.109375 0.359375,-0.28125 z m 0,0"
               id="id-d68882e4-b5db-445c-8ecd-2f482407a093" />
          </g>
          <g
             transform="translate(156.987,134.765)"
             id="g1949">
            <path
               style="stroke:none"
               d="M 3.453125,-2.453125 4.609375,-3.75 C 4.75,-3.890625 4.8125,-3.953125 5.625,-3.953125 v -0.46875 c -0.34375,0.015625 -0.859375,0.03125 -0.90625,0.03125 -0.25,0 -0.75,-0.03125 -1.03125,-0.03125 v 0.46875 c 0.140625,0 0.265625,0.015625 0.375,0.078125 -0.03125,0.0625 -0.03125,0.09375 -0.078125,0.125 L 3.15625,-2.8125 2.171875,-3.953125 h 0.40625 v -0.46875 c -0.265625,0 -0.890625,0.03125 -1.21875,0.03125 -0.3125,0 -0.765625,-0.03125 -1.09375,-0.03125 v 0.46875 h 0.71875 L 2.53125,-2.125 1.21875,-0.65625 c -0.15625,0.1875 -0.515625,0.1875 -1,0.1875 V 0 c 0.34375,-0.015625 0.875,-0.03125 0.921875,-0.03125 0.25,0 0.828125,0.015625 1.015625,0.03125 v -0.46875 c -0.171875,0 -0.359375,-0.046875 -0.359375,-0.109375 0,-0.015625 0,-0.015625 0.0625,-0.09375 l 0.96875,-1.09375 1.09375,1.296875 H 3.53125 V 0 c 0.265625,-0.015625 0.875,-0.03125 1.203125,-0.03125 0.3125,0 0.765625,0.015625 1.09375,0.03125 V -0.46875 H 5.125 Z m 0,0"
               id="id-c92fc7bb-3d2b-411f-9699-eb1d76f8ca0c" />
          </g>
        </g>
        <g
           style="fill:#000000;fill-opacity:1"
           id="id-c32e31be-5734-49ce-b9cf-adbee862b02e">
          <g
             transform="translate(165.247,134.765)"
             id="g1953">
            <path
               style="stroke:none"
               d="m 6.5625,-2.296875 c 0.171875,0 0.359375,0 0.359375,-0.203125 0,-0.1875 -0.1875,-0.1875 -0.359375,-0.1875 H 1.171875 c -0.171875,0 -0.34375,0 -0.34375,0.1875 0,0.203125 0.171875,0.203125 0.34375,0.203125 z m 0,0"
               id="id-b4d3ee34-80e9-4631-9e60-671cb923b701" />
          </g>
        </g>
        <g
           style="fill:#000000;fill-opacity:1"
           id="id-63840923-4ec2-4a8b-b7e2-f5403a037123">
          <g
             transform="translate(175.21,134.765)"
             id="g1957">
            <path
               style="stroke:none"
               d="m 2.375,-6.8125 c 0,0 0,-0.109375 -0.125,-0.109375 -0.21875,0 -0.953125,0.078125 -1.21875,0.109375 -0.078125,0 -0.1875,0.015625 -0.1875,0.1875 0,0.125 0.09375,0.125 0.25,0.125 0.46875,0 0.484375,0.0625 0.484375,0.171875 0,0.0625 -0.078125,0.40625 -0.125,0.609375 l -0.828125,3.25 c -0.109375,0.5 -0.15625,0.671875 -0.15625,1.015625 0,0.9375 0.53125,1.5625 1.265625,1.5625 1.171875,0 2.40625,-1.484375 2.40625,-2.921875 0,-0.90625 -0.53125,-1.59375 -1.328125,-1.59375 -0.453125,0 -0.875,0.296875 -1.171875,0.59375 z M 1.453125,-3.046875 C 1.5,-3.265625 1.5,-3.28125 1.59375,-3.390625 2.078125,-4.03125 2.53125,-4.1875 2.796875,-4.1875 c 0.359375,0 0.625,0.296875 0.625,0.9375 0,0.59375 -0.328125,1.734375 -0.515625,2.109375 -0.328125,0.671875 -0.78125,1.03125 -1.171875,1.03125 -0.34375,0 -0.671875,-0.265625 -0.671875,-1 0,-0.203125 0,-0.390625 0.15625,-1.015625 z m 0,0"
               id="id-0ad9423e-a580-48cc-b487-9185f84c5efb" />
          </g>
        </g>
        <g
           style="fill:#000000;fill-opacity:1"
           id="id-7c0417ac-1735-492d-a3ed-88bf34465db5">
          <g
             transform="translate(182.253,134.765)"
             id="g1961">
            <path
               style="stroke:none"
               d="m 6.84375,-3.265625 c 0.15625,0 0.34375,0 0.34375,-0.1875 C 7.1875,-3.65625 7,-3.65625 6.859375,-3.65625 h -5.96875 c -0.140625,0 -0.328125,0 -0.328125,0.203125 0,0.1875 0.1875,0.1875 0.328125,0.1875 z m 0.015625,1.9375 c 0.140625,0 0.328125,0 0.328125,-0.203125 0,-0.1875 -0.1875,-0.1875 -0.34375,-0.1875 H 0.890625 c -0.140625,0 -0.328125,0 -0.328125,0.1875 0,0.203125 0.1875,0.203125 0.328125,0.203125 z m 0,0"
               id="id-06a4fb5e-b387-4a85-9668-3b62d87d59c3" />
          </g>
        </g>
        <g
           style="fill:#000000;fill-opacity:1"
           id="id-81e4dad6-cb9e-41f4-8b27-bfc6ff085832">
          <g
             transform="translate(192.769,134.765)"
             id="g1965">
            <path
               style="stroke:none"
               d="m 6.5625,-2.296875 c 0.171875,0 0.359375,0 0.359375,-0.203125 0,-0.1875 -0.1875,-0.1875 -0.359375,-0.1875 H 1.171875 c -0.171875,0 -0.34375,0 -0.34375,0.1875 0,0.203125 0.171875,0.203125 0.34375,0.203125 z m 0,0"
               id="id-d3850666-077f-4bd8-b449-12fc3110178d" />
          </g>
        </g>
        <g
           style="fill:#000000;fill-opacity:1"
           id="id-d2baf3c1-e2c1-4f4a-93a3-8f6b9fcbe727">
          <g
             transform="translate(200.518,134.765)"
             id="g1969">
            <path
               style="stroke:none"
               d="m 2.9375,-6.375 c 0,-0.25 0,-0.265625 -0.234375,-0.265625 C 2.078125,-6 1.203125,-6 0.890625,-6 v 0.3125 c 0.203125,0 0.78125,0 1.296875,-0.265625 v 5.171875 c 0,0.359375 -0.03125,0.46875 -0.921875,0.46875 h -0.3125 V 0 c 0.34375,-0.03125 1.203125,-0.03125 1.609375,-0.03125 0.390625,0 1.265625,0 1.609375,0.03125 v -0.3125 h -0.3125 c -0.90625,0 -0.921875,-0.109375 -0.921875,-0.46875 z m 0,0"
               id="id-565d7e69-0bb7-4710-8082-58c5200d0229" />
          </g>
        </g>
      </g>
    </g>
    <g
       transform="matrix(1.76389,0,0,1.76389,219.79577,201.03257)"
       ns6:version="1.3.0"
       ns6:texconverter="pdflatex"
       ns6:pdfconverter="inkscape"
       ns6:text="$\\mathbf{x}_1$"
       ns6:preamble="C:\Users\NARUTO\AppData\Roaming\inkscape\extensions\textext\default_packages.tex"
       ns6:scale="5.0"
       ns6:alignment="middle center"
       ns6:jacobian_sqrt="1.76389"
       id="g2643">
      <defs
         id="id-c7825cb0-f9fc-46d5-9bd2-f25137fd49b1">
        <g
           id="id-91fb0305-f634-4fd0-b448-22c574dc932f">
          <symbol
             overflow="visible"
             id="id-77b31f50-d9d7-4354-b567-0edad7ea89c2">
            <path
               style="stroke:none;stroke-width:0"
               d=""
               id="id-83e8a890-89a8-40af-a931-10a9de06477e" />
          </symbol>
          <symbol
             overflow="visible"
             id="id-a614ae22-b82d-4adf-94f1-b0786ae4a5d4">
            <path
               style="stroke:none;stroke-width:0"
               d="M 3.453125,-2.453125 4.609375,-3.75 C 4.75,-3.890625 4.8125,-3.953125 5.625,-3.953125 v -0.46875 c -0.34375,0.015625 -0.859375,0.03125 -0.90625,0.03125 -0.25,0 -0.75,-0.03125 -1.03125,-0.03125 v 0.46875 c 0.140625,0 0.265625,0.015625 0.375,0.078125 -0.03125,0.0625 -0.03125,0.09375 -0.078125,0.125 L 3.15625,-2.8125 2.171875,-3.953125 h 0.40625 v -0.46875 c -0.265625,0 -0.890625,0.03125 -1.21875,0.03125 -0.3125,0 -0.765625,-0.03125 -1.09375,-0.03125 v 0.46875 h 0.71875 L 2.53125,-2.125 1.21875,-0.65625 c -0.15625,0.1875 -0.515625,0.1875 -1,0.1875 V 0 c 0.34375,-0.015625 0.875,-0.03125 0.921875,-0.03125 0.25,0 0.828125,0.015625 1.015625,0.03125 v -0.46875 c -0.171875,0 -0.359375,-0.046875 -0.359375,-0.109375 0,-0.015625 0,-0.015625 0.0625,-0.09375 l 0.96875,-1.09375 1.09375,1.296875 H 3.53125 V 0 c 0.265625,-0.015625 0.875,-0.03125 1.203125,-0.03125 0.3125,0 0.765625,0.015625 1.09375,0.03125 V -0.46875 H 5.125 Z m 0,0"
               id="id-40dc9871-b635-4d4e-9c02-4652a3a21026" />
          </symbol>
          <symbol
             overflow="visible"
             id="id-083772c1-b2c0-45bd-bb77-98eafe6f528b">
            <path
               style="stroke:none;stroke-width:0"
               d=""
               id="id-0e965dae-0f93-453c-863b-3f6c3408fe95" />
          </symbol>
          <symbol
             overflow="visible"
             id="id-e7284589-5c13-4da4-a266-459f87804382">
            <path
               style="stroke:none;stroke-width:0"
               d="m 2.328125,-4.4375 c 0,-0.1875 0,-0.1875 -0.203125,-0.1875 -0.453125,0.4375 -1.078125,0.4375 -1.359375,0.4375 v 0.25 c 0.15625,0 0.625,0 1,-0.1875 v 3.546875 c 0,0.234375 0,0.328125 -0.6875,0.328125 H 0.8125 V 0 c 0.125,0 0.984375,-0.03125 1.234375,-0.03125 0.21875,0 1.09375,0.03125 1.25,0.03125 V -0.25 H 3.03125 c -0.703125,0 -0.703125,-0.09375 -0.703125,-0.328125 z m 0,0"
               id="id-08c15134-58d9-4ba9-9d0f-f4c4be4544de" />
          </symbol>
        </g>
      </defs>
      <g
         id="id-ffa3b99e-fd1d-44bd-8d5c-236c77604602"
         transform="translate(-148.931,-130.343)">
        <g
           style="fill:#000000;fill-opacity:1"
           id="id-bc1461cb-643a-4f7c-8527-9cbe7516aba7">
          <g
             transform="translate(148.712,134.765)"
             id="g2635">
            <path
               style="stroke:none;stroke-width:0"
               d="M 3.453125,-2.453125 4.609375,-3.75 C 4.75,-3.890625 4.8125,-3.953125 5.625,-3.953125 v -0.46875 c -0.34375,0.015625 -0.859375,0.03125 -0.90625,0.03125 -0.25,0 -0.75,-0.03125 -1.03125,-0.03125 v 0.46875 c 0.140625,0 0.265625,0.015625 0.375,0.078125 -0.03125,0.0625 -0.03125,0.09375 -0.078125,0.125 L 3.15625,-2.8125 2.171875,-3.953125 h 0.40625 v -0.46875 c -0.265625,0 -0.890625,0.03125 -1.21875,0.03125 -0.3125,0 -0.765625,-0.03125 -1.09375,-0.03125 v 0.46875 h 0.71875 L 2.53125,-2.125 1.21875,-0.65625 c -0.15625,0.1875 -0.515625,0.1875 -1,0.1875 V 0 c 0.34375,-0.015625 0.875,-0.03125 0.921875,-0.03125 0.25,0 0.828125,0.015625 1.015625,0.03125 v -0.46875 c -0.171875,0 -0.359375,-0.046875 -0.359375,-0.109375 0,-0.015625 0,-0.015625 0.0625,-0.09375 l 0.96875,-1.09375 1.09375,1.296875 H 3.53125 V 0 c 0.265625,-0.015625 0.875,-0.03125 1.203125,-0.03125 0.3125,0 0.765625,0.015625 1.09375,0.03125 V -0.46875 H 5.125 Z m 0,0"
               id="id-6849cb34-819c-4e17-9cfb-1314074e88a5" />
          </g>
        </g>
        <g
           style="fill:#000000;fill-opacity:1"
           id="id-36baa01d-4099-4eea-b44d-afba0b8c1f45">
          <g
             transform="translate(154.759,136.259)"
             id="g2639">
            <path
               style="stroke:none;stroke-width:0"
               d="m 2.328125,-4.4375 c 0,-0.1875 0,-0.1875 -0.203125,-0.1875 -0.453125,0.4375 -1.078125,0.4375 -1.359375,0.4375 v 0.25 c 0.15625,0 0.625,0 1,-0.1875 v 3.546875 c 0,0.234375 0,0.328125 -0.6875,0.328125 H 0.8125 V 0 c 0.125,0 0.984375,-0.03125 1.234375,-0.03125 0.21875,0 1.09375,0.03125 1.25,0.03125 V -0.25 H 3.03125 c -0.703125,0 -0.703125,-0.09375 -0.703125,-0.328125 z m 0,0"
               id="id-4590a61a-d86c-42e6-94f4-8ca5ee922165" />
          </g>
        </g>
      </g>
    </g>
    <g
       transform="matrix(1.76389,0,0,1.76389,39.8339,15.4507)"
       ns6:version="1.3.0"
       ns6:texconverter="pdflatex"
       ns6:pdfconverter="inkscape"
       ns6:text="$\\mathbf{x}_2$"
       ns6:preamble="C:\Users\NARUTO\AppData\Roaming\inkscape\extensions\textext\default_packages.tex"
       ns6:scale="5.0"
       ns6:alignment="middle center"
       ns6:jacobian_sqrt="1.76389"
       id="g2699">
      <defs
         id="id-18a6ff9b-4f4e-4418-b2ca-b1f11d14a675">
        <g
           id="id-30c5adb5-9a4f-4d71-a3d7-36388435982a">
          <symbol
             overflow="visible"
             id="id-d04b1b7e-ddf4-449f-adec-38554ae3f16d">
            <path
               style="stroke:none"
               d=""
               id="id-c23b30d2-a059-4af3-8345-28df40fda445" />
          </symbol>
          <symbol
             overflow="visible"
             id="id-e8cc2828-e726-4ef6-90e0-b1af7d7bc2d1">
            <path
               style="stroke:none"
               d="M 3.453125,-2.453125 4.609375,-3.75 C 4.75,-3.890625 4.8125,-3.953125 5.625,-3.953125 v -0.46875 c -0.34375,0.015625 -0.859375,0.03125 -0.90625,0.03125 -0.25,0 -0.75,-0.03125 -1.03125,-0.03125 v 0.46875 c 0.140625,0 0.265625,0.015625 0.375,0.078125 -0.03125,0.0625 -0.03125,0.09375 -0.078125,0.125 L 3.15625,-2.8125 2.171875,-3.953125 h 0.40625 v -0.46875 c -0.265625,0 -0.890625,0.03125 -1.21875,0.03125 -0.3125,0 -0.765625,-0.03125 -1.09375,-0.03125 v 0.46875 h 0.71875 L 2.53125,-2.125 1.21875,-0.65625 c -0.15625,0.1875 -0.515625,0.1875 -1,0.1875 V 0 c 0.34375,-0.015625 0.875,-0.03125 0.921875,-0.03125 0.25,0 0.828125,0.015625 1.015625,0.03125 v -0.46875 c -0.171875,0 -0.359375,-0.046875 -0.359375,-0.109375 0,-0.015625 0,-0.015625 0.0625,-0.09375 l 0.96875,-1.09375 1.09375,1.296875 H 3.53125 V 0 c 0.265625,-0.015625 0.875,-0.03125 1.203125,-0.03125 0.3125,0 0.765625,0.015625 1.09375,0.03125 V -0.46875 H 5.125 Z m 0,0"
               id="id-ef22ab77-4c5a-4848-8b37-bc076231a94b" />
          </symbol>
          <symbol
             overflow="visible"
             id="id-82008b9f-1196-40d5-b732-63392c7a2db7">
            <path
               style="stroke:none"
               d=""
               id="id-049b5123-1f26-426a-999d-b729745eb814" />
          </symbol>
          <symbol
             overflow="visible"
             id="id-3ad830ca-021e-4e23-9bd8-e9002be5bf00">
            <path
               style="stroke:none"
               d="M 3.515625,-1.265625 H 3.28125 c -0.015625,0.15625 -0.09375,0.5625 -0.1875,0.625 C 3.046875,-0.59375 2.515625,-0.59375 2.40625,-0.59375 H 1.125 c 0.734375,-0.640625 0.984375,-0.84375 1.390625,-1.171875 0.515625,-0.40625 1,-0.84375 1,-1.5 0,-0.84375 -0.734375,-1.359375 -1.625,-1.359375 -0.859375,0 -1.453125,0.609375 -1.453125,1.25 0,0.34375 0.296875,0.390625 0.375,0.390625 0.15625,0 0.359375,-0.125 0.359375,-0.375 0,-0.125 -0.046875,-0.375 -0.40625,-0.375 C 0.984375,-4.21875 1.453125,-4.375 1.78125,-4.375 c 0.703125,0 1.0625,0.546875 1.0625,1.109375 0,0.609375 -0.4375,1.078125 -0.65625,1.328125 L 0.515625,-0.265625 C 0.4375,-0.203125 0.4375,-0.1875 0.4375,0 h 2.875 z m 0,0"
               id="id-1d08b9f1-d728-418d-964f-1a27e2318964" />
          </symbol>
        </g>
      </defs>
      <g
         id="id-a0615ebc-3dc9-400c-b006-fd3ea2231b0a"
         transform="translate(-148.931,-130.343)">
        <g
           style="fill:#000000;fill-opacity:1"
           id="id-e8560e80-0b05-436e-9f08-ed82bd2bb6ee">
          <g
             transform="translate(148.712,134.765)"
             id="g2890">
            <path
               style="stroke:none"
               d="M 3.453125,-2.453125 4.609375,-3.75 C 4.75,-3.890625 4.8125,-3.953125 5.625,-3.953125 v -0.46875 c -0.34375,0.015625 -0.859375,0.03125 -0.90625,0.03125 -0.25,0 -0.75,-0.03125 -1.03125,-0.03125 v 0.46875 c 0.140625,0 0.265625,0.015625 0.375,0.078125 -0.03125,0.0625 -0.03125,0.09375 -0.078125,0.125 L 3.15625,-2.8125 2.171875,-3.953125 h 0.40625 v -0.46875 c -0.265625,0 -0.890625,0.03125 -1.21875,0.03125 -0.3125,0 -0.765625,-0.03125 -1.09375,-0.03125 v 0.46875 h 0.71875 L 2.53125,-2.125 1.21875,-0.65625 c -0.15625,0.1875 -0.515625,0.1875 -1,0.1875 V 0 c 0.34375,-0.015625 0.875,-0.03125 0.921875,-0.03125 0.25,0 0.828125,0.015625 1.015625,0.03125 v -0.46875 c -0.171875,0 -0.359375,-0.046875 -0.359375,-0.109375 0,-0.015625 0,-0.015625 0.0625,-0.09375 l 0.96875,-1.09375 1.09375,1.296875 H 3.53125 V 0 c 0.265625,-0.015625 0.875,-0.03125 1.203125,-0.03125 0.3125,0 0.765625,0.015625 1.09375,0.03125 V -0.46875 H 5.125 Z m 0,0"
               id="id-ba502367-d7f3-4621-a900-49923a3245fc" />
          </g>
        </g>
        <g
           style="fill:#000000;fill-opacity:1"
           id="id-4c98dd3a-e160-4f81-b82a-7178b1374baa">
          <g
             transform="translate(154.759,136.259)"
             id="g2894">
            <path
               style="stroke:none"
               d="M 3.515625,-1.265625 H 3.28125 c -0.015625,0.15625 -0.09375,0.5625 -0.1875,0.625 C 3.046875,-0.59375 2.515625,-0.59375 2.40625,-0.59375 H 1.125 c 0.734375,-0.640625 0.984375,-0.84375 1.390625,-1.171875 0.515625,-0.40625 1,-0.84375 1,-1.5 0,-0.84375 -0.734375,-1.359375 -1.625,-1.359375 -0.859375,0 -1.453125,0.609375 -1.453125,1.25 0,0.34375 0.296875,0.390625 0.375,0.390625 0.15625,0 0.359375,-0.125 0.359375,-0.375 0,-0.125 -0.046875,-0.375 -0.40625,-0.375 C 0.984375,-4.21875 1.453125,-4.375 1.78125,-4.375 c 0.703125,0 1.0625,0.546875 1.0625,1.109375 0,0.609375 -0.4375,1.078125 -0.65625,1.328125 L 0.515625,-0.265625 C 0.4375,-0.203125 0.4375,-0.1875 0.4375,0 h 2.875 z m 0,0"
               id="id-ddf329a6-27f4-4911-a6e4-8eb9d2fdb4f1" />
          </g>
        </g>
      </g>
    </g>
    <path
       style="fill:none;stroke:#000000;stroke-width:1;stroke-linecap:butt;stroke-linejoin:miter;stroke-miterlimit:4;stroke-dasharray:1, 3;stroke-dashoffset:0;stroke-opacity:1"
       d="m 145.68245,104.74518 26.76438,26.76438"
       id="path2919" />
    <path
       style="fill:none;stroke:#000000;stroke-width:1;stroke-linecap:butt;stroke-linejoin:miter;stroke-miterlimit:4;stroke-dasharray:1, 3;stroke-dashoffset:0;stroke-opacity:1"
       d="M 129.80162,69.970748 155.01235,95.18148"
       id="path2921" />
  </g>
</svg>
